<svg width="34" height="48" viewBox="0 0 34 48" fill="none" xmlns="http://www.w3.org/2000/svg">
<path d="M23.8126 47.617L16.5396 40.7565L9.2666 47.617V23.373H23.8118L23.8126 47.617Z" fill="#FF4397"/>
<path d="M22.2444 23.373V46.1376L23.8128 47.617V23.373H22.2444Z" fill="#E12579"/>
<path d="M10.835 23.373V46.1376L9.2666 47.617V23.373H10.835Z" fill="#FF61B5"/>
<path d="M23.8128 47.9977C23.7157 47.9976 23.6223 47.9605 23.5517 47.8938L16.5406 41.2819L9.52953 47.8955C9.47545 47.9467 9.40754 47.9809 9.3342 47.994C9.26086 48.007 9.18531 47.9982 9.1169 47.9688C9.04848 47.9393 8.99021 47.8904 8.9493 47.8282C8.90839 47.7659 8.88663 47.693 8.88672 47.6185V23.3721C8.88672 23.2711 8.92684 23.1742 8.99827 23.1028C9.06969 23.0313 9.16657 22.9912 9.26758 22.9912H23.8128C23.9138 22.9912 24.0107 23.0313 24.0821 23.1028C24.1535 23.1742 24.1937 23.2711 24.1937 23.3721V47.616C24.1937 47.7171 24.1535 47.8139 24.0821 47.8854C24.0107 47.9568 23.9138 47.9969 23.8128 47.9969V47.9977ZM16.5398 40.3755C16.6369 40.3755 16.7303 40.4127 16.8009 40.4794L23.4311 46.7337V23.7529H9.64845V46.7337L16.2787 40.4794C16.3495 40.4125 16.4432 40.3753 16.5406 40.3755H16.5398Z" fill="#690589"/>
<path d="M18.5445 0.699662C20.0138 0.223936 21.6046 0.287243 23.0314 0.87823C24.4583 1.46922 25.628 2.54922 26.3306 3.92454C26.9525 5.14075 27.9418 6.13007 29.158 6.75192C30.5333 7.45457 31.6133 8.62422 32.2043 10.0511C32.7953 11.478 32.8586 13.0687 32.3829 14.538C31.9618 15.8387 31.9618 17.239 32.3829 18.5396C32.8591 20.0095 32.7959 21.6009 32.2046 23.0284C31.6133 24.4558 30.5325 25.6258 29.1563 26.3282C27.9401 26.95 26.9508 27.9394 26.3289 29.1556C25.6269 30.5312 24.4578 31.6116 23.0312 32.2032C21.6046 32.7948 20.014 32.8588 18.5445 32.3838C17.2439 31.9628 15.8436 31.9628 14.5429 32.3838C13.0727 32.8604 11.4807 32.7972 10.0528 32.2055C8.62498 31.6138 7.45488 30.5324 6.75265 29.1556C6.13085 27.9394 5.14152 26.95 3.92527 26.3282C2.54995 25.6256 1.46995 24.4559 0.878963 23.029C0.287976 21.6022 0.224668 20.0114 0.700394 18.5421C1.12144 17.2415 1.12144 15.8412 0.700394 14.5405C0.224668 13.0712 0.287976 11.4805 0.878963 10.0536C1.46995 8.62671 2.54995 7.45707 3.92527 6.75442C5.14152 6.13261 6.13085 5.14328 6.75265 3.92704C7.45543 2.55183 8.6251 1.47193 10.0519 0.880966C11.4788 0.289997 13.0694 0.226605 14.5388 0.702157C15.8394 1.1232 17.2397 1.1232 18.5403 0.702157L18.5445 0.699662Z" fill="#FCC24C"/>
<path d="M32.3823 18.542C31.9612 17.2413 31.9612 15.841 32.3823 14.5404C32.858 13.071 32.7947 11.4803 32.2037 10.0534C31.6127 8.62656 30.5327 7.45691 29.1574 6.75426C27.9411 6.13245 26.9518 5.14313 26.33 3.92688C25.7244 2.74204 24.7696 1.77172 23.5947 1.14708C22.4198 0.522443 21.0814 0.273614 19.7605 0.43423C20.8164 0.562377 21.8246 0.947883 22.6966 1.55687C23.5687 2.16587 24.2778 2.9797 24.7616 3.92688C25.3835 5.14309 26.3728 6.13241 27.589 6.75426C28.9643 7.45691 30.0443 8.62656 30.6353 10.0534C31.2263 11.4803 31.2896 13.071 30.8139 14.5404C30.3928 15.841 30.3928 17.2413 30.8139 18.542C31.2896 20.0113 31.2263 21.602 30.6353 23.0289C30.0443 24.4558 28.9643 25.6254 27.589 26.3281C26.3728 26.9499 25.3835 27.9392 24.7616 29.1554C24.2777 30.1026 23.5686 30.9164 22.6966 31.5254C21.8246 32.1343 20.8163 32.5199 19.7605 32.6481C21.0814 32.8086 22.4197 32.5597 23.5946 31.9351C24.7695 31.3105 25.7243 30.3402 26.33 29.1554C26.9518 27.9392 27.9411 26.9499 29.1574 26.3281C30.5327 25.6254 31.6127 24.4558 32.2037 23.0289C32.7947 21.602 32.858 20.0113 32.3823 18.542Z" fill="#DEA42E"/>
<path d="M0.698004 14.5403C1.11905 15.8409 1.11905 17.2413 0.698004 18.5419C0.222278 20.0112 0.285586 21.602 0.876572 23.0288C1.46756 24.4557 2.54756 25.6253 3.92288 26.328C5.13913 26.9498 6.12845 27.9391 6.75026 29.1554C7.35587 30.3402 8.31066 31.3105 9.48557 31.9352C10.6605 32.5598 11.9989 32.8086 13.3198 32.648C12.2639 32.5199 11.2557 32.1344 10.3836 31.5254C9.51162 30.9164 8.80252 30.1026 8.31863 29.1554C7.69682 27.9391 6.70749 26.9498 5.49125 26.328C4.11593 25.6253 3.03592 24.4557 2.44494 23.0288C1.85395 21.602 1.79064 20.0112 2.26637 18.5419C2.68747 17.2413 2.68747 15.8409 2.26637 14.5403C1.79038 13.0714 1.8532 11.4809 2.44356 10.0541C3.03391 8.62728 4.1132 7.4574 5.48792 6.7542C6.70417 6.13239 7.69349 5.14306 8.3153 3.92682C8.79925 2.97969 9.50837 2.16589 10.3804 1.5569C11.2524 0.947917 12.2606 0.562384 13.3164 0.434166C11.9955 0.273671 10.6572 0.522554 9.48234 1.14718C8.30745 1.7718 7.35263 2.74206 6.74694 3.92682C6.12513 5.14306 5.1358 6.13239 3.91956 6.7542C2.54496 7.45752 1.46577 8.62742 0.875433 10.0542C0.285095 11.481 0.222194 13.0714 0.698004 14.5403Z" fill="#FCE06A"/>
<path d="M12.5231 33.0857C11.2579 33.0853 10.0176 32.7343 8.93986 32.0717C7.8621 31.409 6.98905 30.4607 6.41763 29.3319C5.83447 28.1857 4.90277 27.254 3.75656 26.6708C2.29648 25.9315 1.14941 24.6938 0.523066 23.1818C-0.103275 21.6698 -0.16748 19.9834 0.34208 18.4282C0.740914 17.2042 0.740914 15.8851 0.34208 14.6611C-0.168666 13.1063 -0.105785 11.42 0.519332 9.90756C1.14445 8.3951 2.29048 7.15648 3.74991 6.41598C4.89605 5.83272 5.82772 4.90105 6.41097 3.75491C7.15031 2.29483 8.38805 1.14776 9.90006 0.521415C11.4121 -0.104926 13.0984 -0.16913 14.6536 0.340431C15.8776 0.739264 17.1967 0.739264 18.4207 0.340431C19.976 -0.16913 21.6623 -0.104926 23.1743 0.521415C24.6863 1.14776 25.924 2.29483 26.6634 3.75491C27.2465 4.90112 28.1782 5.83281 29.3244 6.41598C30.7845 7.15531 31.9316 8.39305 32.5579 9.90506C33.1842 11.4171 33.2485 13.1034 32.7389 14.6586C32.3401 15.8826 32.3401 17.2017 32.7389 18.4257C33.2485 19.981 33.1842 21.6673 32.5579 23.1793C31.9316 24.6913 30.7845 25.929 29.3244 26.6683C28.1782 27.2515 27.2465 28.1832 26.6634 29.3294C25.9245 30.7884 24.688 31.9348 23.1775 32.5615C21.6669 33.1882 19.982 33.2538 18.4273 32.7464C17.2033 32.3475 15.8843 32.3475 14.6603 32.7464C13.9698 32.9708 13.2483 33.0853 12.5223 33.0857H12.5231ZM12.5231 0.760381C11.3982 0.760828 10.2954 1.07299 9.33711 1.66222C8.37885 2.25145 7.6026 3.09469 7.09454 4.09835C6.4386 5.38793 5.39041 6.43612 4.10084 7.09205C2.80244 7.74943 1.78239 8.85005 1.22545 10.1946C0.668502 11.5391 0.611488 13.0387 1.06473 14.4216C1.51317 15.798 1.51317 17.2813 1.06473 18.6577C0.611488 20.0407 0.668502 21.5402 1.22545 22.8847C1.78239 24.2293 2.80244 25.3299 4.10084 25.9873C5.39041 26.6432 6.4386 27.6914 7.09454 28.981C7.75191 30.2794 8.85254 31.2994 10.1971 31.8564C11.5416 32.4133 13.0412 32.4703 14.4241 32.0171C15.8006 31.5688 17.2837 31.5688 18.6602 32.0171C20.0431 32.4703 21.5427 32.4133 22.8872 31.8564C24.2318 31.2994 25.3324 30.2794 25.9898 28.981C26.6457 27.6914 27.6939 26.6432 28.9835 25.9873C30.2819 25.3299 31.3019 24.2293 31.8589 22.8847C32.4158 21.5402 32.4728 20.0407 32.0196 18.6577C31.5711 17.2813 31.5711 15.798 32.0196 14.4216C32.4728 13.0387 32.4158 11.5391 31.8589 10.1946C31.3019 8.85005 30.2819 7.74943 28.9835 7.09205C27.6939 6.43617 26.6457 5.38796 25.9898 4.09835C25.3324 2.79996 24.2318 1.77991 22.8872 1.22297C21.5427 0.66602 20.0431 0.609004 18.6602 1.06225C17.2838 1.51058 15.8006 1.51058 14.4241 1.06225C13.8101 0.862773 13.1687 0.760912 12.5231 0.760381Z" fill="#690589"/>
<path d="M16.5396 29.3308C23.6028 29.3308 29.3286 23.605 29.3286 16.5418C29.3286 9.47872 23.6028 3.75293 16.5396 3.75293C9.47652 3.75293 3.75073 9.47872 3.75073 16.5418C3.75073 23.605 9.47652 29.3308 16.5396 29.3308Z" fill="#7BAC51"/>
<path d="M16.5395 3.75293C16.2759 3.75293 16.0148 3.76374 15.7554 3.77954C19.0099 3.97266 22.0678 5.40162 24.3038 7.77427C26.5399 10.1469 27.7852 13.2841 27.7852 16.5443C27.7852 19.8046 26.5399 22.9418 24.3038 25.3144C22.0678 27.6871 19.0099 29.116 15.7554 29.3091C16.0148 29.3249 16.2759 29.3357 16.5395 29.3357C19.9315 29.3357 23.1845 27.9883 25.583 25.5898C27.9814 23.1914 29.3289 19.9384 29.3289 16.5464C29.3289 13.1545 27.9814 9.90146 25.583 7.503C23.1845 5.10453 19.9315 3.75709 16.5395 3.75709V3.75293Z" fill="#5D8E33"/>
<path d="M16.5396 29.3309C16.8032 29.3309 17.0643 29.3201 17.3238 29.3043C14.0692 29.1111 11.0113 27.6822 8.7753 25.3095C6.53926 22.9369 5.29395 19.7997 5.29395 16.5395C5.29395 13.2792 6.53926 10.142 8.7753 7.76939C11.0113 5.39673 14.0692 3.96778 17.3238 3.77466C17.0643 3.75886 16.8032 3.74805 16.5396 3.74805C13.1476 3.74805 9.89462 5.09549 7.49615 7.49395C5.09769 9.89242 3.75024 13.1454 3.75024 16.5374C3.75024 19.9293 5.09769 23.1823 7.49615 25.5808C9.89462 27.9793 13.1476 29.3267 16.5396 29.3267V29.3309Z" fill="#99CA6F"/>
<path d="M16.5395 21.6805L11.4668 24.3473L12.4356 18.6984L8.33008 14.6985L14.0023 13.8744L16.5386 8.73438L19.075 13.8744L24.7472 14.6985L20.6425 18.6992L21.6113 24.3482L16.5395 21.6805Z" fill="#F4EFED"/>
<path d="M21.6132 24.7311C21.5515 24.7311 21.4908 24.7163 21.4361 24.6878L16.5397 22.1166L11.6442 24.6945C11.5813 24.7274 11.5104 24.7421 11.4396 24.737C11.3688 24.7318 11.3008 24.7069 11.2434 24.6651C11.1859 24.6233 11.1413 24.5663 11.1146 24.5005C11.0878 24.4348 11.08 24.3628 11.092 24.2928L12.0242 18.8343L8.06504 14.9733C8.0142 14.9236 7.97825 14.8608 7.96125 14.7918C7.94426 14.7228 7.9469 14.6505 7.96887 14.5829C7.99084 14.5153 8.03127 14.4553 8.08559 14.4095C8.13991 14.3637 8.20596 14.334 8.27626 14.3238L13.7497 13.5288L16.1979 8.56841C16.2294 8.50477 16.2781 8.4512 16.3384 8.41375C16.3987 8.37629 16.4683 8.35645 16.5393 8.35645C16.6103 8.35645 16.6799 8.37629 16.7402 8.41375C16.8005 8.4512 16.8492 8.50477 16.8806 8.56841L19.3288 13.5288L24.8023 14.3238C24.8726 14.334 24.9387 14.3637 24.993 14.4095C25.0473 14.4553 25.0877 14.5153 25.1097 14.5829C25.1317 14.6505 25.1343 14.7228 25.1173 14.7918C25.1003 14.8608 25.0644 14.9236 25.0135 14.9733L21.0527 18.8343L21.9882 24.2862C21.9977 24.3409 21.9951 24.3971 21.9805 24.4507C21.966 24.5043 21.9399 24.5541 21.9041 24.5965C21.8683 24.639 21.8236 24.6731 21.7732 24.6965C21.7228 24.7199 21.6679 24.732 21.6124 24.7319L21.6132 24.7311ZM16.5405 21.3024C16.6022 21.3024 16.663 21.3172 16.7177 21.3457L21.1076 23.6533L20.2685 18.7653C20.2582 18.7044 20.2627 18.642 20.2819 18.5833C20.301 18.5247 20.3341 18.4715 20.3783 18.4285L23.93 14.9666L19.0236 14.2531C18.9625 14.2442 18.9044 14.2206 18.8544 14.1842C18.8044 14.1478 18.764 14.0998 18.7367 14.0444L16.5414 9.59708L14.346 14.0444C14.3187 14.0998 14.2783 14.1478 14.2283 14.1842C14.1783 14.2206 14.1203 14.2442 14.0591 14.2531L9.15275 14.9666L12.7044 18.4285C12.7486 18.4715 12.7817 18.5247 12.8009 18.5833C12.82 18.642 12.8246 18.7044 12.8142 18.7653L11.976 23.6542L16.3659 21.3465C16.4205 21.3176 16.4813 21.3025 16.543 21.3024H16.5405Z" fill="#690589"/>
<path d="M16.5398 29.7126C13.9351 29.7124 11.389 28.9399 9.22338 27.4928C7.05775 26.0456 5.36987 23.9887 4.37319 21.5823C3.3765 19.1759 3.11576 16.5279 3.62395 13.9733C4.13214 11.4187 5.38642 9.07217 7.2282 7.23039C9.06997 5.38861 11.4165 4.13433 13.9711 3.62615C16.5257 3.11796 19.1737 3.3787 21.5801 4.37538C23.9865 5.37207 26.0434 7.05994 27.4906 9.22558C28.9377 11.3912 29.7103 13.9373 29.7104 16.542C29.7065 20.0338 28.3176 23.3815 25.8485 25.8507C23.3793 28.3198 20.0316 29.7087 16.5398 29.7126ZM16.5398 4.13395C14.0858 4.13412 11.6869 4.86197 9.64648 6.22549C7.6061 7.589 6.01586 9.52693 5.07685 11.7942C4.13785 14.0615 3.89224 16.5563 4.3711 18.9632C4.84997 21.3701 6.03178 23.5809 7.76711 25.3161C9.50244 27.0513 11.7133 28.233 14.1203 28.7117C16.5272 29.1904 19.022 28.9446 21.2892 28.0055C23.5564 27.0663 25.4942 25.4759 26.8576 23.4355C28.221 21.395 28.9487 18.996 28.9487 16.542C28.9449 13.2522 27.6364 10.0982 25.31 7.77202C22.9837 5.44585 19.8296 4.13747 16.5398 4.13395Z" fill="#690589"/>
<path d="M5.29102 17.0871C5.19001 17.0871 5.09314 17.047 5.02171 16.9756C4.95029 16.9042 4.91016 16.8073 4.91016 16.7063C4.91016 15.9179 4.97889 15.131 5.11556 14.3546C5.12117 14.3027 5.13737 14.2525 5.16317 14.2072C5.18896 14.1618 5.2238 14.1223 5.26552 14.091C5.30723 14.0596 5.35494 14.0372 5.40568 14.0251C5.45642 14.013 5.50911 14.0114 5.56048 14.0205C5.61185 14.0295 5.66081 14.0491 5.70432 14.0778C5.74783 14.1066 5.78497 14.144 5.81343 14.1878C5.84188 14.2315 5.86105 14.2806 5.86975 14.332C5.87845 14.3835 5.87649 14.4361 5.86398 14.4868C5.73498 15.2196 5.67014 15.9622 5.67022 16.7063C5.67023 16.807 5.63033 16.9036 5.55926 16.975C5.48819 17.0464 5.39174 17.0867 5.29102 17.0871Z" fill="#690589"/>
</svg>
