<svg width="62" height="62" viewBox="0 0 62 62" fill="none" xmlns="http://www.w3.org/2000/svg">
<path d="M49.3784 20.9491L45.0004 17.3001L40.6224 20.9471L38.5924 19.4121L40.7534 14.3691L36.1064 11.2691L36.8684 9.00005H42.2464L43.6664 4.02905H46.3344L47.7544 9.00005H53.1324L53.8954 11.2711L49.2484 14.3711L51.4094 19.4141L49.3784 20.9491Z" fill="#F0BC5E"/>
<path d="M48 32H58V37H48V32Z" fill="#F0BC5E"/>
<path d="M4 43H14V48H4V43Z" fill="#F0BC5E"/>
<path d="M57 0H33C31.6744 0.00158786 30.4036 0.528882 29.4662 1.46622C28.5289 2.40356 28.0016 3.67441 28 5V10H5C3.67441 10.0016 2.40356 10.5289 1.46622 11.4662C0.528882 12.4036 0.00158786 13.6744 0 15V31C0.00158786 32.3256 0.528882 33.5964 1.46622 34.5338C2.40356 35.4711 3.67441 35.9984 5 36H23C23.0013 37.3453 23.3421 38.6684 23.9908 39.847C24.6395 41.0255 25.5751 42.0212 26.711 42.742C24.1689 43.6323 21.9657 45.2896 20.4054 47.4852C18.8451 49.6808 18.0047 52.3065 18 55V62H44V55C43.9953 52.3065 43.1549 49.6808 41.5946 47.4852C40.0343 45.2896 37.8311 43.6323 35.289 42.742C36.5297 41.9555 37.5294 40.842 38.1783 39.5241C38.8271 38.2061 39.0999 36.7348 38.9667 35.2719C38.8335 33.8089 38.2993 32.4111 37.4231 31.232C36.5468 30.053 35.3624 29.1384 34 28.589V26H57C58.3256 25.9984 59.5964 25.4711 60.5338 24.5338C61.4711 23.5964 61.9984 22.3256 62 21V5C61.9984 3.67441 61.4711 2.40356 60.5338 1.46622C59.5964 0.528882 58.3256 0.00158786 57 0ZM42 55V60H39V51H37V60H25V51H23V60H20V55C20 52.0826 21.1589 49.2847 23.2218 47.2218C25.2847 45.1589 28.0826 44 31 44C33.9174 44 36.7153 45.1589 38.7782 47.2218C40.8411 49.2847 42 52.0826 42 55ZM37 36C37 37.1867 36.6481 38.3467 35.9888 39.3334C35.3295 40.3201 34.3925 41.0892 33.2961 41.5433C32.1997 41.9974 30.9933 42.1162 29.8295 41.8847C28.6656 41.6532 27.5965 41.0818 26.7574 40.2426C25.9182 39.4035 25.3468 38.3344 25.1153 37.1705C24.8838 36.0067 25.0026 34.8003 25.4567 33.7039C25.9108 32.6075 26.6799 31.6705 27.6666 31.0112C28.6533 30.3519 29.8133 30 31 30C32.5908 30.0016 34.116 30.6342 35.2409 31.7591C36.3658 32.884 36.9984 34.4092 37 36ZM31 28C29.2283 28.0034 27.5078 28.5941 26.1077 29.6799C24.7077 30.7656 23.7072 32.2849 23.263 34H5C4.20435 34 3.44129 33.6839 2.87868 33.1213C2.31607 32.5587 2 31.7956 2 31V15C2 14.2044 2.31607 13.4413 2.87868 12.8787C3.44129 12.3161 4.20435 12 5 12H29C29.7956 12 30.5587 12.3161 31.1213 12.8787C31.6839 13.4413 32 14.2044 32 15V28.069C31.6684 28.0252 31.3344 28.0022 31 28ZM60 21C60 21.7956 59.6839 22.5587 59.1213 23.1213C58.5587 23.6839 57.7957 24 57 24H34V15C33.9985 13.8478 33.5999 12.7313 32.8713 11.8387C32.1427 10.9462 31.1286 10.3321 30 10.1V5C30 4.20435 30.3161 3.44129 30.8787 2.87868C31.4413 2.31607 32.2043 2 33 2H57C57.7957 2 58.5587 2.31607 59.1213 2.87868C59.6839 3.44129 60 4.20435 60 5V21Z" fill="black"/>
<path d="M21.4998 19.662L16.9998 15.662L12.4998 19.662L7.95977 15.626L5.84277 17.743L10.3928 30.255L11.3158 29.949C13.1576 29.3719 15.0704 29.0525 16.9998 29C18.9295 29.0527 20.8426 29.372 22.6848 29.949L23.6078 30.256L28.1578 17.743L26.0418 15.626L21.4998 19.662ZM22.3838 27.776C20.6283 27.2946 18.8197 27.0339 16.9998 27C15.1808 27.0341 13.3732 27.2948 11.6188 27.776L8.27577 18.585L12.4948 22.338L16.9948 18.338L21.4948 22.338L25.7218 18.583L22.3838 27.776Z" fill="black"/>
<path d="M55 28H51C49.1442 28.0024 47.3651 28.7406 46.0529 30.0529C44.7406 31.3651 44.0024 33.1442 44 35V42H55C56.8565 42 58.637 41.2625 59.9497 39.9497C61.2625 38.637 62 36.8565 62 35C62 33.1435 61.2625 31.363 59.9497 30.0503C58.637 28.7375 56.8565 28 55 28ZM55 40H46V35C46.0016 33.6744 46.5289 32.4036 47.4662 31.4662C48.4036 30.5289 49.6744 30.0016 51 30H55C56.3261 30 57.5979 30.5268 58.5355 31.4645C59.4732 32.4021 60 33.6739 60 35C60 36.3261 59.4732 37.5979 58.5355 38.5355C57.5979 39.4732 56.3261 40 55 40Z" fill="black"/>
<path d="M48 32H50V34H48V32Z" fill="black"/>
<path d="M52 32H54V34H52V32Z" fill="black"/>
<path d="M56 32H58V34H56V32Z" fill="black"/>
<path d="M48 36H58V38H48V36Z" fill="black"/>
<path d="M18 38H7C5.14348 38 3.36301 38.7375 2.05025 40.0503C0.737498 41.363 0 43.1435 0 45C0 46.8565 0.737498 48.637 2.05025 49.9497C3.36301 51.2625 5.14348 52 7 52H11C12.8558 51.9976 14.6349 51.2594 15.9471 49.9471C17.2594 48.6349 17.9976 46.8558 18 45V38ZM16 45C15.9984 46.3256 15.4711 47.5964 14.5338 48.5338C13.5964 49.4711 12.3256 49.9984 11 50H7C5.67392 50 4.40215 49.4732 3.46447 48.5355C2.52678 47.5979 2 46.3261 2 45C2 43.6739 2.52678 42.4021 3.46447 41.4645C4.40215 40.5268 5.67392 40 7 40H16V45Z" fill="black"/>
<path d="M12 46H14V48H12V46Z" fill="black"/>
<path d="M8 46H10V48H8V46Z" fill="black"/>
<path d="M4 46H6V48H4V46Z" fill="black"/>
<path d="M4 42H14V44H4V42Z" fill="black"/>
<path d="M16 23H18V25H16V23Z" fill="black"/>
</svg>
