<svg width="57" height="57" viewBox="0 0 57 57" fill="none" xmlns="http://www.w3.org/2000/svg">
<path d="M28.4782 0L26.2524 29.6862L28.4782 56.9446C36.0295 56.9446 43.2715 53.9449 48.6111 48.6053C53.9507 43.2657 56.9505 36.0236 56.9505 28.4723C56.9505 20.921 53.9507 13.6789 48.6111 8.33935C43.2715 2.99975 36.0295 0 28.4782 0V0Z" fill="#FE8100"/>
<path d="M0 28.4723C0 36.0236 2.99975 43.2657 8.33935 48.6053C13.6789 53.9449 20.921 56.9446 28.4723 56.9446V0C20.921 0 13.6789 2.99975 8.33935 8.33935C2.99975 13.6789 0 20.921 0 28.4723H0Z" fill="#FFB742"/>
<path d="M28.4782 7.13593L26.2524 11.0114L28.4782 14.229C29.8348 14.229 31.1359 14.7679 32.0953 15.7273C33.0546 16.6866 33.5935 17.9877 33.5935 19.3444C33.5935 20.701 33.0546 22.0021 32.0953 22.9614C31.1359 23.9208 29.8348 24.4597 28.4782 24.4597L26.2524 29.691L28.4782 34.9223H32.0217V31.0268C34.8367 30.19 37.2552 28.3657 38.8333 25.889C40.4114 23.4123 41.0429 20.4494 40.6121 17.5444C40.1812 14.6395 38.7168 11.9875 36.4878 10.0755C34.2588 8.16341 31.4148 7.11968 28.4782 7.13593Z" fill="#114378"/>
<path d="M32.0177 49.1017V42.0127H28.4782L26.2524 45.5562L28.4782 49.0997L32.0177 49.1017Z" fill="#114378"/>
<path d="M28.4705 42.0127H24.927V49.1018H28.4705V42.0127Z" fill="#266CB2"/>
<path d="M28.4705 24.4561H24.927V34.9167H28.4705V24.4561Z" fill="#266CB2"/>
<path d="M17.2 14.6688L23.7471 17.3804C24.1341 16.4462 24.7894 15.6476 25.6301 15.0855C26.4708 14.5235 27.4592 14.2233 28.4705 14.2228V7.13574C26.0582 7.139 23.7007 7.85604 21.6952 9.19654C19.6896 10.537 18.1255 12.441 17.2 14.6688Z" fill="#266CB2"/>
</svg>
