<svg width="56" height="62" viewBox="0 0 56 62" fill="none" xmlns="http://www.w3.org/2000/svg">
<path d="M41.9503 26.1068H41.9703C42.7921 26.0861 43.5734 25.7451 44.1473 25.1565C44.7213 24.5679 45.0425 23.7783 45.0425 22.9562C45.0425 22.1341 44.7213 21.3446 44.1473 20.756C43.5734 20.1674 42.7921 19.8264 41.9703 19.8057H12.996C12.1742 19.8264 11.393 20.1674 10.819 20.756C10.2451 21.3446 9.92383 22.1341 9.92383 22.9562C9.92383 23.7783 10.2451 24.5679 10.819 25.1565C11.393 25.7451 12.1742 26.0861 12.996 26.1068H13.016" fill="#F1B986"/>
<path d="M41.2388 11.5775C32.0961 10.689 22.8889 10.689 13.7463 11.5775C13.0365 17.246 12.8264 22.9659 13.1184 28.6713C13.2206 30.6719 14.0637 32.5629 15.4835 33.9761C16.9033 35.3893 18.7983 36.2235 20.7994 36.3163C25.2628 36.5269 29.7289 36.5269 34.1977 36.3163C36.1988 36.2235 38.0937 35.3893 39.5136 33.9761C40.9334 32.5629 41.7765 30.6719 41.8787 28.6713C42.1669 22.9656 41.9528 17.2456 41.2388 11.5775Z" fill="#F1D0A5"/>
<path d="M13.742 11.5829C18.3228 11.139 22.9049 10.917 27.4883 10.917C25.1518 10.9182 22.8208 11.1432 20.5272 11.5889C20.1659 17.3415 20.0599 23.0941 20.2092 28.8467C20.3072 32.6322 21.689 35.7198 23.5048 36.4237C22.6009 36.3997 21.697 36.3657 20.7931 36.3217C18.792 36.2289 16.8971 35.3947 15.4772 33.9816C14.0574 32.5684 13.2143 30.6773 13.1121 28.6767C12.8213 22.9713 13.0321 17.2514 13.742 11.5829Z" fill="#F1B986"/>
<path d="M35.1214 16.3143C29.8541 18.35 22.3711 17.4522 18.6016 13.6806C18.6016 13.6806 17.7057 19.8039 13.0663 19.8039L11.0426 20.4838C5.64325 -0.725487 17.1638 4.94178 17.1638 4.94178C17.5492 4.08107 18.1502 3.33436 18.9086 2.77386C19.667 2.21335 20.5573 1.85801 21.4932 1.74219C21.6392 1.7242 21.7852 1.7102 21.9311 1.7022H21.9671C23.1219 1.66709 24.2735 1.84051 25.3667 2.21413C25.7327 2.33212 26.0826 2.4621 26.4106 2.59608C27.2727 2.94765 28.1024 3.37388 28.8903 3.86992L28.9302 3.89792C30.1161 2.32812 31.2479 0.898304 32.4918 0.898304C32.7026 0.88713 32.913 0.927551 33.1046 1.01606C33.2963 1.10457 33.4634 1.2385 33.5916 1.40624C34.4895 2.58209 33.7516 5.40572 33.6916 5.63369V5.61769C33.8516 5.21774 35.6334 0.898304 38.829 0.898304C39.0117 0.896348 39.1941 0.914454 39.3729 0.952297C41.7546 1.47823 39.8908 5.64569 39.6848 6.08563V6.09763L39.6749 6.11963C39.7768 5.98965 43.7663 0.920301 45.5381 3.248C47.3239 5.62969 40.3848 14.2846 35.1214 16.3143Z" fill="#F4DD45"/>
<path d="M45.5356 3.26921C44.6397 2.37332 41.5362 6.60077 39.6704 6.14283L39.6844 6.11684L39.6744 6.13883C39.7684 6.01085 43.7678 0.945506 45.5356 3.26921Z" fill="#ECC32E"/>
<path d="M39.3748 0.970375C38.029 0.664414 36.7752 3.22808 36.0753 5.04785C35.9951 5.25425 35.8704 5.44047 35.7102 5.59327C35.5499 5.74607 35.358 5.8617 35.1481 5.93195C34.9381 6.0022 34.7152 6.02534 34.4953 5.99972C34.2753 5.97411 34.0637 5.90037 33.8755 5.78375L33.6755 5.66377V5.65177V5.63577C33.8355 5.23582 35.6173 0.916382 38.8129 0.916382C39.0016 0.913155 39.1901 0.931267 39.3748 0.970375Z" fill="#ECC32E"/>
<path d="M21.493 1.75391C17.6395 2.43382 16.1836 11.2687 18.6013 13.6864C18.6013 13.6864 17.7055 19.8096 13.0661 19.8096L11.0423 20.4895C5.64301 -0.719774 17.1635 4.94749 17.1635 4.94749C17.5498 4.0879 18.1511 3.34241 18.9095 2.783C19.6678 2.22359 20.5576 1.86915 21.493 1.75391Z" fill="#ECC32E"/>
<path d="M33.5876 1.42382C32.2338 0.0699918 31.3299 7.02309 28.2823 8.12695C25.2347 9.23081 24.9487 7.81699 24.9487 7.81699C26.588 6.87512 27.9582 5.52833 28.9282 3.90549L29.0382 3.75951L29.1782 3.57354C30.274 2.14172 31.3319 0.915882 32.4877 0.915882C32.6985 0.904708 32.9089 0.94513 33.1006 1.03364C33.2922 1.12215 33.4594 1.25608 33.5876 1.42382Z" fill="#ECC32E"/>
<path d="M50.5211 33.9634V54.4307C50.5206 55.0672 50.3021 55.6843 49.9018 56.1792C49.5015 56.6741 48.9437 57.0169 48.3214 57.1504L30.1417 61.0899H27.8V34.9293H30.1458L47.1436 31.2457C47.5498 31.157 47.9708 31.1604 48.3755 31.2557C48.7803 31.3511 49.1585 31.5358 49.4825 31.7965C49.8065 32.0572 50.0679 32.3872 50.2476 32.7621C50.4274 33.1371 50.5208 33.5476 50.5211 33.9634Z" fill="#DA4A54"/>
<path d="M27.8002 34.9304V61.093H25.2785L7.09888 57.1536C6.47655 57.02 5.91878 56.6773 5.51851 56.1824C5.11823 55.6875 4.89964 55.0704 4.89917 54.4339V33.9645C4.89928 33.549 4.99245 33.1387 5.17182 32.7638C5.3512 32.389 5.61222 32.059 5.93575 31.7982C6.25928 31.5374 6.63711 31.3523 7.0415 31.2565C7.4459 31.1608 7.86661 31.1568 8.27274 31.2449L25.2705 34.9284L27.8002 34.9304Z" fill="#C32430"/>
<path d="M25.2744 61.0873V34.9287H30.1418V61.0873" fill="#DD636E"/>
<path d="M4.40502 43.8546H3.45315C3.11884 43.8546 2.78782 43.7887 2.47896 43.6608C2.17011 43.5328 1.88947 43.3453 1.65309 43.1089C1.4167 42.8726 1.22919 42.5919 1.10126 42.2831C0.973323 41.9742 0.907471 41.6432 0.907471 41.3089V39.0232C0.907471 38.348 1.17568 37.7005 1.65309 37.2231C2.13049 36.7457 2.77799 36.4775 3.45315 36.4775H4.40502C5.08017 36.4775 5.72767 36.7457 6.20508 37.2231C6.68248 37.7005 6.95069 38.348 6.95069 39.0232V41.3089C6.95069 41.6432 6.88484 41.9742 6.75691 42.2831C6.62898 42.5919 6.44147 42.8726 6.20508 43.1089C5.96869 43.3453 5.68806 43.5328 5.3792 43.6608C5.07035 43.7887 4.73932 43.8546 4.40502 43.8546Z" fill="#F1D0A5"/>
<path d="M4.89501 43.8066C4.73376 43.8393 4.56959 43.8554 4.40506 43.8546H3.45119C3.11689 43.8546 2.78586 43.7887 2.47701 43.6608C2.16815 43.5328 1.88752 43.3454 1.65113 43.109C1.41475 42.8726 1.22723 42.5919 1.0993 42.2831C0.97137 41.9742 0.905518 41.6432 0.905518 41.3089V39.0252C0.905518 38.3501 1.17373 37.7026 1.65113 37.2251C2.12854 36.7477 2.77604 36.4795 3.45119 36.4795H4.40506C4.56959 36.4787 4.73376 36.4949 4.89501 36.5275C4.31618 36.6412 3.79482 36.9524 3.42018 37.408C3.04553 37.8637 2.84089 38.4353 2.84127 39.0252V41.3089C2.84127 41.8987 3.04605 42.4702 3.42063 42.9257C3.79521 43.3813 4.31635 43.6926 4.89501 43.8066Z" fill="#F1B986"/>
<path d="M51.9712 43.8546H51.0193C50.685 43.8546 50.354 43.7887 50.0451 43.6608C49.7363 43.5328 49.4557 43.3453 49.2193 43.1089C48.9829 42.8726 48.7953 42.5919 48.6674 42.2831C48.5395 41.9742 48.4736 41.6432 48.4736 41.3089V39.0232C48.4736 38.348 48.7419 37.7005 49.2193 37.2231C49.6967 36.7457 50.3442 36.4775 51.0193 36.4775H51.9712C52.6463 36.4775 53.2938 36.7457 53.7712 37.2231C54.2486 37.7005 54.5169 38.348 54.5169 39.0232V41.3089C54.5169 41.6432 54.451 41.9742 54.3231 42.2831C54.1952 42.5919 54.0076 42.8726 53.7712 43.1089C53.5348 43.3453 53.2543 43.5328 52.9454 43.6608C52.6365 43.7887 52.3055 43.8546 51.9712 43.8546Z" fill="#F1D0A5"/>
<path d="M52.4607 43.8066C52.2994 43.8393 52.1353 43.8554 51.9707 43.8546H51.0169C50.6826 43.8546 50.3516 43.7887 50.0427 43.6608C49.7338 43.5328 49.4532 43.3454 49.2168 43.109C48.9804 42.8726 48.7929 42.5919 48.665 42.2831C48.537 41.9742 48.4712 41.6432 48.4712 41.3089V39.0252C48.4712 38.3501 48.7394 37.7026 49.2168 37.2251C49.6942 36.7477 50.3417 36.4795 51.0169 36.4795H51.9707C52.1353 36.4787 52.2994 36.4949 52.4607 36.5275C51.8818 36.6412 51.3605 36.9524 50.9859 37.408C50.6112 37.8637 50.4066 38.4353 50.407 39.0252V41.3089C50.4066 41.8988 50.6112 42.4704 50.9859 42.9261C51.3605 43.3817 51.8818 43.693 52.4607 43.8066Z" fill="#F1B986"/>
<path d="M31.258 29.3605C31.3134 29.2523 31.3465 29.1341 31.3553 29.0129C31.3641 28.8917 31.3485 28.77 31.3095 28.655C31.2704 28.5399 31.2086 28.4338 31.1277 28.3431C31.0469 28.2524 30.9487 28.1788 30.8389 28.1267C30.7291 28.0746 30.61 28.0451 30.4886 28.0399C30.3672 28.0347 30.246 28.0539 30.1322 28.0965C30.0183 28.139 29.9142 28.2039 29.8259 28.2874C29.7376 28.3709 29.667 28.4713 29.6182 28.5826C29.4274 28.9851 29.1262 29.3252 28.7498 29.5633C28.3733 29.8015 27.937 29.9279 27.4915 29.9279C27.046 29.9279 26.6097 29.8015 26.2333 29.5633C25.8568 29.3252 25.5556 28.9851 25.3648 28.5826C25.3137 28.4748 25.2419 28.3781 25.1535 28.2981C25.065 28.218 24.9617 28.1562 24.8493 28.1161C24.737 28.076 24.6178 28.0584 24.4987 28.0643C24.3796 28.0703 24.2627 28.0996 24.1549 28.1507C24.0471 28.2018 23.9504 28.2736 23.8704 28.362C23.7903 28.4505 23.7285 28.5538 23.6884 28.6662C23.6483 28.7785 23.6307 28.8976 23.6366 29.0168C23.6426 29.1359 23.6719 29.2527 23.723 29.3605C24.0611 30.0736 24.5946 30.6761 25.2615 31.098C25.9284 31.5199 26.7013 31.7438 27.4905 31.7438C28.2797 31.7438 29.0526 31.5199 29.7195 31.098C30.3865 30.6761 30.9199 30.0736 31.258 29.3605Z" fill="black"/>
<path d="M20.7813 25.6193C21.5058 25.6193 22.0931 24.7455 22.0931 23.6676C22.0931 22.5896 21.5058 21.7158 20.7813 21.7158C20.0568 21.7158 19.4695 22.5896 19.4695 23.6676C19.4695 24.7455 20.0568 25.6193 20.7813 25.6193Z" fill="black"/>
<path d="M34.1976 25.6193C34.9221 25.6193 35.5094 24.7455 35.5094 23.6676C35.5094 22.5896 34.9221 21.7158 34.1976 21.7158C33.4731 21.7158 32.8857 22.5896 32.8857 23.6676C32.8857 24.7455 33.4731 25.6193 34.1976 25.6193Z" fill="black"/>
<path d="M47.2297 38.5691C47.2045 38.4524 47.1566 38.3419 47.0887 38.2438C47.0208 38.1457 46.9343 38.0619 46.834 37.9973C46.7337 37.9327 46.6216 37.8884 46.5043 37.8671C46.3869 37.8458 46.2664 37.8479 46.1498 37.8732L36.0951 40.0529C35.8596 40.1038 35.654 40.2461 35.5235 40.4486C35.393 40.6511 35.3483 40.8972 35.3992 41.1327C35.4501 41.3682 35.5925 41.5738 35.795 41.7043C35.9975 41.8348 36.2436 41.8796 36.4791 41.8286L46.5337 39.6489C46.6504 39.6238 46.7609 39.5759 46.859 39.508C46.9571 39.4401 47.0409 39.3535 47.1056 39.2532C47.1702 39.1529 47.2144 39.0409 47.2357 38.9235C47.257 38.8061 47.255 38.6857 47.2297 38.5691Z" fill="black"/>
<path d="M46.1498 41.25L36.0951 43.4297C35.9785 43.4549 35.868 43.5029 35.7699 43.5708C35.6718 43.6387 35.5881 43.7252 35.5235 43.8255C35.4589 43.9258 35.4146 44.0378 35.3933 44.1552C35.372 44.2725 35.374 44.393 35.3992 44.5095C35.4244 44.6261 35.4724 44.7367 35.5403 44.8348C35.6082 44.9328 35.6947 45.0166 35.795 45.0812C35.8953 45.1458 36.0073 45.19 36.1247 45.2114C36.242 45.2327 36.3624 45.2307 36.479 45.2055L46.5338 43.0257C46.7693 42.9748 46.9748 42.8325 47.1054 42.63C47.2359 42.4275 47.2806 42.1814 47.2297 41.9459C47.1788 41.7104 47.0364 41.5048 46.8338 41.3743C46.6313 41.2438 46.3853 41.1991 46.1498 41.25Z" fill="black"/>
<path d="M51.9673 35.5694H51.4233V33.9696C51.4221 33.4192 51.2978 32.8759 51.0595 32.3797C50.8212 31.8835 50.4749 31.4469 50.046 31.1018C49.6172 30.7567 49.1166 30.5119 48.5809 30.3853C48.0451 30.2587 47.4879 30.2535 46.9499 30.3701L42.2165 31.396C42.5336 30.541 42.719 29.6429 42.7665 28.7323C42.7971 28.1337 42.8218 27.5338 42.8405 26.9325C43.7495 26.7328 44.5624 26.2268 45.1428 25.4992C45.7233 24.7716 46.0361 23.8667 46.0288 22.9359C46.0215 22.0052 45.6947 21.1052 45.1029 20.3868C44.5112 19.6683 43.6906 19.1751 42.7785 18.9896C42.6691 16.7152 42.4812 14.4488 42.2145 12.1904C44.113 10.3083 45.586 8.04094 46.534 5.54131C46.7126 5.08578 46.7802 4.59427 46.7312 4.10743C46.6822 3.62059 46.5179 3.15243 46.252 2.74167C46.0393 2.43881 45.7575 2.19102 45.4299 2.01887C45.1023 1.84672 44.7383 1.75516 44.3683 1.7518C43.288 1.8363 42.2682 2.28385 41.4746 3.02164C41.5435 2.35573 41.4037 1.68488 41.0747 1.10188C40.8331 0.735188 40.4973 0.44018 40.1026 0.247741C39.7079 0.0553022 39.2687 -0.0274914 38.831 0.00802662C38.0559 0.0429012 37.2975 0.244401 36.6073 0.598804C35.9171 0.953206 35.3114 1.45219 34.8315 2.06176C34.7484 1.63383 34.573 1.22916 34.3176 0.875914C34.1044 0.595252 33.8269 0.369915 33.5085 0.218879C33.1901 0.0678432 32.84 -0.00447073 32.4878 0.00802662C31.016 0.00802662 29.8561 1.22787 28.7003 2.70768C28.0705 2.35254 27.4193 2.03665 26.7505 1.7618C26.3906 1.61582 26.0186 1.47984 25.6427 1.36185C24.4458 0.953927 23.1849 0.766253 21.9212 0.807923H21.8812C21.7132 0.807923 21.5492 0.83192 21.3792 0.853917C20.4364 0.960803 19.5308 1.28268 18.732 1.79476C17.9332 2.30684 17.2626 2.99544 16.7718 3.80753C15.5875 3.26179 14.249 3.15006 12.9906 3.49189C11.7322 3.83373 10.6341 4.60735 9.88872 5.67729C9.82609 5.77879 9.78406 5.89163 9.76504 6.00937C9.74602 6.12711 9.75037 6.24745 9.77786 6.36351C9.80534 6.47957 9.85541 6.58907 9.92521 6.68578C9.99502 6.78249 10.0832 6.8645 10.1847 6.92713C10.2862 6.98976 10.399 7.03179 10.5168 7.05081C10.6345 7.06984 10.7548 7.06548 10.8709 7.038C10.987 7.01052 11.0965 6.96044 11.1932 6.89064C11.2899 6.82084 11.3719 6.73267 11.4345 6.63117C13.0543 4.00551 16.6099 5.69329 16.7598 5.76528C16.9726 5.86773 17.2169 5.88327 17.4409 5.8086C17.6649 5.73394 17.851 5.57494 17.9597 5.36533C18.2791 4.63767 18.7821 4.00552 19.4195 3.53085C20.0568 3.05617 20.8065 2.75529 21.5952 2.65768C21.7192 2.64169 21.8392 2.63169 21.9632 2.62369H22.0212C23.0583 2.59677 24.0918 2.75593 25.0728 3.09363C25.4027 3.20161 25.7327 3.3216 26.0526 3.45158C26.5739 3.66607 27.0832 3.90838 27.5784 4.17749C26.8442 5.34503 25.8269 6.30807 24.6208 6.97712C24.3949 7.06066 24.2114 7.23052 24.1107 7.44935C24.01 7.66817 24.0004 7.91804 24.0839 8.14397C24.1674 8.36991 24.3373 8.55341 24.5561 8.6541C24.7749 8.7548 25.0248 8.76444 25.2507 8.6809C26.9934 7.75895 28.4521 6.37976 29.4702 4.69142C30.4841 3.34759 31.6339 1.82379 32.4878 1.82379C32.7318 1.82379 32.8098 1.90178 32.8657 1.97377C33.2147 3.09959 33.1951 4.30744 32.8098 5.42133C32.7479 5.64623 32.7751 5.88631 32.8855 6.09175C32.9959 6.2972 33.1812 6.45227 33.4029 6.52479C33.6246 6.59731 33.8657 6.58173 34.0762 6.48128C34.2867 6.38083 34.4505 6.20321 34.5335 5.98525C34.5495 5.94326 36.1813 1.82379 38.831 1.82379C39.3709 1.82379 39.4889 2.00777 39.5269 2.06976C39.9488 2.73767 39.3729 4.66942 38.851 5.74928C38.7542 5.95109 38.7353 6.18154 38.798 6.39639C38.8607 6.61125 39.0006 6.79537 39.1908 6.91339C39.381 7.03141 39.608 7.07503 39.8284 7.03586C40.0488 6.99669 40.2469 6.87749 40.3848 6.70116C40.8508 6.12014 41.3559 5.57161 41.8966 5.05937C43.3244 3.71555 44.0963 3.56957 44.3523 3.56957C44.4436 3.56816 44.5338 3.59067 44.6138 3.63487C44.6937 3.67907 44.7608 3.74342 44.8082 3.82153C44.9568 4.20918 44.9489 4.63943 44.7862 5.02138C42.7718 9.56089 39.2353 13.2544 34.7875 15.464C29.5682 17.4798 22.5891 16.3919 19.2375 13.0363C19.1185 12.9175 18.9688 12.834 18.8051 12.7952C18.6414 12.7564 18.4702 12.7639 18.3105 12.8168C18.1508 12.8697 18.0089 12.9659 17.9007 13.0947C17.7925 13.2235 17.7222 13.3799 17.6977 13.5463C17.5301 14.5134 17.218 15.4497 16.7718 16.3239C16.4712 17.0665 15.961 17.7054 15.3033 18.1628C14.6456 18.6202 13.869 18.8762 13.0683 18.8996H13.0003C12.5404 18.8995 12.0839 18.9779 11.6505 19.1315C10.8046 16.0492 10.441 12.8544 10.5726 9.66078C10.5727 9.43472 10.4884 9.21677 10.3363 9.04955C10.1842 8.88233 9.97517 8.77788 9.75012 8.75662C9.52506 8.73537 9.30017 8.79884 9.11943 8.93462C8.9387 9.0704 8.81512 9.26872 8.77287 9.4908C8.62413 13.1012 9.0528 16.7122 10.0427 20.1874C9.55255 20.7108 9.20996 21.3549 9.04984 22.0539C8.88972 22.7529 8.91781 23.4818 9.13124 24.1664C9.34467 24.851 9.73581 25.4668 10.2648 25.951C10.7938 26.4351 11.4417 26.7704 12.1424 26.9225C12.1624 27.5225 12.1871 28.1224 12.2164 28.7223C12.2613 29.5951 12.4331 30.4567 12.7264 31.28L8.48091 30.3601C7.94293 30.2435 7.38569 30.2487 6.84998 30.3753C6.31426 30.5019 5.81365 30.7467 5.38478 31.0918C4.95591 31.4369 4.60965 31.8735 4.37134 32.3697C4.13303 32.8659 4.00871 33.4092 4.00749 33.9596V35.5594H3.45356C2.53794 35.5605 1.66013 35.9247 1.0127 36.5721C0.365258 37.2196 0.00106372 38.0974 5.20927e-06 39.013V41.2987C-0.000783216 41.7529 0.0879323 42.2028 0.261087 42.6227C0.434243 43.0427 0.688441 43.4244 1.00916 43.746C1.32988 44.0676 1.71083 44.3229 2.13025 44.4973C2.54967 44.6717 2.99934 44.7617 3.45356 44.7622H3.99748V54.433C4.003 55.2738 4.29388 56.0879 4.82249 56.7418C5.35109 57.3958 6.08609 57.8509 6.90711 58.0325L25.0868 61.972L25.1707 62H25.1887H25.2807H30.1501H30.2421H30.2601L30.3361 61.988L48.5157 58.0485C49.3367 57.8669 50.0717 57.4118 50.6003 56.7578C51.1289 56.1039 51.4198 55.2898 51.4253 54.449V53.2011C51.4253 52.9604 51.3297 52.7294 51.1594 52.5592C50.9892 52.3889 50.7582 52.2933 50.5175 52.2933C50.2767 52.2933 50.0458 52.3889 49.8755 52.5592C49.7052 52.7294 49.6096 52.9604 49.6096 53.2011V54.439C49.6079 54.867 49.4607 55.2817 49.1921 55.6149C48.9236 55.9482 48.5496 56.1802 48.1318 56.2727L31.052 59.9743V35.6614L47.3379 32.1319C47.6114 32.0728 47.8946 32.0757 48.1668 32.1403C48.4391 32.2049 48.6934 32.3295 48.9112 32.5052C49.129 32.6808 49.3048 32.9029 49.4256 33.1553C49.5465 33.4076 49.6093 33.6838 49.6096 33.9636V35.8694C49.0015 36.1423 48.4853 36.5852 48.123 37.1447C47.7608 37.7042 47.568 38.3565 47.5678 39.023V41.3087C47.5683 41.9756 47.7617 42.6282 48.1247 43.1878C48.4877 43.7473 49.0048 44.1899 49.6136 44.4623V49.5616C49.6136 49.8024 49.7092 50.0333 49.8795 50.2036C50.0498 50.3738 50.2807 50.4695 50.5215 50.4695C50.7622 50.4695 50.9932 50.3738 51.1634 50.2036C51.3337 50.0333 51.4293 49.8024 51.4293 49.5616V44.7622H51.9673C52.8829 44.7612 53.7607 44.397 54.4081 43.7495C55.0556 43.1021 55.4198 42.2243 55.4208 41.3087V39.023C55.4198 38.1074 55.0556 37.2295 54.4081 36.5821C53.7607 35.9347 52.8829 35.5705 51.9673 35.5694ZM44.2183 22.9591C44.2176 23.392 44.0917 23.8155 43.8557 24.1785C43.6198 24.5415 43.2839 24.8284 42.8885 25.0048C42.9058 23.6356 42.8951 22.2651 42.8564 20.8933C43.2612 21.0657 43.6065 21.3532 43.8493 21.7201C44.0921 22.087 44.2218 22.5171 44.2223 22.9571L44.2183 22.9591ZM10.7506 22.9591C10.7509 22.5193 10.8803 22.0893 11.1228 21.7225C11.3652 21.3556 11.71 21.068 12.1144 20.8953C12.0744 22.2631 12.0664 23.637 12.0844 25.0068C11.6888 24.8299 11.3528 24.5422 11.1172 24.1784C10.8816 23.8147 10.7563 23.3905 10.7566 22.9571L10.7506 22.9591ZM14.0162 28.6283C13.8802 25.9907 13.8542 23.311 13.9402 20.6514C14.9064 20.4747 15.8149 20.0651 16.5871 19.4581C17.3593 18.8511 17.9718 18.065 18.3716 17.1678C18.6766 16.5807 18.9289 15.9677 19.1255 15.336C21.2138 16.8134 23.6331 17.7548 26.1706 18.0777C29.2915 18.5647 32.485 18.2509 35.4514 17.1658C37.342 16.3495 39.0742 15.2069 40.5688 13.7902C41.0766 18.7185 41.2056 23.6784 40.9547 28.6263C40.8951 29.7677 40.564 30.8783 39.9888 31.8659L30.0501 34.0216H25.3707L14.9161 31.7559C14.3801 30.7955 14.0722 29.7247 14.0162 28.6263V28.6283ZM26.1826 35.8394H29.2342V60.1842H26.1886L26.1826 35.8394ZM1.81577 41.3087V39.023C1.8163 38.5888 1.98902 38.1725 2.29605 37.8655C2.60308 37.5584 3.01935 37.3857 3.45356 37.3852H4.40543C4.83964 37.3857 5.25591 37.5584 5.56294 37.8655C5.86997 38.1725 6.04269 38.5888 6.04322 39.023V41.3087C6.04269 41.7429 5.86997 42.1592 5.56294 42.4662C5.25591 42.7732 4.83964 42.9459 4.40543 42.9465H3.45356C3.01935 42.9459 2.60308 42.7732 2.29605 42.4662C1.98902 42.1592 1.8163 41.7429 1.81577 41.3087ZM5.81525 54.433V44.4603C6.42408 44.1879 6.94114 43.7453 7.30412 43.1858C7.66709 42.6262 7.86049 41.9736 7.86099 41.3067V39.023C7.86049 38.356 7.66709 37.7034 7.30412 37.1439C6.94114 36.5843 6.42408 36.1417 5.81525 35.8694V33.9636C5.81544 33.6836 5.87832 33.4072 5.99927 33.1547C6.12022 32.9021 6.29618 32.6799 6.51423 32.5042C6.73227 32.3286 6.98688 32.2039 7.25937 32.1395C7.53186 32.0751 7.81533 32.0725 8.08896 32.1319L24.3708 35.6614V59.9663L7.29106 56.2647C6.8732 56.1722 6.49926 55.9402 6.23069 55.6069C5.96213 55.2737 5.81492 54.859 5.81325 54.431L5.81525 54.433ZM53.6091 41.3087C53.6085 41.7429 53.4358 42.1592 53.1288 42.4662C52.8218 42.7732 52.4055 42.9459 51.9713 42.9465H51.0194C50.5852 42.9459 50.1689 42.7732 49.8619 42.4662C49.5549 42.1592 49.3821 41.7429 49.3816 41.3087V39.023C49.3821 38.5888 49.5549 38.1725 49.8619 37.8655C50.1689 37.5584 50.5852 37.3857 51.0194 37.3852H51.9673C52.4015 37.3857 52.8178 37.5584 53.1248 37.8655C53.4318 38.1725 53.6045 38.5888 53.6051 39.023L53.6091 41.3087Z" fill="black"/>
</svg>
