<svg width="117" height="117" viewBox="0 0 117 117" fill="none" xmlns="http://www.w3.org/2000/svg">
<path d="M114.58 100.498C114.58 105.057 113.322 109.051 111.039 111.611C110.01 112.797 108.68 113.683 107.19 114.176C105.28 114.764 103.229 114.703 101.357 114.005C97.7241 112.745 94.1831 109.482 91.6301 104.945H69.7831C65.8481 111.938 59.5691 115.905 54.2211 114.176C52.7316 113.682 51.4027 112.796 50.3741 111.611C46.7231 107.516 45.6951 99.761 48.2351 91.889C51.1021 83.012 57.5591 76.918 63.5351 76.918H97.8431C103.829 76.895 110.306 82.996 113.177 91.889C114.088 94.6686 114.562 97.573 114.58 100.498Z" fill="#55D7FF"/>
<path d="M113.176 91.889C114.087 94.6687 114.559 97.5731 114.576 100.498C114.576 105.057 113.318 109.051 111.035 111.611C110.006 112.797 108.677 113.683 107.186 114.176C105.276 114.764 103.226 114.703 101.353 114.005C102.651 113.486 103.807 112.666 104.725 111.612C107.008 109.052 108.266 105.058 108.266 100.499C108.249 97.5741 107.777 94.6698 106.866 91.89C103.999 83.013 97.5424 76.919 91.5664 76.919H97.8434C103.831 76.895 110.309 82.996 113.176 91.889Z" fill="#57BBFF"/>
<path d="M89.0566 70.158H97.1686V76.9189H89.0566V70.158Z" fill="#466175"/>
<path d="M42.3123 10.734V62.177H8.06934C6.61065 62.177 5.2117 61.5976 4.18025 60.5661C3.1488 59.5347 2.56934 58.1357 2.56934 56.677V2.57104H34.1493C36.3142 2.57131 38.3904 3.43142 39.9212 4.96222C41.452 6.49303 42.3121 8.56916 42.3123 10.734Z" fill="#FFF683"/>
<path d="M42.3123 10.734V62.177H8.06934C6.61065 62.177 5.2117 61.5976 4.18025 60.5661C3.1488 59.5347 2.56934 58.1357 2.56934 56.677V48.677H34.1783C34.5328 48.6825 34.8848 48.6176 35.2141 48.4862C35.5434 48.3548 35.8434 48.1595 36.0967 47.9115C36.3501 47.6636 36.5518 47.3679 36.6903 47.0415C36.8287 46.7151 36.9011 46.3646 36.9033 46.01V10.734C36.9031 8.56916 36.043 6.49303 34.5122 4.96222C32.9814 3.43142 30.9052 2.57131 28.7403 2.57104H34.1493C36.3143 2.57104 38.3906 3.43107 39.9214 4.96193C41.4523 6.49279 42.3123 8.56908 42.3123 10.734Z" fill="#FFE45C"/>
<path d="M82.0525 2.57104V56.678C82.0525 58.1367 81.473 59.5357 80.4416 60.5671C79.4101 61.5986 78.0112 62.178 76.5525 62.178H42.3125V10.734C42.3124 9.6622 42.5234 8.60082 42.9334 7.61051C43.3435 6.6202 43.9446 5.72035 44.7024 4.96235C45.4602 4.20434 46.3599 3.60302 47.3501 3.19272C48.3403 2.78242 49.4016 2.57118 50.4735 2.57104H82.0525Z" fill="#FFF683"/>
<path d="M82.0525 2.57104V56.678C82.0525 58.1367 81.473 59.5357 80.4416 60.5671C79.4101 61.5986 78.0112 62.178 76.5525 62.178H42.3125V56.845C42.3122 55.7732 42.5231 54.7117 42.9332 53.7214C43.3432 52.731 43.9442 51.8311 44.7021 51.0731C45.4599 50.315 46.3597 49.7137 47.35 49.3035C48.3402 48.8932 49.4016 48.682 50.4735 48.682H74.4395C75.1471 48.682 75.8257 48.401 76.3261 47.9006C76.8264 47.4003 77.1075 46.7216 77.1075 46.014V2.57104H82.0525Z" fill="#FFE45C"/>
<path d="M42.3123 62.1782H8.06934C6.61065 62.1782 5.2117 61.5987 4.18025 60.5672C3.1488 59.5358 2.56934 58.1369 2.56934 56.6782V54.0142H34.1493C35.2214 54.0142 36.283 54.2253 37.2734 54.6356C38.2639 55.0459 39.1638 55.6473 39.9218 56.4054C40.6798 57.1635 41.2811 58.0635 41.6912 59.054C42.1014 60.0445 42.3125 61.1061 42.3123 62.1782Z" fill="#FFC35A"/>
<path d="M82.0525 54.0151V56.6791C82.0525 58.1378 81.473 59.5368 80.4416 60.5682C79.4101 61.5997 78.0112 62.1791 76.5525 62.1791H42.3125C42.3122 61.1073 42.5231 60.0458 42.9332 59.0555C43.3432 58.0651 43.9442 57.1652 44.7021 56.4072C45.4599 55.6491 46.3597 55.0478 47.35 54.6376C48.3402 54.2273 49.4016 54.0161 50.4735 54.0161L82.0525 54.0151Z" fill="#FFC35A"/>
<path d="M114.781 91.3691C111.855 82.3051 105.409 75.8591 98.8539 75.2691V70.1581C98.8539 69.9361 98.8101 69.7162 98.7251 69.5111C98.6401 69.306 98.5155 69.1197 98.3585 68.9627C98.2015 68.8058 98.0151 68.6813 97.8099 68.5965C97.6047 68.5116 97.3849 68.468 97.1629 68.4681H95.0679C95.4494 66.9441 96.329 65.5912 97.5671 64.6241C98.8052 63.657 100.331 63.1312 101.902 63.1301C105.706 63.1301 109.354 61.619 112.044 58.9293C114.733 56.2395 116.244 52.5915 116.244 48.7876C116.244 44.9837 114.733 41.3357 112.044 38.6459C109.354 35.9562 105.706 34.4451 101.902 34.4451H83.8529V23.5071C83.8529 23.0586 83.6747 22.6285 83.3576 22.3114C83.0405 21.9943 82.6103 21.8161 82.1619 21.8161C81.7134 21.8161 81.2833 21.9943 80.9661 22.3114C80.649 22.6285 80.4709 23.0586 80.4709 23.5071V52.3241H50.5409C48.1568 52.3219 45.8531 53.1862 44.0589 54.7561V10.7331C44.0623 9.01604 44.7467 7.37045 45.9619 6.15733C47.177 4.94421 48.8238 4.26263 50.5409 4.2621H80.4709V15.6411C80.4709 16.0896 80.649 16.5197 80.9661 16.8368C81.2833 17.1539 81.7134 17.3321 82.1619 17.3321C82.6103 17.3321 83.0405 17.1539 83.3576 16.8368C83.6747 16.5197 83.8529 16.0896 83.8529 15.6411V2.5711C83.8529 2.34909 83.8091 2.12924 83.7241 1.92414C83.6391 1.71903 83.5145 1.53268 83.3575 1.37574C83.2005 1.2188 83.0141 1.09433 82.8089 1.00946C82.6037 0.924589 82.3839 0.880972 82.1619 0.881104H50.5409C48.9274 0.881161 47.3386 1.27694 45.9137 2.03377C44.4888 2.79059 43.2713 3.88535 42.3679 5.2221C41.4656 3.88577 40.2493 2.7912 38.8256 2.03436C37.4019 1.27752 35.8142 0.881524 34.2019 0.881104H2.57186C2.34984 0.880972 2.12997 0.924589 1.92482 1.00946C1.71966 1.09433 1.53324 1.2188 1.3762 1.37574C1.21917 1.53268 1.09459 1.71903 1.0096 1.92414C0.924606 2.12924 0.880859 2.34909 0.880859 2.5711L0.880859 56.6811C0.884034 58.587 1.64277 60.4139 2.99074 61.7613C4.33872 63.1087 6.16594 63.8667 8.07186 63.8691H76.6569C78.5643 63.8691 80.3939 63.1122 81.7438 61.7645C83.0937 60.4168 83.8537 58.5886 83.8569 56.6811V37.8251H101.906C104.813 37.8251 107.601 38.98 109.657 41.0358C111.713 43.0916 112.868 45.8798 112.868 48.7871C112.868 51.6944 111.713 54.4826 109.657 56.5384C107.601 58.5942 104.813 59.7491 101.906 59.7491C99.4372 59.751 97.0491 60.628 95.166 62.2244C93.283 63.8208 92.0268 66.033 91.6209 68.4681H89.0449C88.8228 68.468 88.603 68.5116 88.3978 68.5965C88.1927 68.6813 88.0062 68.8058 87.8492 68.9627C87.6922 69.1197 87.5676 69.306 87.4826 69.5111C87.3976 69.7162 87.3539 69.9361 87.3539 70.1581V75.2291H80.0339C79.5855 75.2291 79.1555 75.4072 78.8385 75.7242C78.5215 76.0413 78.3434 76.4713 78.3434 76.9196C78.3434 77.368 78.5215 77.7979 78.8385 78.115C79.1555 78.432 79.5855 78.6101 80.0339 78.6101H97.8439C103.2 78.5841 108.973 84.3921 111.561 92.4101C113.839 99.4671 113.119 106.732 109.77 110.49C108.941 111.45 107.867 112.169 106.664 112.57C102.277 113.991 96.6979 110.514 93.0989 104.118C92.9518 103.857 92.7377 103.639 92.4787 103.487C92.2196 103.336 91.9249 103.256 91.6249 103.256H69.7809C69.4808 103.256 69.1861 103.336 68.9271 103.487C68.668 103.639 68.454 103.857 68.3069 104.118C64.7069 110.518 59.1289 113.991 54.7409 112.569C53.5376 112.168 52.465 111.449 51.6359 110.489C48.2869 106.731 47.5669 99.4661 49.8449 92.4091C52.4279 84.4091 58.1799 78.6091 63.5389 78.6091H72.1159C72.5642 78.6091 72.9942 78.431 73.3112 78.114C73.6283 77.7969 73.8064 77.367 73.8064 76.9186C73.8064 76.4703 73.6283 76.0403 73.3112 75.7232C72.9942 75.4062 72.5642 75.2281 72.1159 75.2281H63.5299C56.6419 75.2281 49.6939 81.8581 46.6239 91.3691C43.9499 99.6551 44.9239 108.041 49.1089 112.736C50.3367 114.146 51.9225 115.199 53.6989 115.783C59.5089 117.662 66.2669 114 70.7489 106.634H90.6539C94.3539 112.714 99.6029 116.271 104.591 116.271C105.648 116.273 106.698 116.109 107.704 115.784C109.48 115.2 111.066 114.147 112.294 112.736C116.478 108.042 117.453 99.6551 114.778 91.3691H114.781ZM40.6809 54.7571C38.8866 53.1872 36.583 52.3229 34.1989 52.3251H19.1869C18.7385 52.3251 18.3085 52.5032 17.9915 52.8202C17.6745 53.1373 17.4964 53.5673 17.4964 54.0156C17.4964 54.464 17.6745 54.8939 17.9915 55.211C18.3085 55.528 18.7385 55.7061 19.1869 55.7061H34.1939C35.6168 55.7071 36.9999 56.1755 38.1306 57.0393C39.2613 57.9031 40.0768 59.1145 40.4519 60.4871H8.07186C7.06249 60.486 6.09473 60.0848 5.38072 59.3714C4.66671 58.6579 4.26471 57.6905 4.26286 56.6811V55.7071H11.3719C11.8202 55.7071 12.2502 55.529 12.5672 55.212C12.8843 54.8949 13.0624 54.465 13.0624 54.0166C13.0624 53.5683 12.8843 53.1383 12.5672 52.8212C12.2502 52.5042 11.8202 52.3261 11.3719 52.3261H4.26286V4.2621H34.2019C35.9187 4.26237 37.5653 4.94396 38.7801 6.15722C39.9948 7.37048 40.6785 9.01623 40.6809 10.7331V54.7571ZM80.4709 56.6811C80.469 57.6917 80.0662 58.6603 79.351 59.3742C78.6357 60.0881 77.6665 60.4891 76.6559 60.4891H44.2809C44.6559 59.1165 45.4714 57.9051 46.6021 57.0413C47.7328 56.1775 49.116 55.7091 50.5389 55.7081H80.4709V56.6811ZM95.4709 75.2311H90.7359V71.8481H95.4689L95.4709 75.2311Z" fill="black"/>
<path d="M64.58 99.465C64.8021 99.4652 65.0219 99.4215 65.2271 99.3367C65.4322 99.2518 65.6187 99.1273 65.7757 98.9704C65.9327 98.8135 66.0573 98.6271 66.1423 98.422C66.2273 98.2169 66.271 97.997 66.271 97.775V93.548H70.4921C70.9404 93.548 71.3704 93.3699 71.6874 93.0529C72.0044 92.7359 72.1825 92.3059 72.1825 91.8575C72.1825 91.4092 72.0044 90.9792 71.6874 90.6622C71.3704 90.3451 70.9404 90.167 70.4921 90.167H66.2681V85.94C66.2681 85.4916 66.0899 85.0614 65.7728 84.7443C65.4556 84.4272 65.0255 84.249 64.577 84.249C64.1286 84.249 63.6984 84.4272 63.3813 84.7443C63.0642 85.0614 62.886 85.4916 62.886 85.94V90.167H58.668C58.2197 90.167 57.7897 90.3451 57.4727 90.6622C57.1556 90.9792 56.9775 91.4092 56.9775 91.8575C56.9775 92.3059 57.1556 92.7359 57.4727 93.0529C57.7897 93.3699 58.2197 93.548 58.668 93.548H62.889V97.775C62.889 97.997 62.9328 98.2169 63.0178 98.422C63.1028 98.6271 63.2273 98.8135 63.3844 98.9704C63.5414 99.1273 63.7278 99.2518 63.933 99.3367C64.1382 99.4215 64.358 99.4652 64.58 99.465Z" fill="black"/>
<path d="M32.2503 11.811H10.4893C10.041 11.811 9.61099 11.9891 9.29396 12.3062C8.97693 12.6232 8.79883 13.0532 8.79883 13.5015C8.79883 13.9499 8.97693 14.3799 9.29396 14.6969C9.61099 15.0139 10.041 15.192 10.4893 15.192H32.2503C32.6987 15.192 33.1287 15.0139 33.4457 14.6969C33.7627 14.3799 33.9408 13.9499 33.9408 13.5015C33.9408 13.0532 33.7627 12.6232 33.4457 12.3062C33.1287 11.9891 32.6987 11.811 32.2503 11.811Z" fill="black"/>
<path d="M32.2503 21.781H10.4893C10.041 21.781 9.61099 21.9591 9.29396 22.2761C8.97693 22.5932 8.79883 23.0232 8.79883 23.4715C8.79883 23.9199 8.97693 24.3498 9.29396 24.6669C9.61099 24.9839 10.041 25.162 10.4893 25.162H32.2503C32.6987 25.162 33.1287 24.9839 33.4457 24.6669C33.7627 24.3498 33.9408 23.9199 33.9408 23.4715C33.9408 23.0232 33.7627 22.5932 33.4457 22.2761C33.1287 21.9591 32.6987 21.781 32.2503 21.781Z" fill="black"/>
<path d="M32.2503 31.749H10.4893C10.041 31.749 9.61099 31.9271 9.29396 32.2442C8.97693 32.5612 8.79883 32.9912 8.79883 33.4395C8.79883 33.8879 8.97693 34.3179 9.29396 34.6349C9.61099 34.9519 10.041 35.13 10.4893 35.13H32.2503C32.6987 35.13 33.1287 34.9519 33.4457 34.6349C33.7627 34.3179 33.9408 33.8879 33.9408 33.4395C33.9408 32.9912 33.7627 32.5612 33.4457 32.2442C33.1287 31.9271 32.6987 31.749 32.2503 31.749Z" fill="black"/>
<path d="M32.2503 41.718H10.4893C10.041 41.718 9.61099 41.8961 9.29396 42.2132C8.97693 42.5302 8.79883 42.9602 8.79883 43.4085C8.79883 43.8569 8.97693 44.2869 9.29396 44.6039C9.61099 44.9209 10.041 45.099 10.4893 45.099H32.2503C32.6987 45.099 33.1287 44.9209 33.4457 44.6039C33.7627 44.2869 33.9408 43.8569 33.9408 43.4085C33.9408 42.9602 33.7627 42.5302 33.4457 42.2132C33.1287 41.8961 32.6987 41.718 32.2503 41.718Z" fill="black"/>
<path d="M74.2347 11.811H52.4737C52.0254 11.811 51.5954 11.9891 51.2784 12.3062C50.9613 12.6232 50.7832 13.0532 50.7832 13.5015C50.7832 13.9499 50.9613 14.3799 51.2784 14.6969C51.5954 15.0139 52.0254 15.192 52.4737 15.192H74.2347C74.6831 15.192 75.113 15.0139 75.4301 14.6969C75.7471 14.3799 75.9252 13.9499 75.9252 13.5015C75.9252 13.0532 75.7471 12.6232 75.4301 12.3062C75.113 11.9891 74.6831 11.811 74.2347 11.811Z" fill="black"/>
<path d="M74.2347 21.781H52.4737C52.0254 21.781 51.5954 21.9591 51.2784 22.2761C50.9613 22.5932 50.7832 23.0232 50.7832 23.4715C50.7832 23.9199 50.9613 24.3498 51.2784 24.6669C51.5954 24.9839 52.0254 25.162 52.4737 25.162H74.2347C74.6831 25.162 75.113 24.9839 75.4301 24.6669C75.7471 24.3498 75.9252 23.9199 75.9252 23.4715C75.9252 23.0232 75.7471 22.5932 75.4301 22.2761C75.113 21.9591 74.6831 21.781 74.2347 21.781Z" fill="black"/>
<path d="M74.2347 31.749H52.4737C52.0254 31.749 51.5954 31.9271 51.2784 32.2442C50.9613 32.5612 50.7832 32.9912 50.7832 33.4395C50.7832 33.8879 50.9613 34.3179 51.2784 34.6349C51.5954 34.9519 52.0254 35.13 52.4737 35.13H74.2347C74.6831 35.13 75.113 34.9519 75.4301 34.6349C75.7471 34.3179 75.9252 33.8879 75.9252 33.4395C75.9252 32.9912 75.7471 32.5612 75.4301 32.2442C75.113 31.9271 74.6831 31.749 74.2347 31.749Z" fill="black"/>
<path d="M74.2347 41.718H52.4737C52.0254 41.718 51.5954 41.8961 51.2784 42.2132C50.9613 42.5302 50.7832 42.9602 50.7832 43.4085C50.7832 43.8569 50.9613 44.2869 51.2784 44.6039C51.5954 44.9209 52.0254 45.099 52.4737 45.099H74.2347C74.6831 45.099 75.113 44.9209 75.4301 44.6039C75.7471 44.2869 75.9252 43.8569 75.9252 43.4085C75.9252 42.9602 75.7471 42.5302 75.4301 42.2132C75.113 41.8961 74.6831 41.718 74.2347 41.718Z" fill="black"/>
<path d="M90.9097 93.547C91.8437 93.547 92.6007 92.7904 92.6007 91.857C92.6007 90.9236 91.8437 90.167 90.9097 90.167C89.9758 90.167 89.2188 90.9236 89.2188 91.857C89.2188 92.7904 89.9758 93.547 90.9097 93.547Z" fill="black"/>
<path d="M102.734 93.547C103.668 93.547 104.425 92.7904 104.425 91.857C104.425 90.9236 103.668 90.167 102.734 90.167C101.8 90.167 101.043 90.9236 101.043 91.857C101.043 92.7904 101.8 93.547 102.734 93.547Z" fill="black"/>
<path d="M96.9117 87.7211C97.8456 87.7211 98.6027 86.9644 98.6027 86.0311C98.6027 85.0977 97.8456 84.3411 96.9117 84.3411C95.9778 84.3411 95.2207 85.0977 95.2207 86.0311C95.2207 86.9644 95.9778 87.7211 96.9117 87.7211Z" fill="black"/>
<path d="M96.9117 99.3732C97.8456 99.3732 98.6027 98.6165 98.6027 97.6832C98.6027 96.7498 97.8456 95.9932 96.9117 95.9932C95.9778 95.9932 95.2207 96.7498 95.2207 97.6832C95.2207 98.6165 95.9778 99.3732 96.9117 99.3732Z" fill="black"/>
</svg>
