<svg width="109" height="120" viewBox="0 0 109 120" fill="none" xmlns="http://www.w3.org/2000/svg">
<path d="M100.228 84.7541H9.05919C7.08553 84.7538 5.19278 83.9697 3.79719 82.5741C2.4016 81.1785 1.61745 79.2857 1.61719 77.3121V8.47008C1.61745 6.49642 2.4016 4.60367 3.79719 3.20808C5.19278 1.81249 7.08553 1.02834 9.05919 1.02808H100.227C102.201 1.02834 104.093 1.81252 105.489 3.20814C106.884 4.60376 107.668 6.49651 107.668 8.47008V77.3111C107.668 79.2846 106.885 81.1775 105.49 82.5733C104.094 83.9691 102.202 84.7535 100.228 84.7541Z" fill="#6BDDDD"/>
<path d="M7.19922 59.6351V9.40111C7.19922 8.66089 7.49327 7.95099 8.01668 7.42757C8.5401 6.90416 9.25 6.61011 9.99022 6.61011H99.2972C99.6637 6.61011 100.027 6.68231 100.365 6.82258C100.704 6.96285 101.011 7.16845 101.27 7.42763C101.529 7.68681 101.735 7.9945 101.875 8.33311C102.015 8.67173 102.087 9.03464 102.087 9.40111V59.6351C102.087 60.0016 102.015 60.3645 101.875 60.7031C101.735 61.0417 101.529 61.3494 101.27 61.6086C101.011 61.8678 100.704 62.0734 100.365 62.2136C100.027 62.3539 99.6637 62.4261 99.2972 62.4261H9.99022C9.25 62.4261 8.5401 62.1321 8.01668 61.6086C7.49327 61.0852 7.19922 60.3753 7.19922 59.6351Z" fill="#F9CFCF"/>
<path d="M107.669 78.0551V68.009H1.61719V78.056C1.61719 81.756 4.94919 84.756 9.05919 84.756H100.227C104.338 84.753 107.669 81.7541 107.669 78.0551Z" fill="#E0EBFC"/>
<path d="M99.3362 63.4061H10.0302C9.0311 63.4047 8.07332 63.0072 7.36694 62.3006C6.66056 61.5941 6.26327 60.6362 6.26221 59.6371V9.40106C6.26327 8.40205 6.66059 7.44426 7.367 6.73785C8.07341 6.03144 9.0312 5.63412 10.0302 5.63306H99.3362C100.335 5.63412 101.293 6.03144 101.999 6.73785C102.706 7.44426 103.103 8.40205 103.104 9.40106V59.6361C103.104 60.6354 102.707 61.5937 102 62.3006C101.294 63.0074 100.336 63.405 99.3362 63.4061ZM10.0302 7.58806C9.54953 7.58859 9.0887 7.77977 8.74881 8.11966C8.40892 8.45955 8.21774 8.92038 8.21721 9.40106V59.6361C8.21774 60.1168 8.40889 60.5778 8.74875 60.9178C9.08861 61.2579 9.54944 61.4493 10.0302 61.4501H99.3362C99.817 61.4493 100.278 61.2579 100.618 60.9178C100.958 60.5778 101.149 60.1168 101.149 59.6361V9.40106C101.149 8.92038 100.957 8.45955 100.618 8.11966C100.278 7.77977 99.8169 7.58859 99.3362 7.58806H10.0302Z" fill="#3762CC"/>
<path d="M100.226 85.731H9.06011C6.82789 85.7284 4.68788 84.8404 3.10955 83.2619C1.53123 81.6834 0.643495 79.5432 0.641113 77.311V8.47103C0.643495 6.23881 1.53123 4.09868 3.10955 2.52017C4.68788 0.941659 6.82789 0.0536724 9.06011 0.0510254L100.226 0.0510254C102.458 0.0534082 104.599 0.94131 106.177 2.51988C107.755 4.09845 108.643 6.23873 108.645 8.47103V77.311C108.643 79.5433 107.755 81.6836 106.177 83.2622C104.599 84.8407 102.458 85.7286 100.226 85.731ZM9.06011 2.00503C7.34597 2.00714 5.70265 2.68909 4.49065 3.90127C3.27866 5.11345 2.59697 6.75688 2.59511 8.47103V77.311C2.59723 79.0247 3.27894 80.6676 4.49071 81.8794C5.70249 83.0912 7.3454 83.7729 9.05911 83.775H100.226C101.94 83.7729 103.583 83.0912 104.795 81.8794C106.006 80.6676 106.688 79.0247 106.69 77.311V8.47103C106.689 6.75697 106.007 5.11354 104.795 3.90133C103.583 2.68912 101.94 2.00714 100.226 2.00503H9.06011Z" fill="#3762CC"/>
<path d="M89.5763 83.6382C89.576 79.7586 88.0573 76.0333 85.3452 73.2593C82.633 70.4853 78.9429 68.8829 75.0643 68.7951V68.7861H34.2243V68.7951C30.3458 68.8829 26.6556 70.4853 23.9435 73.2593C21.2314 76.0333 19.7127 79.7586 19.7123 83.6382L18.3613 111.738C18.3201 112.597 18.4535 113.454 18.7535 114.26C19.0535 115.065 19.5139 115.801 20.1068 116.423C20.6997 117.045 21.4127 117.541 22.2026 117.879C22.9925 118.217 23.843 118.392 24.7023 118.392C25.713 118.392 26.709 118.151 27.6076 117.688C28.5061 117.225 29.2812 116.555 29.8683 115.732L42.1873 98.4811H67.0943L79.4163 115.738C80.0036 116.561 80.7787 117.231 81.6772 117.694C82.5757 118.156 83.5717 118.398 84.5823 118.398C85.4418 118.398 86.2923 118.224 87.0823 117.885C87.8723 117.547 88.5853 117.052 89.1782 116.429C89.7711 115.807 90.2315 115.071 90.5315 114.266C90.8315 113.46 90.9648 112.603 90.9233 111.744L89.5763 83.6382Z" fill="#4671C6"/>
<path d="M49.4139 83.6382C49.4137 86.5754 48.5426 89.4465 46.9106 91.8886C45.2786 94.3307 42.9591 96.2341 40.2455 97.358C37.5318 98.4819 34.5458 98.7758 31.665 98.2027C28.7843 97.6295 26.1382 96.215 24.0613 94.138C21.9845 92.061 20.5702 89.4148 19.9972 86.5341C19.4243 83.6533 19.7184 80.6673 20.8425 77.9537C21.9665 75.2401 23.87 72.9207 26.3123 71.2889C28.7545 69.6571 31.6257 68.7861 34.5629 68.7861C36.5133 68.7861 38.4445 69.1703 40.2464 69.9167C42.0483 70.6631 43.6855 71.7571 45.0645 73.1363C46.4436 74.5154 47.5375 76.1527 48.2837 77.9546C49.03 79.7565 49.4141 81.6878 49.4139 83.6382Z" fill="#E0EBFC"/>
<path d="M89.577 83.6382C89.5768 86.5753 88.7057 89.4465 87.0738 91.8885C85.4418 94.3306 83.1224 96.234 80.4088 97.3579C77.6952 98.4818 74.7092 98.7758 71.8285 98.2027C68.9478 97.6297 66.3017 96.2153 64.2248 94.1384C62.1479 92.0615 60.7335 89.4154 60.1604 86.5347C59.5874 83.6539 59.8814 80.668 61.0053 77.9544C62.1292 75.2408 64.0325 72.9213 66.4746 71.2894C68.9167 69.6575 71.7878 68.7863 74.725 68.7861C78.664 68.7861 82.4417 70.3509 85.227 73.1362C88.0122 75.9215 89.577 79.6992 89.577 83.6382Z" fill="#E0EBFC"/>
<path d="M57.5672 87.1371H51.7202C51.5108 87.1368 51.3101 87.0535 51.1622 86.9053C51.0142 86.7572 50.9312 86.5564 50.9312 86.3471V84.2141C50.9312 84.0047 51.0142 83.8039 51.1622 83.6558C51.3101 83.5077 51.5108 83.4243 51.7202 83.4241H57.5672C57.6709 83.4241 57.7735 83.4445 57.8693 83.4842C57.9651 83.5239 58.0521 83.5821 58.1254 83.6555C58.1987 83.7289 58.2568 83.816 58.2964 83.9118C58.336 84.0077 58.3563 84.1104 58.3561 84.2141V86.3431C58.3567 86.4471 58.3367 86.5501 58.2973 86.6464C58.2579 86.7426 58.1998 86.8301 58.1265 86.9039C58.0532 86.9777 57.9661 87.0363 57.8701 87.0763C57.7741 87.1163 57.6712 87.1369 57.5672 87.1371Z" fill="#F9A7A7"/>
<path d="M44.9582 83.6341C44.9582 85.6911 44.3483 87.7018 43.2055 89.412C42.0627 91.1223 40.4385 92.4553 38.5381 93.2425C36.6378 94.0296 34.5467 94.2356 32.5293 93.8343C30.5119 93.433 28.6588 92.4425 27.2043 90.988C25.7498 89.5336 24.7593 87.6805 24.358 85.6631C23.9568 83.6457 24.1627 81.5546 24.9499 79.6542C25.737 77.7539 27.07 76.1296 28.7803 74.9868C30.4906 73.8441 32.5013 73.2341 34.5582 73.2341C35.924 73.2341 37.2763 73.5031 38.5381 74.0258C39.7999 74.5484 40.9464 75.3145 41.9121 76.2802C42.8778 77.2459 43.6439 78.3924 44.1666 79.6542C44.6892 80.916 44.9582 82.2684 44.9582 83.6341Z" fill="#A4C9FF"/>
<path d="M40.5042 80.827H37.1622V77.485C37.1622 77.0912 37.0057 76.7135 36.7273 76.435C36.4488 76.1565 36.071 76 35.6772 76H33.4502C33.0563 76 32.6784 76.1564 32.3998 76.4349C32.1211 76.7134 31.9645 77.0911 31.9642 77.485V80.827H28.6232C28.4281 80.8269 28.2349 80.8652 28.0546 80.9398C27.8743 81.0143 27.7105 81.1237 27.5725 81.2616C27.4345 81.3995 27.325 81.5633 27.2503 81.7435C27.1756 81.9237 27.1372 82.1169 27.1372 82.312V84.54C27.1375 84.9339 27.2941 85.3117 27.5728 85.5901C27.8515 85.8686 28.2293 86.025 28.6232 86.025H31.9622V89.367C31.9625 89.7609 32.1191 90.1387 32.3978 90.4171C32.6764 90.6956 33.0543 90.852 33.4482 90.852H35.6752C36.069 90.852 36.4468 90.6955 36.7253 90.4171C37.0037 90.1386 37.1602 89.7609 37.1602 89.367V86.025H40.5022C40.6972 86.025 40.8903 85.9866 41.0705 85.912C41.2507 85.8373 41.4144 85.728 41.5523 85.5901C41.6902 85.4522 41.7995 85.2884 41.8742 85.1083C41.9488 84.9281 41.9872 84.735 41.9872 84.54V82.313C41.9875 81.9193 41.8314 81.5417 41.5533 81.263C41.2752 80.9844 40.8979 80.8275 40.5042 80.827Z" fill="#FFEA92"/>
<path d="M85.7072 83.61C85.7072 85.6669 85.0973 87.6776 83.9545 89.3879C82.8117 91.0982 81.1875 92.4311 79.2871 93.2183C77.3868 94.0054 75.2957 94.2114 73.2783 93.8101C71.2609 93.4088 69.4078 92.4183 67.9533 90.9639C66.4989 89.5094 65.5084 87.6563 65.1071 85.6389C64.7058 83.6215 64.9117 81.5304 65.6989 79.63C66.486 77.7297 67.819 76.1054 69.5293 74.9627C71.2396 73.8199 73.2503 73.21 75.3072 73.21C78.0655 73.21 80.7108 74.3057 82.6611 76.256C84.6115 78.2064 85.7072 80.8517 85.7072 83.61Z" fill="#A4C9FF"/>
<path d="M78.2823 78.041C78.2823 78.6284 78.1081 79.2026 77.7818 79.691C77.4555 80.1794 76.9917 80.5601 76.4491 80.7849C75.9065 81.0097 75.3093 81.0686 74.7332 80.954C74.1571 80.8395 73.6279 80.5568 73.2125 80.1415C72.7971 79.7262 72.5142 79.1971 72.3995 78.6211C72.2848 78.045 72.3434 77.4479 72.5681 76.9052C72.7927 76.3625 73.1732 75.8986 73.6615 75.5721C74.1498 75.2456 74.7239 75.0712 75.3113 75.071C76.0991 75.071 76.8546 75.3839 77.4117 75.9409C77.9689 76.4978 78.282 77.2533 78.2823 78.041Z" fill="#F9A7A7"/>
<path d="M78.2823 89.18C78.2821 89.7673 78.1078 90.3414 77.7813 90.8297C77.4549 91.3179 76.991 91.6985 76.4484 91.9231C75.9057 92.1478 75.3087 92.2065 74.7326 92.0919C74.1566 91.9773 73.6275 91.6944 73.2122 91.2791C72.7969 90.8638 72.514 90.3347 72.3994 89.7587C72.2848 89.1826 72.3435 88.5855 72.5682 88.0429C72.7928 87.5002 73.1734 87.0364 73.6616 86.71C74.1499 86.3835 74.7239 86.2092 75.3113 86.209C76.0992 86.209 76.8549 86.522 77.4121 87.0792C77.9693 87.6364 78.2823 88.392 78.2823 89.18Z" fill="#F9A7A7"/>
<path d="M83.8501 83.6099C83.8499 84.1973 83.6756 84.7714 83.3491 85.2597C83.0227 85.748 82.5588 86.1285 82.016 86.3531C81.4733 86.5778 80.8762 86.6364 80.3001 86.5217C79.7241 86.407 79.195 86.1241 78.7797 85.7087C78.3644 85.2933 78.0817 84.7641 77.9671 84.188C77.8526 83.6119 77.9115 83.0148 78.1363 82.4721C78.3612 81.9295 78.7418 81.4657 79.2302 81.1394C79.7186 80.8131 80.2928 80.6389 80.8801 80.6389C81.2703 80.6388 81.6566 80.7156 82.0171 80.8648C82.3776 81.0141 82.7051 81.233 82.9809 81.5089C83.2567 81.7848 83.4755 82.1124 83.6246 82.4729C83.7738 82.8334 83.8504 83.2198 83.8501 83.6099Z" fill="#F9A7A7"/>
<path d="M72.712 83.6099C72.7118 84.1973 72.5374 84.7714 72.2109 85.2597C71.8845 85.748 71.4205 86.1285 70.8778 86.3531C70.3351 86.5778 69.738 86.6364 69.1619 86.5217C68.5859 86.407 68.0568 86.1241 67.6415 85.7087C67.2262 85.2933 66.9435 84.7641 66.829 84.188C66.7145 83.6119 66.7733 83.0148 66.9981 82.4721C67.223 81.9295 67.6036 81.4657 68.092 81.1394C68.5804 80.8131 69.1546 80.6389 69.742 80.6389C70.1321 80.6388 70.5185 80.7156 70.8789 80.8648C71.2394 81.0141 71.5669 81.233 71.8427 81.5089C72.1185 81.7848 72.3373 82.1124 72.4864 82.4729C72.6356 82.8334 72.7122 83.2198 72.712 83.6099Z" fill="#F9A7A7"/>
<path d="M84.5863 119.372C83.4197 119.371 82.2702 119.092 81.2329 118.558C80.1955 118.025 79.3003 117.252 78.6213 116.303L66.5953 99.4579H42.6953L30.6673 116.303C29.9889 117.251 29.0943 118.024 28.0577 118.558C27.0211 119.092 25.8722 119.371 24.7063 119.372C23.7145 119.372 22.733 119.171 21.8213 118.781C20.9095 118.39 20.0865 117.819 19.4021 117.101C18.7177 116.383 18.1862 115.534 17.8397 114.605C17.4932 113.676 17.3389 112.686 17.3863 111.695L18.7373 83.5879C18.7682 79.4901 20.38 75.5624 23.2366 72.6242C26.0932 69.686 29.974 67.9642 34.0693 67.8179C34.1205 67.8096 34.1724 67.8056 34.2243 67.8059H75.0653C75.1175 67.806 75.1697 67.8101 75.2213 67.8179C79.3193 67.9683 83.2011 69.6943 86.0578 72.6363C88.9145 75.5783 90.5256 79.5093 90.5553 83.6099L91.9053 111.694C91.9525 112.684 91.7982 113.674 91.4518 114.603C91.1054 115.532 90.574 116.381 89.8898 117.099C89.2057 117.817 88.3829 118.388 87.4715 118.779C86.5601 119.169 85.5789 119.371 84.5873 119.371L84.5863 119.372ZM42.1913 97.5079H67.0983C67.2546 97.5074 67.4088 97.5442 67.5479 97.6153C67.6871 97.6865 67.8072 97.7899 67.8983 97.9169L80.2173 115.168C80.6772 115.812 81.2736 116.346 81.9639 116.733C82.6543 117.12 83.4215 117.349 84.2108 117.405C85.0001 117.461 85.792 117.341 86.5299 117.056C87.2677 116.77 87.9334 116.325 88.4793 115.752C88.9832 115.227 89.3742 114.605 89.6281 113.923C89.882 113.241 89.9933 112.514 89.9553 111.788L88.6043 83.6809C88.6043 83.6669 88.6043 83.6499 88.6043 83.6339C88.5842 80.0157 87.1589 76.5469 84.6294 73.9598C82.0999 71.3726 78.6641 69.8696 75.0473 69.7679C75.0112 69.7668 74.9751 69.7638 74.9393 69.7589H34.3553C34.3198 69.7639 34.2841 69.7669 34.2483 69.7679C30.6317 69.8701 27.1963 71.3733 24.6671 73.9604C22.1378 76.5475 20.7126 80.016 20.6923 83.6339L19.3363 111.788C19.3015 112.514 19.4145 113.24 19.6685 113.921C19.9224 114.603 20.3121 115.226 20.8138 115.752C21.3155 116.278 21.9188 116.697 22.5872 116.984C23.2556 117.27 23.9751 117.418 24.7023 117.418C25.5575 117.417 26.4003 117.213 27.1608 116.822C27.9212 116.43 28.5775 115.863 29.0753 115.168L41.3943 97.9169C41.4852 97.7905 41.6049 97.6874 41.7434 97.6163C41.882 97.5451 42.0355 97.508 42.1913 97.5079Z" fill="#3762CC"/>
<path d="M34.5629 99.461C31.4322 99.461 28.3718 98.5326 25.7688 96.7933C23.1657 95.054 21.1369 92.5818 19.9388 89.6895C18.7407 86.7971 18.4273 83.6144 19.038 80.5439C19.6488 77.4734 21.1564 74.6529 23.3701 72.4392C25.5838 70.2255 28.4043 68.7179 31.4748 68.1071C34.5453 67.4964 37.728 67.8098 40.6204 69.0079C43.5128 70.206 45.9849 72.2348 47.7242 74.8379C49.4635 77.4409 50.3919 80.5013 50.3919 83.632C50.3871 87.8286 48.7179 91.852 45.7504 94.8195C42.7829 97.787 38.7595 99.4562 34.5629 99.461ZM34.5629 69.761C31.8189 69.761 29.1365 70.5747 26.8549 72.0992C24.5733 73.6237 22.7951 75.7905 21.745 78.3256C20.6949 80.8608 20.4201 83.6504 20.9555 86.3417C21.4908 89.033 22.8122 91.5051 24.7525 93.4454C26.6928 95.3857 29.1649 96.7071 31.8562 97.2424C34.5475 97.7777 37.3371 97.503 39.8722 96.4529C42.4074 95.4028 44.5742 93.6245 46.0987 91.343C47.6232 89.0614 48.4369 86.379 48.4369 83.635C48.4327 79.9567 46.9696 76.4302 44.3686 73.8293C41.7676 71.2283 38.2412 69.7652 34.5629 69.761Z" fill="#3762CC"/>
<path d="M74.725 99.461C71.5943 99.461 68.5339 98.5326 65.9309 96.7933C63.3278 95.054 61.299 92.5818 60.1009 89.6895C58.9029 86.7971 58.5894 83.6144 59.2002 80.5439C59.8109 77.4734 61.3185 74.6529 63.5322 72.4392C65.7459 70.2255 68.5664 68.7179 71.6369 68.1071C74.7074 67.4964 77.8901 67.8098 80.7825 69.0079C83.6749 70.206 86.147 72.2348 87.8863 74.8379C89.6257 77.4409 90.554 80.5013 90.554 83.632C90.5492 87.8286 88.88 91.852 85.9125 94.8195C82.945 97.787 78.9216 99.4562 74.725 99.461ZM74.725 69.761C71.981 69.761 69.2986 70.5747 67.017 72.0992C64.7355 73.6237 62.9572 75.7905 61.9071 78.3256C60.857 80.8608 60.5823 83.6504 61.1176 86.3417C61.6529 89.033 62.9743 91.5051 64.9146 93.4454C66.8549 95.3857 69.327 96.7071 72.0183 97.2424C74.7096 97.7777 77.4992 97.503 80.0344 96.4529C82.5695 95.4028 84.7363 93.6245 86.2608 91.343C87.7853 89.0614 88.599 86.379 88.599 83.635C88.5948 79.9567 87.1317 76.4302 84.5307 73.8293C81.9298 71.2283 78.4033 69.7652 74.725 69.761Z" fill="#3762CC"/>
<path d="M27.466 11.5549C26.2454 11.6375 25.0917 12.1427 24.2031 12.9836C23.3146 13.8245 22.7467 14.9487 22.597 16.1629C22.5029 16.9847 22.6075 17.817 22.902 18.5899C22.9264 18.6525 22.9273 18.7219 22.9045 18.7852C22.8817 18.8484 22.8368 18.9013 22.778 18.9339C22.7354 18.9584 22.6871 18.9713 22.638 18.9713C22.5889 18.9713 22.5406 18.9584 22.498 18.9339C21.7003 18.4668 20.7939 18.2172 19.8696 18.21C18.9452 18.2029 18.0351 18.4384 17.2302 18.8931C16.4253 19.3477 15.7538 20.0056 15.2828 20.801C14.8118 21.5965 14.5577 22.5016 14.546 23.4259C14.5457 24.2625 14.75 25.0864 15.141 25.8259C15.1646 25.8704 15.177 25.92 15.1771 25.9703C15.1772 26.0207 15.165 26.0703 15.1415 26.1148C15.1181 26.1594 15.0841 26.1976 15.0425 26.226C15.0009 26.2544 14.953 26.2722 14.903 26.2779C13.8469 26.4049 12.8553 26.8531 12.0623 27.562C11.2692 28.2709 10.713 29.2062 10.4687 30.2414C10.2245 31.2767 10.3041 32.362 10.6967 33.3506C11.0893 34.3391 11.776 35.1833 12.664 35.7689V36.2839C11.7259 36.9033 11.0137 37.8101 10.6343 38.8683C10.2548 39.9265 10.2285 41.0792 10.5593 42.1536C10.8901 43.228 11.5602 44.1662 12.4692 44.8278C13.3781 45.4893 14.4769 45.8385 15.601 45.8229H15.607C15.6622 45.8215 15.7167 45.8349 15.7649 45.8616C15.8131 45.8884 15.8533 45.9276 15.8813 45.9752C15.9093 46.0227 15.924 46.0769 15.9239 46.1321C15.9239 46.1873 15.9091 46.2414 15.881 46.2889C15.2966 47.2571 15.0471 48.3908 15.171 49.5149C15.2865 50.4543 15.6519 51.3454 16.229 52.0955C16.8062 52.8455 17.574 53.427 18.4524 53.7793C19.3308 54.1316 20.2876 54.2418 21.2231 54.0983C22.1586 53.9549 23.0385 53.5632 23.771 52.9639C23.8128 52.9297 23.8629 52.9071 23.9162 52.8983C23.9695 52.8896 24.0241 52.8949 24.0747 52.9138C24.1253 52.9327 24.17 52.9646 24.2045 53.0062C24.2389 53.0478 24.2619 53.0977 24.271 53.1509C24.4218 53.9782 24.7674 54.7577 25.2793 55.4248C25.7913 56.0919 26.4548 56.6275 27.2149 56.9872C27.975 57.3469 28.8099 57.5203 29.6503 57.4931C30.4908 57.4659 31.3127 57.2389 32.048 56.8309V13.6309C31.5165 12.9319 30.8193 12.3761 30.0194 12.0137C29.2195 11.6513 28.342 11.4936 27.466 11.5549Z" fill="#F9A7A7"/>
<path d="M29.4782 58.472C28.18 58.4798 26.9119 58.0814 25.8514 57.3326C24.7909 56.5837 23.9912 55.522 23.5642 54.296C22.6665 54.8155 21.6539 55.104 20.6172 55.1357C19.5806 55.1675 18.5522 54.9414 17.6244 54.4779C16.6967 54.0143 15.8984 53.3278 15.3013 52.4797C14.7042 51.6317 14.3269 50.6488 14.2032 49.619C14.0951 48.6355 14.2268 47.6405 14.5872 46.719C13.4321 46.5416 12.3511 46.0397 11.4702 45.2717C10.5893 44.5037 9.94475 43.5013 9.61154 42.3812C9.27832 41.261 9.2702 40.0693 9.5881 38.9447C9.906 37.8201 10.5369 36.809 11.4072 36.029C10.5795 35.2876 9.96752 34.3363 9.63608 33.2757C9.30465 32.215 9.26604 31.0845 9.52435 30.0038C9.78265 28.923 10.3283 27.9321 11.1035 27.136C11.8787 26.3398 12.8547 25.768 13.9282 25.481C13.6943 24.8231 13.5739 24.1303 13.5722 23.432C13.5846 21.8051 14.231 20.2472 15.374 19.0894C16.5171 17.9317 18.0666 17.2653 19.6932 17.232C20.3484 17.2222 21.0013 17.3108 21.6302 17.495C21.5718 17.0156 21.5698 16.5309 21.6242 16.051C21.7786 14.8154 22.2977 13.6538 23.115 12.7144C23.9324 11.7749 25.011 11.1002 26.2134 10.7763C27.4158 10.4524 28.6874 10.494 29.866 10.8957C31.0447 11.2975 32.0769 12.0412 32.8312 13.032C32.9609 13.2021 33.0312 13.4101 33.0312 13.624V56.832C33.0314 57.006 32.9852 57.1769 32.8973 57.327C32.8094 57.4772 32.683 57.6011 32.5312 57.686C31.5969 58.2033 30.5461 58.4738 29.4782 58.472ZM23.9782 51.918C24.282 51.9174 24.5762 52.0245 24.8084 52.2205C25.0406 52.4164 25.1957 52.6884 25.2462 52.988C25.4192 53.9832 25.9403 54.8846 26.7164 55.5312C27.4925 56.1777 28.4731 56.5275 29.4832 56.518C30.0306 56.5195 30.5734 56.4177 31.0832 56.218V13.976C30.5346 13.3555 29.819 12.906 29.0219 12.6812C28.2247 12.4564 27.3797 12.4658 26.5878 12.7084C25.7958 12.9509 25.0904 13.4163 24.5559 14.0489C24.0213 14.6816 23.6802 15.4547 23.5732 16.276C23.4969 16.943 23.5816 17.6185 23.8202 18.246C23.9298 18.5278 23.9335 18.8399 23.8305 19.1242C23.7275 19.4085 23.5249 19.6458 23.2602 19.792L23.2332 19.806C23.0438 19.9057 22.8323 19.9557 22.6183 19.9511C22.4044 19.9466 22.1951 19.8877 22.0102 19.78C21.3609 19.4012 20.6237 19.1989 19.8719 19.1932C19.1202 19.1876 18.38 19.3788 17.7251 19.7479C17.0702 20.1169 16.5233 20.651 16.1387 21.297C15.7542 21.943 15.5454 22.6784 15.5332 23.43C15.5319 24.1073 15.6971 24.7746 16.0142 25.373C16.1115 25.5569 16.1626 25.7616 16.1634 25.9695C16.1641 26.1775 16.1143 26.3826 16.0183 26.5671C15.9223 26.7516 15.783 26.91 15.6123 27.0288C15.4416 27.1476 15.2445 27.2232 15.0382 27.249C14.0144 27.38 13.0729 27.8778 12.3882 28.6501C11.7036 29.4225 11.3223 30.4169 11.3152 31.449C11.3167 32.1462 11.491 32.8321 11.8226 33.4453C12.1542 34.0586 12.6326 34.5801 13.2152 34.963C13.3495 35.0521 13.4597 35.1731 13.536 35.3151C13.6122 35.4571 13.6521 35.6158 13.6522 35.777V36.292C13.6521 36.4532 13.6122 36.6119 13.536 36.7539C13.4597 36.896 13.3495 37.0169 13.2152 37.106C12.6326 37.4889 12.154 38.0104 11.8224 38.6236C11.4909 39.2369 11.3166 39.9229 11.3152 40.62C11.3247 41.7514 11.7829 42.8327 12.5892 43.6264C13.3955 44.4201 14.4838 44.8613 15.6152 44.853C15.8452 44.8524 16.0712 44.9127 16.2703 45.028C16.4693 45.1432 16.6342 45.3092 16.7482 45.509C16.8597 45.7067 16.9169 45.9305 16.9137 46.1575C16.9105 46.3844 16.8472 46.6065 16.7302 46.801C16.2556 47.587 16.0534 48.5075 16.1552 49.42C16.2508 50.1851 16.5499 50.9105 17.0212 51.5207C17.4925 52.1309 18.1187 52.6036 18.8348 52.8895C19.5508 53.1755 20.3304 53.2642 21.0924 53.1464C21.8544 53.0287 22.5709 52.7088 23.1672 52.22C23.393 52.0302 23.6772 51.9236 23.9722 51.918H23.9782Z" fill="#3762CC"/>
<path d="M15.3424 37.671C14.1687 37.6737 13.0284 37.2809 12.1054 36.556C11.9069 36.3942 11.7799 36.1611 11.7516 35.9067C11.7233 35.6523 11.796 35.3969 11.954 35.1955C12.112 34.9941 12.3427 34.8628 12.5966 34.8298C12.8504 34.7968 13.1071 34.8647 13.3114 35.0189C13.9928 35.5533 14.8571 35.7984 15.7176 35.7013C16.5782 35.6042 17.3661 35.1727 17.9114 34.5C18.1767 34.1706 18.3738 33.7917 18.4911 33.3853C18.6084 32.9789 18.6436 32.5533 18.5946 32.1332C18.5457 31.7131 18.4135 31.3069 18.2059 30.9384C17.9983 30.5699 17.7193 30.2465 17.3854 29.987C17.1814 29.827 17.0493 29.5926 17.0182 29.3353C16.9871 29.078 17.0594 28.8189 17.2194 28.615C17.3793 28.411 17.6137 28.2789 17.871 28.2478C18.1283 28.2167 18.3874 28.289 18.5914 28.449C19.1286 28.8682 19.5771 29.3901 19.9108 29.9843C20.2445 30.5785 20.4568 31.2331 20.5352 31.91C20.6137 32.587 20.5568 33.2728 20.3678 33.9275C20.1788 34.5823 19.8615 35.1929 19.4344 35.724C18.9417 36.3343 18.3182 36.8262 17.61 37.1632C16.9017 37.5002 16.1267 37.6737 15.3424 37.671Z" fill="#3762CC"/>
<path d="M23.243 51.466C23.0785 51.4659 22.9168 51.4243 22.7727 51.3451C22.6286 51.2659 22.5069 51.1516 22.4187 51.0128C22.3306 50.874 22.2789 50.7152 22.2684 50.5511C22.258 50.387 22.2891 50.2229 22.359 50.074C22.5384 49.6948 22.6403 49.2835 22.6587 48.8643C22.6771 48.4451 22.6116 48.0265 22.466 47.633C22.3193 47.2312 22.0938 46.8628 21.8027 46.5494C21.5116 46.236 21.1608 45.9839 20.771 45.808C19.9862 45.4464 19.0907 45.4081 18.2779 45.7013C17.465 45.9945 16.8002 46.5957 16.427 47.375C16.3139 47.6044 16.1153 47.7803 15.874 47.8649C15.6326 47.9495 15.3677 47.9361 15.1361 47.8276C14.9046 47.719 14.7248 47.524 14.6354 47.2844C14.546 47.0448 14.5541 46.7797 14.658 46.546C15.2509 45.3011 16.31 44.3395 17.6061 43.8691C18.9023 43.3987 20.3316 43.4572 21.585 44.032C22.21 44.3149 22.7722 44.7198 23.2386 45.223C23.705 45.7261 24.0662 46.3174 24.301 46.962C24.5362 47.5976 24.6421 48.2739 24.6124 48.951C24.5827 49.6281 24.418 50.2924 24.128 50.905C24.0489 51.0728 23.9236 51.2147 23.7669 51.314C23.6102 51.4134 23.4285 51.4661 23.243 51.466Z" fill="#3762CC"/>
<path d="M29.7314 47.084C28.3557 47.0901 27.0336 46.5509 26.0547 45.5843C25.0757 44.6177 24.5197 43.3027 24.5084 41.927C24.5053 41.2456 24.6384 40.5704 24.8997 39.941C25.1611 39.3117 25.5455 38.7408 26.0303 38.262C27.0085 37.287 28.3333 36.7397 29.7143 36.74C29.9735 36.74 30.222 36.8429 30.4052 37.0262C30.5884 37.2094 30.6913 37.4579 30.6913 37.717C30.6913 37.9761 30.5884 38.2246 30.4052 38.4078C30.222 38.5911 29.9735 38.694 29.7143 38.694C28.8485 38.6929 28.0176 39.0357 27.4043 39.647C27.103 39.9438 26.864 40.2979 26.7013 40.6884C26.5387 41.0789 26.4558 41.498 26.4573 41.921C26.4682 42.7788 26.8179 43.5974 27.4301 44.1983C28.0424 44.7991 28.8675 45.1333 29.7253 45.128H29.7373C29.9965 45.128 30.245 45.2309 30.4282 45.4142C30.6114 45.5974 30.7143 45.8459 30.7143 46.105C30.7143 46.3641 30.6114 46.6126 30.4282 46.7958C30.245 46.9791 29.9965 47.082 29.7373 47.082L29.7314 47.084Z" fill="#3762CC"/>
<path d="M25.6214 21.248C24.7967 21.2497 23.9921 20.9935 23.3202 20.5153C22.6484 20.0371 22.1428 19.3608 21.8744 18.581C21.7913 18.3355 21.809 18.0671 21.9238 17.8347C22.0386 17.6024 22.241 17.4251 22.4864 17.342C22.7319 17.2588 23.0003 17.2766 23.2327 17.3914C23.465 17.5061 23.6423 17.7085 23.7254 17.954C23.898 18.4526 24.2606 18.8628 24.7343 19.0953C25.208 19.3277 25.7544 19.3636 26.2544 19.195C26.5038 19.1135 26.7344 18.9831 26.9327 18.8114C27.131 18.6397 27.2931 18.4301 27.4094 18.195C27.5235 17.9673 27.591 17.7191 27.6082 17.465C27.6254 17.2109 27.5918 16.956 27.5094 16.715C27.4682 16.5934 27.4514 16.465 27.4599 16.3369C27.4684 16.2089 27.502 16.0838 27.5588 15.9687C27.6156 15.8537 27.6946 15.7509 27.7911 15.6664C27.8876 15.5818 27.9999 15.5171 28.1214 15.476C28.243 15.4348 28.3714 15.418 28.4994 15.4264C28.6275 15.4349 28.7526 15.4685 28.8677 15.5254C28.9827 15.5822 29.0854 15.6611 29.17 15.7577C29.2545 15.8542 29.3192 15.9664 29.3604 16.088C29.5266 16.5727 29.5946 17.0858 29.5602 17.5971C29.5259 18.1084 29.39 18.6078 29.1604 19.066C28.9296 19.5316 28.6083 19.9465 28.2153 20.2864C27.8222 20.6264 27.3654 20.8846 26.8714 21.046C26.4682 21.1797 26.0462 21.2479 25.6214 21.248Z" fill="#3762CC"/>
<path d="M19.5922 33.1331C19.3369 33.1329 19.0919 33.0329 18.9093 32.8545C18.7268 32.676 18.6212 32.4333 18.6152 32.1781C18.599 31.4966 18.7192 30.8187 18.9687 30.1844C19.2182 29.55 19.592 28.9719 20.0682 28.4841C21.028 27.4911 22.3424 26.9193 23.7232 26.8941H23.8372C25.1957 26.8886 26.5024 27.415 27.4777 28.3607C28.4531 29.3063 29.0197 30.5961 29.0562 31.9541C29.059 32.0824 29.0366 32.21 28.9901 32.3296C28.9436 32.4492 28.874 32.5585 28.7853 32.6512C28.6965 32.7439 28.5904 32.8183 28.473 32.87C28.3555 32.9217 28.229 32.9498 28.1007 32.9526C27.9724 32.9554 27.8448 32.9329 27.7252 32.8864C27.6056 32.84 27.4963 32.7704 27.4036 32.6816C27.3109 32.5929 27.2365 32.4868 27.1848 32.3693C27.1331 32.2519 27.105 32.1254 27.1022 31.9971C27.0761 31.1502 26.7201 30.347 26.1102 29.7588C25.5002 29.1707 24.6845 28.8443 23.8372 28.8491H23.7652C22.8986 28.8654 22.0739 29.2251 21.4722 29.8491C21.1772 30.1516 20.9456 30.51 20.791 30.9032C20.6365 31.2965 20.5621 31.7167 20.5722 32.1391C20.5781 32.3983 20.4808 32.6493 20.3018 32.8368C20.1227 33.0243 19.8764 33.1331 19.6172 33.1391L19.5922 33.1331Z" fill="#3762CC"/>
<path d="M36.6431 11.555C37.8637 11.6376 39.0174 12.1427 39.906 12.9837C40.7945 13.8246 41.3624 14.9488 41.5121 16.163C41.6078 16.9843 41.505 17.8166 41.2121 18.59C41.1872 18.6524 41.1859 18.7219 41.2086 18.7852C41.2312 18.8486 41.2762 18.9015 41.3351 18.934C41.3777 18.9584 41.426 18.9713 41.4751 18.9713C41.5242 18.9713 41.5725 18.9584 41.6151 18.934C42.4129 18.4685 43.3188 18.2203 44.2424 18.2141C45.166 18.208 46.0751 18.4441 46.879 18.8989C47.6829 19.3537 48.3535 20.0114 48.8239 20.8062C49.2944 21.6011 49.5482 22.5054 49.5601 23.429C49.5604 24.2655 49.3561 25.0894 48.9651 25.829C48.9415 25.8734 48.9291 25.923 48.929 25.9734C48.9289 26.0237 48.9411 26.0733 48.9646 26.1179C48.988 26.1625 49.022 26.2006 49.0636 26.229C49.1052 26.2574 49.1531 26.2753 49.2031 26.281C50.2592 26.4079 51.2508 26.8562 52.0439 27.565C52.8369 28.2739 53.3932 29.2092 53.6374 30.2445C53.8816 31.2797 53.802 32.365 53.4094 33.3536C53.0168 34.3422 52.3301 35.1863 51.4421 35.772V36.287C52.3803 36.9064 53.0924 37.8131 53.4719 38.8713C53.8513 39.9295 53.8776 41.0822 53.5468 42.1566C53.216 43.231 52.5459 44.1693 51.637 44.8308C50.728 45.4923 49.6292 45.8415 48.5051 45.826H48.4991C48.444 45.8245 48.3894 45.8379 48.3412 45.8647C48.293 45.8915 48.2528 45.9307 48.2248 45.9782C48.1969 46.0258 48.1821 46.08 48.1822 46.1351C48.1822 46.1903 48.1971 46.2445 48.2251 46.292C48.8095 47.2602 49.059 48.3938 48.9351 49.518C48.8199 50.4575 48.4547 51.3489 47.8776 52.0991C47.3005 52.8494 46.5327 53.431 45.6541 53.7833C44.7756 54.1357 43.8186 54.2458 42.883 54.1022C41.9474 53.9586 41.0675 53.5665 40.3351 52.967C40.2932 52.9331 40.2432 52.9108 40.19 52.9021C40.1368 52.8935 40.0822 52.8989 40.0318 52.9178C39.9813 52.9367 39.9366 52.9684 39.9021 53.0098C39.8676 53.0512 39.8445 53.1009 39.8351 53.154C39.6844 53.9813 39.3387 54.7607 38.8268 55.4279C38.3148 56.095 37.6513 56.6306 36.8912 56.9902C36.1311 57.3499 35.2963 57.5233 34.4558 57.4962C33.6153 57.469 32.7934 57.242 32.0581 56.834V13.634C32.5896 12.9339 33.2871 12.3773 34.0876 12.0143C34.888 11.6514 35.7663 11.4935 36.6431 11.555Z" fill="#F9A7A7"/>
<path d="M34.6311 58.4709C33.5637 58.4716 32.5137 58.2004 31.5801 57.6829C31.428 57.5982 31.3015 57.4743 31.2135 57.3241C31.1256 57.174 31.0795 57.0029 31.0801 56.8289V13.6269C31.0809 13.4131 31.1511 13.2054 31.2801 13.0349C32.1009 11.932 33.2631 11.131 34.586 10.7566C35.9089 10.3821 37.3184 10.4552 38.5956 10.9643C39.8727 11.4735 40.9459 12.3902 41.6483 13.5721C42.3508 14.7539 42.6432 16.1347 42.4801 17.4999C43.1086 17.3158 43.7612 17.2272 44.4161 17.2369C46.0414 17.2694 47.5901 17.934 48.7333 19.0898C49.8766 20.2455 50.5243 21.8013 50.5391 23.4269C50.5376 24.1265 50.4168 24.8208 50.1821 25.4799C51.4904 25.8384 52.6456 26.615 53.4715 27.6912C54.2973 28.7675 54.7484 30.0843 54.7561 31.4409C54.7557 32.3066 54.5726 33.1624 54.2188 33.9525C53.8651 34.7425 53.3486 35.4491 52.7031 36.0259C53.3486 36.6027 53.8651 37.3092 54.2189 38.0993C54.5727 38.8894 54.7557 39.7452 54.7561 40.6109C54.7484 42.0833 54.2185 43.5052 53.2605 44.6233C52.3026 45.7415 50.9789 46.4834 49.5251 46.7169C49.8849 47.6385 50.0163 48.6335 49.9081 49.6169C49.7848 50.6469 49.4077 51.6301 48.8107 52.4784C48.2137 53.3267 47.4154 54.0135 46.4875 54.4772C45.5596 54.9409 44.5312 55.167 43.4943 55.1352C42.4575 55.1033 41.4448 54.8146 40.5471 54.2949C40.1201 55.5213 39.3201 56.5833 38.2592 57.3322C37.1983 58.0811 35.9296 58.4792 34.6311 58.4709ZM33.0311 56.2119C33.5408 56.4118 34.0836 56.5135 34.6311 56.5119C35.6412 56.5209 36.6217 56.1709 37.3977 55.5242C38.1738 54.8775 38.6949 53.9761 38.8681 52.9809C38.9061 52.7591 39.0016 52.5512 39.1451 52.3778C39.2886 52.2044 39.475 52.0717 39.6858 51.9929C39.8965 51.9141 40.1243 51.8919 40.3463 51.9286C40.5683 51.9652 40.7768 52.0595 40.9511 52.2019C41.5475 52.6903 42.264 53.0099 43.0258 53.1275C43.7877 53.2451 44.5672 53.1563 45.2831 52.8704C45.999 52.5846 46.6252 52.112 47.0966 51.502C47.5679 50.892 47.8671 50.1668 47.9631 49.4019C48.0648 48.4894 47.8626 47.5689 47.3881 46.7829C47.2705 46.5873 47.2071 46.3639 47.2045 46.1357C47.2019 45.9075 47.2601 45.6827 47.3731 45.4844C47.4861 45.2862 47.6499 45.1216 47.8476 45.0076C48.0454 44.8936 48.2699 44.8344 48.4981 44.8359C49.6295 44.8436 50.7177 44.4021 51.5238 43.6083C52.33 42.8145 52.7883 41.7333 52.7981 40.6019C52.7965 39.9048 52.6222 39.2189 52.2906 38.6056C51.959 37.9924 51.4806 37.4709 50.8981 37.0879C50.7637 36.9988 50.6535 36.8778 50.5773 36.7358C50.501 36.5938 50.4611 36.4351 50.4611 36.2739V35.7589C50.4611 35.5977 50.501 35.439 50.5773 35.297C50.6535 35.155 50.7637 35.034 50.8981 34.9449C51.4807 34.562 51.9592 34.0406 52.2908 33.4273C52.6224 32.814 52.7967 32.1281 52.7981 31.4309C52.7911 30.3986 52.4098 29.4039 51.7249 28.6315C51.04 27.8591 50.0981 27.3614 49.0741 27.2309C48.8677 27.2049 48.6707 27.1292 48.5 27.0103C48.3293 26.8914 48.1899 26.7329 48.094 26.5483C47.998 26.3637 47.9482 26.1586 47.949 25.9506C47.9497 25.7426 48.0008 25.5378 48.0981 25.3539C48.4155 24.7555 48.581 24.0883 48.5801 23.4109C48.5678 22.6594 48.359 21.9242 47.9745 21.2783C47.59 20.6325 47.0432 20.0985 46.3884 19.7295C45.7336 19.3604 44.9937 19.1691 44.2421 19.1747C43.4905 19.1802 42.7534 19.3823 42.1041 19.7609C41.9152 19.8704 41.7012 19.9292 41.4829 19.9317C41.2646 19.9341 41.0494 19.8801 40.8581 19.7749L40.8481 19.7689C40.5846 19.6219 40.3832 19.3843 40.2814 19.1003C40.1795 18.8162 40.184 18.5049 40.2941 18.2239C40.5325 17.5971 40.6165 16.9221 40.5391 16.2559C40.4323 15.4346 40.0914 14.6614 39.5569 14.0287C39.0224 13.3959 38.3171 12.9305 37.5252 12.6879C36.7333 12.4454 35.8883 12.436 35.0912 12.6608C34.294 12.8857 33.5785 13.3353 33.0301 13.9559L33.0311 56.2119Z" fill="#3762CC"/>
<path d="M48.769 37.67C47.9848 37.6727 47.21 37.4992 46.5019 37.1622C45.7938 36.8252 45.1705 36.3333 44.678 35.723C44.2509 35.192 43.9336 34.5813 43.7446 33.9266C43.5556 33.2718 43.4987 32.586 43.5771 31.9091C43.6556 31.2321 43.8678 30.5775 44.2016 29.9833C44.5353 29.3892 44.9838 28.8672 45.521 28.448C45.725 28.288 45.9841 28.2157 46.2414 28.2468C46.4987 28.278 46.7331 28.41 46.893 28.614C47.053 28.8179 47.1253 29.077 47.0942 29.3343C47.063 29.5916 46.931 29.8261 46.727 29.986C46.3931 30.2455 46.1141 30.5689 45.9065 30.9374C45.6989 31.3059 45.5667 31.7121 45.5178 32.1322C45.4688 32.5523 45.504 32.978 45.6213 33.3843C45.7386 33.7907 45.9357 34.1696 46.201 34.499C46.7463 35.1718 47.5342 35.6032 48.3948 35.7003C49.2553 35.7974 50.1195 35.5524 50.801 35.018C51.0053 34.8637 51.262 34.7958 51.5158 34.8288C51.7697 34.8618 52.0004 34.9932 52.1584 35.1945C52.3164 35.3959 52.3891 35.6513 52.3608 35.9057C52.3325 36.1601 52.2055 36.3933 52.007 36.555C51.0836 37.2799 49.943 37.6727 48.769 37.67Z" fill="#3762CC"/>
<path d="M40.8662 51.466C40.6803 51.4662 40.4983 51.4134 40.3414 51.3139C40.1845 51.2144 40.0592 51.0722 39.9802 50.904C39.6904 50.2914 39.5258 49.627 39.4961 48.95C39.4664 48.2729 39.5722 47.5967 39.8072 46.961C40.0419 46.3164 40.4031 45.7251 40.8695 45.222C41.3359 44.7188 41.8981 44.3139 42.5232 44.031C43.7767 43.4564 45.206 43.398 46.5023 43.8684C47.7986 44.3388 48.8578 45.3002 49.4512 46.545C49.5551 46.7787 49.5632 47.0438 49.4738 47.2834C49.3844 47.523 49.2046 47.7181 48.973 47.8266C48.7414 47.9351 48.4765 47.9485 48.2352 47.8639C47.9938 47.7793 47.7953 47.6034 47.6822 47.374C47.3089 46.5945 46.6439 45.9931 45.8309 45.6998C45.0178 45.4066 44.1221 45.4451 43.3372 45.807C42.9474 45.9831 42.5967 46.2352 42.3056 46.5486C42.0146 46.862 41.789 47.2303 41.6422 47.632C41.4969 48.0256 41.4315 48.4442 41.4499 48.8633C41.4682 49.2824 41.57 49.6937 41.7492 50.073C41.8192 50.2218 41.8505 50.3859 41.8403 50.5501C41.83 50.7143 41.7784 50.8732 41.6903 51.0121C41.6023 51.151 41.4806 51.2655 41.3365 51.3448C41.1924 51.4242 41.0306 51.4658 40.8662 51.466Z" fill="#3762CC"/>
<path d="M34.3782 47.0839H34.3632C34.1041 47.0829 33.8561 46.9791 33.6735 46.7954C33.4909 46.6117 33.3886 46.363 33.3892 46.1039C33.3938 45.846 33.4988 45.6001 33.6817 45.4183C33.8647 45.2364 34.1112 45.133 34.3692 45.1299H34.3792C35.2372 45.1356 36.0626 44.8013 36.675 44.2002C37.2873 43.5991 37.6369 42.78 37.6472 41.922C37.6489 41.4991 37.566 41.0801 37.4034 40.6897C37.2407 40.2994 37.0016 39.9455 36.7002 39.6489C36.0868 39.0378 35.256 38.6951 34.3902 38.696C34.131 38.696 33.8825 38.593 33.6993 38.4098C33.5161 38.2266 33.4131 37.9781 33.4131 37.719C33.4131 37.4598 33.5161 37.2113 33.6993 37.0281C33.8825 36.8449 34.131 36.7419 34.3902 36.7419C35.7712 36.7406 37.0963 37.2877 38.0742 38.2629C38.5591 38.7417 38.9436 39.3125 39.2049 39.9419C39.4663 40.5713 39.5993 41.2465 39.5962 41.928C39.5832 43.3021 39.0274 44.6155 38.0498 45.5814C37.0723 46.5473 35.7524 47.0874 34.3782 47.0839Z" fill="#3762CC"/>
<path d="M38.4871 21.2479C38.0637 21.2481 37.6431 21.1806 37.2411 21.0479C36.7472 20.8866 36.2905 20.6285 35.8975 20.2887C35.5045 19.9489 35.1831 19.5343 34.9521 19.0689C34.7227 18.6105 34.587 18.111 34.5526 17.5995C34.5183 17.0881 34.5861 16.5749 34.7521 16.0899C34.8352 15.8445 35.0125 15.6421 35.2448 15.5273C35.3599 15.4705 35.485 15.4369 35.613 15.4284C35.7411 15.4199 35.8695 15.4368 35.9911 15.4779C36.1126 15.5191 36.2248 15.5838 36.3214 15.6683C36.4179 15.7529 36.4968 15.8556 36.5537 15.9707C36.6105 16.0857 36.6441 16.2108 36.6526 16.3389C36.6611 16.4669 36.6442 16.5954 36.6031 16.7169C36.5206 16.9579 36.487 17.2129 36.5042 17.467C36.5214 17.7211 36.589 17.9692 36.7031 18.1969C36.8192 18.432 36.9811 18.6415 37.1793 18.8132C37.3775 18.9849 37.6079 19.1154 37.8571 19.1969C38.3567 19.364 38.9021 19.3278 39.3753 19.0962C39.8485 18.8646 40.2116 18.456 40.3861 17.9589C40.4256 17.8353 40.4893 17.7208 40.5736 17.6221C40.6578 17.5234 40.7609 17.4424 40.8767 17.384C40.9926 17.3255 41.119 17.2908 41.2484 17.2817C41.3779 17.2726 41.5079 17.2894 41.6308 17.3312C41.7537 17.3729 41.867 17.4387 41.9642 17.5247C42.0614 17.6107 42.1405 17.7152 42.1968 17.8321C42.2532 17.949 42.2856 18.0759 42.2924 18.2056C42.2991 18.3352 42.28 18.4648 42.2361 18.5869C41.9666 19.366 41.4604 20.0413 40.7882 20.5185C40.116 20.9956 39.3114 21.2507 38.4871 21.2479Z" fill="#3762CC"/>
<path d="M44.5169 33.133H44.4949C44.2357 33.127 43.9894 33.0182 43.8104 32.8307C43.6313 32.6432 43.534 32.3922 43.5399 32.133C43.5502 31.7105 43.4759 31.2903 43.3214 30.897C43.1668 30.5037 42.9351 30.1453 42.6399 29.843C42.0382 29.219 41.2135 28.8593 40.3469 28.843H40.2749C39.4274 28.8379 38.6115 29.1642 38.0013 29.7524C37.3911 30.3405 37.035 31.1439 37.0089 31.991C37.0034 32.2463 36.8982 32.4893 36.7158 32.6679C36.5334 32.8466 36.2882 32.9468 36.0329 32.947H36.0109C35.7517 32.9407 35.5055 32.8319 35.3263 32.6445C35.1471 32.457 35.0495 32.2062 35.0549 31.947C35.0927 30.5892 35.6598 29.3 36.6351 28.3546C37.6104 27.4092 38.9166 26.8825 40.2749 26.887H40.3889C41.7697 26.912 43.0842 27.4838 44.0439 28.477C44.5199 28.9649 44.8937 29.543 45.1432 30.1774C45.3927 30.8117 45.513 31.4895 45.4969 32.171C45.4927 32.4279 45.3875 32.6729 45.2041 32.8529C45.0207 33.0329 44.7739 33.1335 44.5169 33.133Z" fill="#3762CC"/>
<path d="M62.564 15.355L63.364 27.475C63.6243 30.723 64.9727 33.7882 67.191 36.175C68.2376 37.3348 69.4232 38.3612 70.721 39.231L72.278 40.284C72.8258 40.652 73.471 40.8481 74.131 40.847H80.474C81.1342 40.8481 81.7798 40.652 82.328 40.284L83.884 39.231C85.1819 38.3615 86.3676 37.335 87.414 36.175C89.632 33.7881 90.9804 30.7229 91.241 27.475L92.041 15.355H62.564Z" fill="#FFEA92"/>
<path d="M80.4741 41.821H74.1341C73.2791 41.8229 72.4432 41.5687 71.7341 41.091L70.1741 40.039C68.8103 39.1242 67.5643 38.0451 66.4641 36.826C64.0981 34.278 62.6621 31.0054 62.3891 27.539L61.4641 13.52C61.4552 13.3865 61.4738 13.2526 61.5188 13.1266C61.5637 13.0006 61.6341 12.8852 61.7255 12.7875C61.8169 12.6898 61.9274 12.6119 62.0502 12.5587C62.1729 12.5055 62.3053 12.478 62.4391 12.478H92.1741C92.3078 12.4782 92.4401 12.5057 92.5628 12.559C92.6855 12.6123 92.7959 12.6902 92.8873 12.7878C92.9787 12.8855 93.0491 13.0008 93.0941 13.1268C93.1391 13.2527 93.1578 13.3866 93.1491 13.52L92.2231 27.539C91.9504 31.0053 90.5148 34.2779 88.1491 36.826C87.0487 38.0453 85.8023 39.1245 84.4381 40.039L82.8741 41.09C82.1652 41.5682 81.3292 41.8228 80.4741 41.821ZM63.4831 14.431L64.3391 27.409C64.5851 30.439 65.8465 33.2972 67.9191 35.521C68.9116 36.6217 70.0361 37.5957 71.2671 38.421L72.8251 39.474C73.2105 39.7352 73.6655 39.8745 74.1311 39.874H80.4741C80.94 39.8747 81.3953 39.7353 81.7811 39.474L83.3361 38.422C84.5677 37.5967 85.6928 36.6227 86.6861 35.522C88.7616 33.2993 90.0259 30.441 90.2741 27.41L91.1301 14.432L63.4831 14.431Z" fill="#3762CC"/>
<path d="M84.9453 57.4929H69.6643C69.5811 57.493 69.4987 57.4768 69.4218 57.445C69.3448 57.4133 69.2749 57.3667 69.216 57.3079C69.1571 57.2491 69.1105 57.1792 69.0786 57.1024C69.0467 57.0255 69.0303 56.9431 69.0303 56.8599C69.0303 55.3482 69.6308 53.8983 70.6998 52.8294C71.7687 51.7604 73.2186 51.1599 74.7303 51.1599H79.8773C81.389 51.1599 82.8388 51.7604 83.9078 52.8294C84.9768 53.8983 85.5773 55.3482 85.5773 56.8599C85.5773 57.0276 85.5107 57.1885 85.3922 57.3072C85.2737 57.4258 85.113 57.4926 84.9453 57.4929Z" fill="#FFEA92"/>
<path d="M92.7791 15.3549H61.8321C61.5826 15.3549 61.3355 15.3058 61.105 15.2103C60.8745 15.1148 60.6651 14.9749 60.4886 14.7984C60.3122 14.622 60.1722 14.4126 60.0768 14.182C59.9813 13.9515 59.9321 13.7044 59.9321 13.4549C59.9321 13.2054 59.9813 12.9584 60.0768 12.7278C60.1722 12.4973 60.3122 12.2879 60.4886 12.1114C60.6651 11.935 60.8745 11.795 61.105 11.6996C61.3355 11.6041 61.5826 11.5549 61.8321 11.5549H92.7791C93.2831 11.5549 93.7663 11.7551 94.1226 12.1114C94.4789 12.4678 94.6791 12.951 94.6791 13.4549C94.6791 13.9588 94.4789 14.4421 94.1226 14.7984C93.7663 15.1548 93.2831 15.3549 92.7791 15.3549Z" fill="#FFEA92"/>
<path d="M74.7321 51.163H79.8842C80.0202 51.163 80.1551 51.174 80.2841 51.184V40.843H74.3271V51.181C74.4611 51.173 74.5961 51.163 74.7321 51.163Z" fill="#FFEA92"/>
<path d="M84.9462 58.4691H69.6662C69.2393 58.4686 68.8301 58.2988 68.5283 57.997C68.2265 57.6952 68.0567 57.286 68.0562 56.8591C68.058 55.089 68.7619 53.3919 70.0135 52.1402C71.2651 50.8884 72.962 50.1842 74.7321 50.1821H79.8842C81.6543 50.1842 83.3513 50.8884 84.6028 52.1402C85.8544 53.3919 86.5583 55.089 86.5602 56.8591C86.5599 57.0708 86.5179 57.2804 86.4367 57.4759C86.3554 57.6713 86.2365 57.8489 86.0866 57.9984C85.9367 58.1479 85.7589 58.2664 85.5632 58.3472C85.3675 58.428 85.1579 58.4694 84.9462 58.4691ZM70.0222 56.5151H84.5842C84.4959 55.3259 83.9615 54.214 83.088 53.4021C82.2146 52.5902 81.0666 52.1384 79.8741 52.1371H74.7271C73.5354 52.1399 72.3887 52.5925 71.5164 53.4044C70.644 54.2163 70.1104 55.3277 70.0222 56.5161V56.5151Z" fill="#3762CC"/>
<path d="M92.7801 16.3321H61.8321C61.0691 16.3321 60.3373 16.029 59.7977 15.4895C59.2582 14.9499 58.9551 14.2182 58.9551 13.4551C58.9551 12.6921 59.2582 11.9603 59.7977 11.4208C60.3373 10.8812 61.0691 10.5781 61.8321 10.5781H92.7801C93.5431 10.5781 94.2749 10.8812 94.8144 11.4208C95.354 11.9603 95.6571 12.6921 95.6571 13.4551C95.6571 14.2182 95.354 14.9499 94.8144 15.4895C94.2749 16.029 93.5431 16.3321 92.7801 16.3321ZM61.8331 12.5321C61.5883 12.5321 61.3535 12.6294 61.1804 12.8025C61.0073 12.9756 60.9101 13.2103 60.9101 13.4551C60.9101 13.6999 61.0073 13.9347 61.1804 14.1078C61.3535 14.2809 61.5883 14.3781 61.8331 14.3781H92.7801C93.0249 14.3781 93.2597 14.2809 93.4328 14.1078C93.6059 13.9347 93.7031 13.6999 93.7031 13.4551C93.7031 13.2103 93.6059 12.9756 93.4328 12.8025C93.2597 12.6294 93.0249 12.5321 92.7801 12.5321H61.8331Z" fill="#3762CC"/>
<path d="M80.2851 52.1589H80.2151C80.0731 52.1479 79.9771 52.1409 79.8791 52.1409H74.7321C74.6321 52.1409 74.5391 52.1489 74.4441 52.1559C74.3068 52.1652 74.1691 52.1471 74.0388 52.1028C73.9085 52.0585 73.7883 51.9889 73.6851 51.8979C73.5838 51.8078 73.5018 51.6981 73.4442 51.5753C73.3867 51.4526 73.3546 51.3194 73.3501 51.1839V40.8449C73.3504 40.5859 73.4534 40.3375 73.6365 40.1544C73.8197 39.9712 74.0681 39.8682 74.3271 39.8679H80.2841C80.5431 39.8682 80.7915 39.9712 80.9746 40.1544C81.1578 40.3375 81.2608 40.5859 81.2611 40.8449V51.1829C81.2608 51.4418 81.158 51.69 80.975 51.8731C80.7921 52.0563 80.544 52.1594 80.2851 52.1599V52.1589ZM75.3101 50.1829H79.3101V41.8209H75.3101V50.1829Z" fill="#3762CC"/>
<path d="M92.7801 16.3321H61.8321C61.0691 16.3321 60.3373 16.029 59.7977 15.4895C59.2582 14.9499 58.9551 14.2182 58.9551 13.4551C58.9551 12.6921 59.2582 11.9603 59.7977 11.4208C60.3373 10.8812 61.0691 10.5781 61.8321 10.5781H92.7801C93.5431 10.5781 94.2749 10.8812 94.8144 11.4208C95.354 11.9603 95.6571 12.6921 95.6571 13.4551C95.6571 14.2182 95.354 14.9499 94.8144 15.4895C94.2749 16.029 93.5431 16.3321 92.7801 16.3321ZM61.8331 12.5321C61.5883 12.5321 61.3535 12.6294 61.1804 12.8025C61.0073 12.9756 60.9101 13.2103 60.9101 13.4551C60.9101 13.6999 61.0073 13.9347 61.1804 14.1078C61.3535 14.2809 61.5883 14.3781 61.8331 14.3781H92.7801C93.0249 14.3781 93.2597 14.2809 93.4328 14.1078C93.6059 13.9347 93.7031 13.6999 93.7031 13.4551C93.7031 13.2103 93.6059 12.9756 93.4328 12.8025C93.2597 12.6294 93.0249 12.5321 92.7801 12.5321H61.8331Z" fill="#3762CC"/>
<path d="M95.7502 16.449H91.9742L91.7151 20.362H94.8741C95.0301 20.362 95.1331 20.454 95.1331 20.515C95.1089 22.543 94.3568 24.4949 93.0141 26.015L92.2651 26.881C92.235 26.911 92.1991 26.9345 92.1595 26.9502C92.12 26.9658 92.0776 26.9732 92.0351 26.972H91.2741L91.2411 27.472C91.1624 28.6333 90.9321 29.7794 90.5562 30.881H91.8161C92.3024 30.8868 92.7843 30.7894 93.2301 30.5951C93.6759 30.4008 94.0754 30.1141 94.4021 29.754L95.4371 28.554C97.6929 25.995 98.9548 22.7111 98.9931 19.3C98.9361 18.4938 98.5638 17.7425 97.9568 17.2089C97.3498 16.6753 96.557 16.4023 95.7502 16.449Z" fill="#FFEA92"/>
<path d="M63.3643 27.4751L63.3323 26.9751H62.1413C62.0986 26.9764 62.0561 26.969 62.0164 26.9534C61.9767 26.9377 61.9406 26.9142 61.9103 26.8841L61.1623 26.0181C59.8192 24.4981 59.0669 22.5463 59.0423 20.5181C59.0423 20.4581 59.1423 20.3651 59.3013 20.3651H62.8953L62.6363 16.4521H58.5053C57.6974 16.4046 56.9035 16.6776 56.2957 17.212C55.688 17.7463 55.3156 18.4988 55.2593 19.3061C55.2968 22.7173 56.5588 26.0015 58.8153 28.5601L59.8503 29.7601C60.1772 30.12 60.5767 30.4066 61.0224 30.6009C61.4682 30.7951 61.9501 30.8927 62.4363 30.8871H64.0493C63.6731 29.7845 63.4428 28.6374 63.3643 27.4751Z" fill="#FFEA92"/>
<path d="M91.8181 31.8611H90.5591C90.4039 31.8609 90.2508 31.8239 90.1127 31.7529C89.9746 31.682 89.8554 31.5792 89.7648 31.4531C89.6743 31.327 89.615 31.1811 89.5919 31.0276C89.5688 30.8741 89.5826 30.7173 89.6321 30.5701C89.981 29.5486 90.1948 28.486 90.2681 27.4091L90.3011 26.9091C90.3176 26.6617 90.4275 26.4297 90.6085 26.2602C90.7895 26.0907 91.0281 25.9963 91.2761 25.9961H91.7401L92.2731 25.3781C93.2709 24.2441 93.9086 22.8387 94.1051 21.3411H91.7131C91.5795 21.341 91.4472 21.3134 91.3246 21.2602C91.202 21.207 91.0916 21.1292 91.0003 21.0316C90.9089 20.9341 90.8385 20.8188 90.7934 20.693C90.7483 20.5672 90.7295 20.4335 90.7381 20.3001L90.9961 16.3871C91.0126 16.1397 91.1225 15.9077 91.3035 15.7382C91.4845 15.5687 91.7231 15.4743 91.9711 15.4741H95.7491C96.8164 15.4259 97.8595 15.8017 98.6508 16.5196C99.4421 17.2375 99.9174 18.2391 99.9731 19.3061C99.9357 22.9517 98.5892 26.4625 96.1791 29.1981L95.1441 30.3981C94.7251 30.8638 94.2119 31.235 93.6384 31.4873C93.065 31.7395 92.4445 31.8669 91.8181 31.8611ZM92.1861 27.9391C92.1227 28.6017 92.0128 29.259 91.8571 29.9061C92.1963 29.9077 92.5321 29.8386 92.8431 29.703C93.1541 29.5675 93.4334 29.3686 93.6631 29.1191L94.6981 27.9191C96.8015 25.5382 97.9793 22.4808 98.0171 19.3041C97.9606 18.7562 97.6912 18.2524 97.2667 17.9013C96.8423 17.5502 96.2969 17.3799 95.7481 17.4271H92.8851L92.7561 19.3851H94.8741C95.1876 19.3721 95.4935 19.4836 95.7251 19.6953C95.9566 19.907 96.0951 20.2017 96.1101 20.5151C96.0855 22.7776 95.2487 24.956 93.7521 26.6531L93.0041 27.5191C92.7941 27.7566 92.5025 27.9065 92.1871 27.9391H92.1861ZM91.5281 26.2391L91.5201 26.2481L91.5281 26.2391Z" fill="#3762CC"/>
<path d="M64.0522 31.8611H62.4392C61.8126 31.8663 61.1921 31.7382 60.6187 31.4855C60.0453 31.2328 59.5321 30.8611 59.1132 30.3951L58.0782 29.1951C55.6681 26.4595 54.3216 22.9488 54.2842 19.3031C54.3401 18.2364 54.8156 17.235 55.6068 16.5173C56.3981 15.7997 57.441 15.424 58.5082 15.4721H62.6392C62.8871 15.4719 63.1259 15.566 63.307 15.7354C63.4881 15.9047 63.5979 16.1367 63.6142 16.3841L63.8732 20.2971C63.8819 20.4306 63.8632 20.5644 63.8182 20.6904C63.7732 20.8163 63.7028 20.9317 63.6114 21.0294C63.52 21.127 63.4096 21.2049 63.2869 21.2582C63.1642 21.3115 63.0319 21.339 62.8982 21.3391H60.0722C60.2693 22.8363 60.9069 24.2412 61.9042 25.3751L62.4382 25.9941H63.3382C63.5862 25.9944 63.8248 26.0888 64.0058 26.2583C64.1868 26.4278 64.2967 26.6597 64.3132 26.9071L64.3452 27.4071C64.4181 28.4837 64.6316 29.546 64.9802 30.5671C65.0303 30.7142 65.0446 30.871 65.022 31.0247C64.9993 31.1783 64.9403 31.3243 64.8498 31.4506C64.7593 31.5769 64.64 31.6797 64.5018 31.7506C64.3636 31.8215 64.2105 31.8583 64.0552 31.8581L64.0522 31.8611ZM58.5082 17.4271C57.9594 17.3799 57.414 17.5502 56.9896 17.9013C56.5651 18.2524 56.2956 18.7562 56.2392 19.3041C56.2769 22.4808 57.4548 25.5382 59.5582 27.9191L60.5932 29.1191C60.8276 29.3737 61.1133 29.5757 61.4315 29.7117C61.7498 29.8477 62.0932 29.9146 62.4392 29.9081H62.7532C62.5983 29.2636 62.489 28.609 62.4262 27.9491H62.1442C61.9612 27.9506 61.7799 27.9131 61.6125 27.8391C61.4451 27.7652 61.2953 27.6564 61.1732 27.5201L60.4262 26.6541C58.9299 24.957 58.0934 22.7786 58.0692 20.5161C58.084 20.2026 58.2223 19.9076 58.4539 19.6957C58.6855 19.4838 58.9915 19.3721 59.3052 19.3851H61.8552L61.7262 17.4271H58.5092H58.5082Z" fill="#3762CC"/>
</svg>
