<svg width="119" height="138" viewBox="0 0 119 138" fill="none" xmlns="http://www.w3.org/2000/svg">
<path d="M116.123 71.278H2.60156V3.16504H116.123V71.278Z" fill="#57B7EB"/>
<path d="M16.2246 14.517V3.16504H2.60156V71.278H116.123V55.385H57.0916C46.2529 55.3848 35.8582 51.0789 28.1942 43.4147C20.5301 35.7505 16.2246 25.3557 16.2246 14.517Z" fill="#4891D3"/>
<path d="M74.1182 98.5799V98.5229H44.6052V98.5799C41.2023 98.8647 38.0305 100.417 35.7179 102.929C33.4053 105.442 32.1206 108.731 32.1182 112.146V128.038C32.1182 129.844 32.8358 131.577 34.1132 132.854C35.3906 134.132 37.1231 134.849 38.9297 134.849C40.7362 134.849 42.4687 134.132 43.7461 132.854C45.0235 131.577 45.7412 129.844 45.7412 128.038V125.768C47.655 125.768 49.5472 125.363 51.2934 124.579C53.0397 123.796 54.6004 122.652 55.8732 121.223H62.8522C64.1254 122.652 65.6865 123.795 67.4329 124.578C69.1792 125.36 71.0714 125.764 72.9852 125.764V128.034C72.9852 129.84 73.7028 131.573 74.9802 132.85C76.2576 134.128 77.9901 134.845 79.7967 134.845C81.6032 134.845 83.3357 134.128 84.6131 132.85C85.8905 131.573 86.6082 129.84 86.6082 128.034V112.146C86.6057 108.731 85.3206 105.441 83.0073 102.929C80.6941 100.416 77.5216 98.864 74.1182 98.5799Z" fill="#F9E109"/>
<path d="M38.9287 37.2219H43.4697V46.3039H38.9287C37.7243 46.3039 36.5693 45.8255 35.7177 44.9739C34.8661 44.1223 34.3877 42.9673 34.3877 41.7629C34.3877 40.5586 34.8661 39.4036 35.7177 38.552C36.5693 37.7003 37.7243 37.2219 38.9287 37.2219Z" fill="#F9E109"/>
<path d="M50.2822 71.278H36.6592L43.4702 59.926L50.2822 71.278Z" fill="#FCBC04"/>
<path d="M95.3726 64.5441C97.9176 64.5441 99.9806 62.4811 99.9806 59.9361C99.9806 57.3912 97.9176 55.3281 95.3726 55.3281C92.8277 55.3281 90.7646 57.3912 90.7646 59.9361C90.7646 62.4811 92.8277 64.5441 95.3726 64.5441Z" fill="#F9E109"/>
<path d="M79.7969 71.2781H116.124V84.9011C116.124 85.4974 116.006 86.0879 115.778 86.6388C115.55 87.1898 115.216 87.6904 114.794 88.112C114.372 88.5337 113.872 88.8682 113.321 89.0964C112.77 89.3246 112.179 89.4421 111.583 89.4421H84.3379C83.1335 89.4421 81.9785 88.9637 81.1269 88.112C80.2753 87.2604 79.7969 86.1054 79.7969 84.9011V71.2781Z" fill="#93999A"/>
<path d="M97.9604 62.1971C97.2016 62.1999 96.4544 62.0119 95.7874 61.6502C95.1204 61.2885 94.5552 60.7649 94.1436 60.1274C93.7321 59.49 93.4875 58.7593 93.4324 58.0026C93.3773 57.2459 93.5135 56.4874 93.8284 55.7971C93.1549 56.0965 92.5645 56.5552 92.108 57.1337C91.6515 57.7122 91.3426 58.3932 91.2081 59.1178C91.0736 59.8423 91.1175 60.5888 91.3359 61.2926C91.5543 61.9964 91.9408 62.6365 92.4619 63.1576C92.983 63.6787 93.6231 64.0652 94.3269 64.2836C95.0307 64.502 95.7772 64.5459 96.5017 64.4114C97.2263 64.2768 97.9072 63.968 98.4858 63.5115C99.0643 63.055 99.523 62.4645 99.8224 61.7911C99.2376 62.0573 98.6028 62.1957 97.9604 62.1971Z" fill="#FCBC04"/>
<path d="M34.5487 40.627C34.4465 40.9968 34.3923 41.3783 34.3877 41.762C34.3877 42.9663 34.8661 44.1213 35.7177 44.9729C36.5693 45.8245 37.7243 46.303 38.9287 46.303H43.4697V44.033H38.9287C37.9248 44.0292 36.9505 43.6929 36.158 43.0767C35.3655 42.4604 34.7996 41.599 34.5487 40.627Z" fill="#FCBC04"/>
<path d="M45.2092 69.008C44.8072 69.0082 44.4124 68.9015 44.0651 68.6991C43.7179 68.4966 43.4306 68.2056 43.2327 67.8557C43.0347 67.5058 42.9333 67.1097 42.9386 66.7077C42.944 66.3058 43.056 65.9125 43.2632 65.568L45.0632 62.576L43.4702 59.926L36.6592 71.278H50.2822L48.9202 69.008H45.2092Z" fill="#E59730"/>
<path d="M86.6084 75.8191H116.123V84.9011H93.4234C92.5285 84.9016 91.6424 84.7258 90.8155 84.3837C89.9886 84.0416 89.2373 83.5399 88.6044 82.9073C87.9715 82.2746 87.4694 81.5235 87.1269 80.6968C86.7845 79.8701 86.6083 78.9839 86.6084 78.0891V75.8191Z" fill="#D0D8DA"/>
<path d="M61.6332 116.687C56.8635 116.684 52.2864 114.805 48.8904 111.456C45.4945 108.107 43.5522 103.556 43.4832 98.7871C40.3146 99.3095 37.4339 100.938 35.3531 103.384C33.2722 105.83 32.126 108.935 32.1182 112.146V128.039C32.1182 129.846 32.8358 131.578 34.1132 132.856C35.3906 134.133 37.1231 134.851 38.9297 134.851C40.7362 134.851 42.4687 134.133 43.7461 132.856C45.0235 131.578 45.7412 129.846 45.7412 128.039V125.768C47.6549 125.769 49.5471 125.364 51.2935 124.582C53.0399 123.799 54.6009 122.656 55.8742 121.227H62.8532C64.1264 122.656 65.6875 123.799 67.4339 124.582C69.1802 125.364 71.0724 125.769 72.9862 125.768V128.038C72.9862 129.845 73.7038 131.577 74.9812 132.855C76.2586 134.132 77.9911 134.85 79.7977 134.85C81.6042 134.85 83.3367 134.132 84.6141 132.855C85.8915 131.577 86.6092 129.845 86.6092 128.038V116.687H61.6332Z" fill="#FCBC04"/>
<path d="M45.7402 118.957C46.0383 118.957 46.3335 118.898 46.6089 118.784C46.8843 118.67 47.1346 118.503 47.3453 118.292C47.5561 118.081 47.7233 117.831 47.8374 117.556C47.9515 117.28 48.0102 116.985 48.0102 116.687V114.417H50.2802C50.8824 114.417 51.4599 114.178 51.8857 113.752C52.3115 113.326 52.5507 112.749 52.5507 112.146C52.5507 111.544 52.3115 110.967 51.8857 110.541C51.4599 110.115 50.8824 109.876 50.2802 109.876H48.0102V107.604C48.0102 107.002 47.771 106.424 47.3452 105.999C46.9194 105.573 46.3419 105.333 45.7397 105.333C45.1375 105.333 44.56 105.573 44.1342 105.999C43.7084 106.424 43.4692 107.002 43.4692 107.604V109.874H41.1992C40.597 109.874 40.0195 110.113 39.5937 110.539C39.1679 110.965 38.9287 111.542 38.9287 112.144C38.9287 112.747 39.1679 113.324 39.5937 113.75C40.0195 114.176 40.597 114.415 41.1992 114.415H43.4692V116.685C43.4689 116.983 43.5275 117.279 43.6415 117.555C43.7555 117.83 43.9228 118.081 44.1337 118.292C44.3446 118.503 44.5951 118.67 44.8708 118.784C45.1464 118.898 45.4419 118.957 45.7402 118.957Z" fill="#323232"/>
<path d="M77.431 108.662C77.7557 107.451 77.0372 106.206 75.8263 105.882C74.6154 105.557 73.3705 106.275 73.0459 107.486C72.7212 108.697 73.4396 109.942 74.6506 110.267C75.8615 110.591 77.1063 109.873 77.431 108.662Z" fill="#323232"/>
<path d="M69.5648 113.205C69.8894 111.994 69.171 110.749 67.9601 110.425C66.7492 110.1 65.5043 110.818 65.1797 112.029C64.855 113.24 65.5734 114.485 66.7844 114.81C67.9953 115.134 69.2401 114.416 69.5648 113.205Z" fill="#323232"/>
<path d="M73.5527 114.261C73.1638 114.485 72.8501 114.82 72.6514 115.223C72.4527 115.625 72.3778 116.078 72.4363 116.523C72.4948 116.968 72.6841 117.386 72.9801 117.724C73.2761 118.061 73.6655 118.304 74.0992 118.42C74.5329 118.536 74.9914 118.521 75.4166 118.377C75.8418 118.233 76.2146 117.965 76.4879 117.609C76.7613 117.253 76.9228 116.824 76.9521 116.376C76.9815 115.928 76.8773 115.481 76.6527 115.092C76.3517 114.571 75.8561 114.191 75.2747 114.035C74.6934 113.879 74.074 113.96 73.5527 114.261Z" fill="#323232"/>
<path d="M116.123 0.89502H2.60203C1.99999 0.89502 1.42261 1.13418 0.996899 1.55989C0.571191 1.98559 0.332031 2.56298 0.332031 3.16502V20.195C0.332031 20.7972 0.571244 21.3747 0.997046 21.8005C1.42285 22.2263 2.00036 22.4655 2.60253 22.4655C3.20471 22.4655 3.78222 22.2263 4.20802 21.8005C4.63382 21.3747 4.87303 20.7972 4.87303 20.195V5.43602H113.853V53.855C113.853 54.4572 114.092 55.0347 114.518 55.4605C114.944 55.8863 115.521 56.1255 116.124 56.1255C116.726 56.1255 117.303 55.8863 117.729 55.4605C118.155 55.0347 118.394 54.4572 118.394 53.855V3.16502C118.394 2.86683 118.335 2.57157 118.221 2.2961C118.107 2.02062 117.94 1.77034 117.729 1.55953C117.518 1.34873 117.268 1.18155 116.992 1.06753C116.716 0.953507 116.421 0.894888 116.123 0.89502Z" fill="#323232"/>
<path d="M116.123 59.9259C115.521 59.9259 114.944 60.1651 114.518 60.5908C114.092 61.0165 113.853 61.5939 113.853 62.1959V69.0069H51.566L45.74 59.2959V37.2219C45.74 36.6199 45.5009 36.0425 45.0752 35.6168C44.6495 35.1911 44.0721 34.9519 43.47 34.9519H38.932C38.0375 34.9519 37.1518 35.1281 36.3254 35.4704C35.499 35.8127 34.7481 36.3145 34.1156 36.947C33.4831 37.5795 32.9813 38.3304 32.639 39.1568C32.2967 39.9832 32.1205 40.8689 32.1205 41.7634C32.1205 42.6579 32.2967 43.5437 32.639 44.3701C32.9813 45.1965 33.4831 45.9474 34.1156 46.5799C34.7481 47.2124 35.499 47.7141 36.3254 48.0564C37.1518 48.3987 38.0375 48.5749 38.932 48.5749H41.202V59.2969L35.376 69.0079H4.87603V28.1399C4.87603 27.5373 4.63666 26.9595 4.21058 26.5334C3.7845 26.1073 3.2066 25.8679 2.60403 25.8679C2.00146 25.8679 1.42357 26.1073 0.997485 26.5334C0.571402 26.9595 0.332031 27.5373 0.332031 28.1399V71.2779C0.332031 71.88 0.571191 72.4573 0.996899 72.8831C1.42261 73.3088 1.99999 73.5479 2.60203 73.5479H57.092V75.8179C57.092 76.42 56.8529 76.9973 56.4272 77.423C56.0015 77.8488 55.4241 78.0879 54.822 78.0879H43.47C41.6635 78.0879 39.931 78.8056 38.6536 80.083C37.3762 81.3604 36.6585 83.0929 36.6585 84.8994C36.6585 86.7059 37.3762 88.4385 38.6536 89.7159C39.931 90.9933 41.6635 91.7109 43.47 91.7109H54.822C55.4241 91.7109 56.0015 91.9501 56.4272 92.3758C56.8529 92.8015 57.092 93.3789 57.092 93.9809V96.2509H44.605C44.367 96.2514 44.1306 96.2906 43.905 96.3669C40.0423 96.8342 36.4828 98.695 33.8946 101.6C31.3063 104.505 29.8671 108.255 29.847 112.146V128.039C29.8344 129.24 30.06 130.431 30.5108 131.544C30.9615 132.656 31.6284 133.669 32.473 134.522C33.3175 135.376 34.3229 136.053 35.431 136.516C36.5391 136.978 37.7278 137.216 38.9285 137.216C40.1292 137.216 41.318 136.978 42.4261 136.516C43.5341 136.053 44.5395 135.376 45.3841 134.522C46.2286 133.669 46.8956 132.656 47.3463 131.544C47.797 130.431 48.0226 129.24 48.01 128.039V127.87C51.3416 127.381 54.4326 125.849 56.84 123.495H61.885C64.2924 125.849 67.3835 127.381 70.715 127.87V128.036C70.7024 129.237 70.928 130.428 71.3788 131.541C71.8295 132.653 72.4964 133.666 73.341 134.519C74.1855 135.373 75.1909 136.05 76.299 136.513C77.4071 136.975 78.5958 137.213 79.7965 137.213C80.9972 137.213 82.186 136.975 83.2941 136.513C84.4021 136.05 85.4075 135.373 86.2521 134.519C87.0966 133.666 87.7636 132.653 88.2143 131.541C88.665 130.428 88.8906 129.237 88.878 128.036V121.225C88.878 120.623 88.6388 120.045 88.213 119.619C87.7872 119.194 87.2097 118.954 86.6075 118.954C86.0054 118.954 85.4278 119.194 85.002 119.619C84.5762 120.045 84.337 120.623 84.337 121.225V128.036C84.337 129.24 83.8586 130.395 83.007 131.247C82.1554 132.098 81.0004 132.577 79.796 132.577C78.5917 132.577 77.4367 132.098 76.5851 131.247C75.7335 130.395 75.255 129.24 75.255 128.036V125.77C75.255 125.168 75.0159 124.59 74.5902 124.165C74.1645 123.739 73.5871 123.5 72.985 123.5C71.3907 123.496 69.815 123.157 68.3603 122.504C66.9056 121.852 65.6043 120.901 64.541 119.713C64.3282 119.476 64.0678 119.286 63.7768 119.156C63.4858 119.026 63.1707 118.959 62.852 118.959H55.873C55.5544 118.959 55.2394 119.026 54.9484 119.156C54.6574 119.285 54.397 119.475 54.184 119.712C53.1207 120.9 51.8195 121.851 50.3647 122.503C48.91 123.156 47.3344 123.495 45.74 123.499C45.138 123.499 44.5606 123.738 44.1349 124.164C43.7092 124.589 43.47 125.167 43.47 125.769V128.039C43.47 129.243 42.9916 130.398 42.14 131.25C41.2884 132.101 40.1334 132.58 38.929 132.58C37.7247 132.58 36.5697 132.101 35.7181 131.25C34.8665 130.398 34.388 129.243 34.388 128.039V112.146C34.402 109.305 35.476 106.572 37.3998 104.482C39.3235 102.392 41.9583 101.095 44.788 100.846C44.8952 100.838 45.0015 100.821 45.106 100.796H73.606C73.713 100.821 73.8216 100.837 73.931 100.846C76.7608 101.095 79.3956 102.392 81.3193 104.482C83.243 106.572 84.3171 109.305 84.331 112.146C84.331 112.748 84.5702 113.326 84.996 113.751C85.4219 114.177 85.9994 114.416 86.6015 114.416C87.2037 114.416 87.7812 114.177 88.207 113.751C88.6328 113.326 88.872 112.748 88.872 112.146C88.8527 108.261 87.4183 104.516 84.8371 101.612C82.256 98.7083 78.7051 96.8446 74.849 96.3699C74.6142 96.2904 74.368 96.2498 74.12 96.2499H61.632V93.9799C61.6318 92.1739 60.9142 90.4419 59.6371 89.1648C58.3601 87.8878 56.6281 87.1702 54.822 87.1699H43.47C42.8679 87.1699 42.2903 86.9307 41.8645 86.5049C41.4387 86.0791 41.1995 85.5016 41.1995 84.8994C41.1995 84.2972 41.4387 83.7197 41.8645 83.2939C42.2903 82.8681 42.8679 82.6289 43.47 82.6289H54.822C56.6281 82.6287 58.3601 81.9111 59.6371 80.634C60.9142 79.357 61.6318 77.625 61.632 75.8189V73.5489H113.852V84.9009C113.852 85.503 113.613 86.0803 113.187 86.5061C112.761 86.9318 112.184 87.1709 111.582 87.1709H84.338C83.736 87.1709 83.1586 86.9318 82.7329 86.5061C82.3072 86.0803 82.068 85.503 82.068 84.9009V80.3599C82.068 79.7577 81.8288 79.1802 81.403 78.7544C80.9772 78.3286 80.3997 78.0894 79.7975 78.0894C79.1954 78.0894 78.6179 78.3286 78.192 78.7544C77.7662 79.1802 77.527 79.7577 77.527 80.3599V84.9009C77.527 86.7073 78.2446 88.4397 79.5219 89.717C80.7992 90.9943 82.5316 91.7119 84.338 91.7119H111.583C112.477 91.7119 113.363 91.5357 114.189 91.1935C115.016 90.8512 115.767 90.3495 116.399 89.717C117.032 89.0846 117.533 88.3337 117.876 87.5074C118.218 86.681 118.394 85.7953 118.394 84.9009V62.2009C118.394 61.9028 118.335 61.6076 118.221 61.3322C118.107 61.0568 117.94 60.8066 117.729 60.5958C117.518 60.385 117.268 60.2178 116.993 60.1037C116.717 59.9896 116.422 59.9309 116.124 59.9309L116.123 59.9259ZM36.659 41.7629C36.659 41.1609 36.8982 40.5835 37.3239 40.1578C37.7496 39.7321 38.327 39.4929 38.929 39.4929H41.199V44.0339H38.932C38.6336 44.0343 38.338 43.9759 38.0622 43.8619C37.7864 43.7479 37.5357 43.5807 37.3246 43.3698C37.1135 43.1588 36.946 42.9083 36.8318 42.6326C36.7176 42.3569 36.6589 42.0614 36.659 41.7629ZM40.671 69.0079L43.396 64.4539C43.421 64.4539 43.439 64.4679 43.464 64.4679C43.489 64.4679 43.507 64.4539 43.532 64.4539L46.27 69.0079H40.671Z" fill="#323232"/>
<path d="M50.2812 41.762C50.2812 42.3641 50.5204 42.9415 50.9461 43.3672C51.3718 43.7929 51.9492 44.032 52.5513 44.032H55.6613C66.2899 44.0124 76.6552 47.3381 85.2882 53.538C85.7781 53.8885 86.3871 54.03 86.9813 53.9315C87.5755 53.8329 88.1063 53.5024 88.4567 53.0125C88.8072 52.5227 88.9488 51.9137 88.8502 51.3194C88.7517 50.7252 88.4211 50.1945 87.9313 49.844C78.5273 43.0935 67.2382 39.4719 55.6623 39.492H52.5513C51.9492 39.492 51.3718 39.7312 50.9461 40.1569C50.5204 40.5826 50.2812 41.16 50.2812 41.762Z" fill="#323232"/>
<path d="M23.7009 61.531C24.1266 61.9566 24.7039 62.1957 25.3059 62.1957C25.9079 62.1957 26.4852 61.9566 26.9109 61.531L33.7219 54.72C33.9327 54.5092 34.1 54.2589 34.2141 53.9834C34.3282 53.7079 34.3869 53.4127 34.3869 53.1145C34.3869 52.8163 34.3282 52.5211 34.2141 52.2456C34.1 51.9702 33.9327 51.7199 33.7219 51.509C33.5111 51.2982 33.2608 51.1309 32.9853 51.0168C32.7098 50.9027 32.4146 50.844 32.1164 50.844C31.8182 50.844 31.523 50.9027 31.2475 51.0168C30.972 51.1309 30.7217 51.2982 30.5109 51.509L23.6999 58.321C23.2743 58.7467 23.0352 59.324 23.0352 59.926C23.0352 60.528 23.2743 61.1053 23.6999 61.531H23.7009Z" fill="#323232"/>
<path d="M25.9721 44.698L23.7021 46.968C23.4913 47.1788 23.324 47.4291 23.2099 47.7046C23.0958 47.9801 23.0371 48.2753 23.0371 48.5735C23.0371 49.1757 23.2763 49.7532 23.7021 50.179C24.1279 50.6048 24.7054 50.844 25.3076 50.844C25.9098 50.844 26.4873 50.6048 26.9131 50.179L29.1831 47.908C29.394 47.6972 29.5612 47.4469 29.6753 47.1714C29.7894 46.8959 29.8481 46.6007 29.8481 46.3025C29.8481 46.0043 29.7894 45.7091 29.6753 45.4336C29.5612 45.1581 29.394 44.9078 29.1831 44.697C28.9723 44.4862 28.722 44.3189 28.4465 44.2048C28.171 44.0907 27.8758 44.032 27.5776 44.032C27.2795 44.032 26.9842 44.0907 26.7087 44.2048C26.4333 44.3189 26.183 44.4862 25.9721 44.697V44.698Z" fill="#323232"/>
<path d="M95.6889 53.115C94.3418 53.115 93.025 53.5144 91.9049 54.2628C90.7849 55.0113 89.9119 56.075 89.3964 57.3195C88.8809 58.5641 88.746 59.9335 89.0088 61.2547C89.2716 62.576 89.9203 63.7896 90.8728 64.7421C91.8254 65.6946 93.039 66.3433 94.3602 66.6061C95.6814 66.8689 97.0508 66.734 98.2954 66.2185C99.5399 65.703 100.604 64.83 101.352 63.71C102.1 62.5899 102.5 61.2731 102.5 59.926C102.5 58.1196 101.782 56.3872 100.505 55.1099C99.2277 53.8326 97.4953 53.115 95.6889 53.115ZM95.6889 62.197C95.24 62.197 94.8011 62.0639 94.4278 61.8144C94.0545 61.565 93.7635 61.2105 93.5917 60.7957C93.4199 60.3809 93.375 59.9245 93.4626 59.4841C93.5501 59.0438 93.7663 58.6393 94.0838 58.3219C94.4013 58.0044 94.8057 57.7882 95.2461 57.7006C95.6864 57.613 96.1428 57.658 96.5576 57.8298C96.9724 58.0016 97.3269 58.2925 97.5764 58.6658C97.8258 59.0391 97.9589 59.478 97.9589 59.927C97.9589 60.529 97.7198 61.1064 97.2941 61.5321C96.8684 61.9578 96.291 62.197 95.6889 62.197Z" fill="#323232"/>
<path d="M88.8784 9.97705C88.5803 9.97705 88.2851 10.0358 88.0097 10.1498C87.7343 10.2639 87.4841 10.4311 87.2733 10.6419C87.0625 10.8527 86.8953 11.103 86.7812 11.3784C86.6671 11.6538 86.6084 11.949 86.6084 12.2471V28.1401C86.6084 28.4382 86.6671 28.7333 86.7812 29.0087C86.8953 29.2842 87.0625 29.5344 87.2733 29.7452C87.4841 29.956 87.7343 30.1232 88.0097 30.2373C88.2851 30.3513 88.5803 30.4101 88.8784 30.4101H107.042C107.645 30.4101 108.222 30.1708 108.648 29.745C109.074 29.3192 109.313 28.7417 109.313 28.1396C109.313 27.5374 109.074 26.9599 108.648 26.5341C108.222 26.1083 107.645 25.8691 107.042 25.8691H93.9014C95.3814 23.7594 97.349 22.0385 99.637 20.8527C101.925 19.6668 104.465 19.0512 107.042 19.0581C107.645 19.0581 108.222 18.8188 108.648 18.393C109.074 17.9672 109.313 17.3897 109.313 16.7876C109.313 16.1854 109.074 15.6079 108.648 15.1821C108.222 14.7563 107.645 14.5171 107.042 14.5171C104 14.5127 100.995 15.1866 98.2456 16.4896C95.4964 17.7927 93.0722 19.6923 91.1494 22.0501V12.2471C91.1494 11.9489 91.0906 11.6536 90.9765 11.3781C90.8624 11.1027 90.6951 10.8524 90.4842 10.6416C90.2733 10.4308 90.0229 10.2636 89.7474 10.1496C89.4719 10.0355 89.1766 9.97692 88.8784 9.97705Z" fill="#323232"/>
<path d="M10.0788 25.2041C10.5045 25.6297 11.0818 25.8688 11.6838 25.8688C12.2858 25.8688 12.8631 25.6297 13.2888 25.2041L16.2248 22.2681L19.1608 25.2041C19.3717 25.415 19.622 25.5822 19.8974 25.6963C20.1729 25.8104 20.4682 25.8691 20.7663 25.8691C21.0645 25.8691 21.3597 25.8104 21.6352 25.6963C21.9107 25.5822 22.161 25.415 22.3718 25.2041C22.5827 24.9933 22.7499 24.743 22.864 24.4675C22.9781 24.192 23.0368 23.8968 23.0368 23.5986C23.0368 23.3004 22.9781 23.0052 22.864 22.7297C22.7499 22.4543 22.5827 22.204 22.3718 21.9931L19.4358 19.0581L22.3718 16.1221C22.5827 15.9113 22.7499 15.661 22.864 15.3855C22.9781 15.11 23.0368 14.8148 23.0368 14.5166C23.0368 14.2184 22.9781 13.9232 22.864 13.6477C22.7499 13.3723 22.5827 13.122 22.3718 12.9111C22.161 12.7003 21.9107 12.533 21.6352 12.4189C21.3597 12.3048 21.0645 12.2461 20.7663 12.2461C20.4682 12.2461 20.1729 12.3048 19.8974 12.4189C19.622 12.533 19.3717 12.7003 19.1608 12.9111L16.2248 15.8471L13.2898 12.9121C12.864 12.4863 12.2865 12.2471 11.6843 12.2471C11.0821 12.2471 10.5046 12.4863 10.0788 12.9121C9.65302 13.3379 9.4138 13.9154 9.4138 14.5176C9.4138 15.1198 9.65302 15.6973 10.0788 16.1231L13.0138 19.0581L10.0778 21.9941C9.65219 22.4198 9.41309 22.9971 9.41309 23.5991C9.41309 24.2011 9.65219 24.7784 10.0778 25.2041H10.0788Z" fill="#323232"/>
<path d="M40.972 25.416C41.2105 25.5951 41.4819 25.7253 41.7708 25.7994C42.0597 25.8735 42.3603 25.8899 42.6555 25.8477C42.9507 25.8056 43.2348 25.7056 43.4914 25.5537C43.748 25.4017 43.9721 25.2007 44.151 24.962L50.964 15.88C51.3253 15.3983 51.4805 14.7927 51.3954 14.1965C51.3102 13.6003 50.9917 13.0624 50.51 12.701C50.0282 12.3397 49.4226 12.1845 48.8264 12.2696C48.2303 12.3548 47.6923 12.6733 47.331 13.155L45.742 15.273L44.151 13.155C43.972 12.9165 43.7479 12.7155 43.4913 12.5636C43.2347 12.4117 42.9507 12.3118 42.6555 12.2696C42.3603 12.2275 42.0597 12.2439 41.7708 12.3179C41.482 12.3919 41.2105 12.5221 40.972 12.701C40.4902 13.0624 40.1717 13.6003 40.0866 14.1965C40.0014 14.7927 40.1566 15.3983 40.518 15.88L42.902 19.059L40.518 22.237C40.3389 22.4755 40.2087 22.747 40.1346 23.0359C40.0605 23.3247 40.0441 23.6254 40.0863 23.9206C40.1284 24.2158 40.2284 24.4998 40.3803 24.7564C40.5323 25.013 40.7333 25.2372 40.972 25.416Z" fill="#323232"/>
<path d="M78.4343 13.5031C78.245 13.1239 77.9533 12.8053 77.5922 12.5833C77.2312 12.3613 76.8152 12.2449 76.3913 12.2471H69.5793C69.2812 12.2471 68.9859 12.3058 68.7105 12.4199C68.435 12.534 68.1847 12.7013 67.9739 12.9121C67.763 13.123 67.5958 13.3732 67.4817 13.6487C67.3676 13.9242 67.3088 14.2194 67.3088 14.5176C67.3088 14.8158 67.3676 15.111 67.4817 15.3865C67.5958 15.662 67.763 15.9123 67.9739 16.1231C68.1847 16.3339 68.435 16.5012 68.7105 16.6153C68.9859 16.7294 69.2812 16.7881 69.5793 16.7881H71.8493L67.7633 22.2371C67.5101 22.5744 67.3558 22.9755 67.3178 23.3955C67.2798 23.8155 67.3596 24.2378 67.5481 24.6151C67.7367 24.9923 68.0266 25.3095 68.3854 25.5312C68.7442 25.7529 69.1576 25.8702 69.5793 25.8701H76.3903C76.9925 25.8701 77.57 25.6309 77.9958 25.2051C78.4216 24.7793 78.6608 24.2018 78.6608 23.5996C78.6608 22.9974 78.4216 22.4199 77.9958 21.9941C77.57 21.5683 76.9925 21.3291 76.3903 21.3291H74.1203L78.2093 15.8801C78.4643 15.5441 78.6205 15.1437 78.6606 14.7239C78.7007 14.304 78.6231 13.8813 78.4363 13.5031H78.4343Z" fill="#323232"/>
<path d="M29.8467 17.9231H34.3877C34.9898 17.9231 35.5674 17.6839 35.9932 17.2581C36.419 16.8323 36.6582 16.2548 36.6582 15.6526C36.6582 15.0504 36.419 14.4729 35.9932 14.0471C35.5674 13.6213 34.9898 13.3821 34.3877 13.3821H29.8467C29.2445 13.3821 28.667 13.6213 28.2412 14.0471C27.8154 14.4729 27.5762 15.0504 27.5762 15.6526C27.5762 16.2548 27.8154 16.8323 28.2412 17.2581C28.667 17.6839 29.2445 17.9231 29.8467 17.9231Z" fill="#323232"/>
<path d="M59.363 13.3821C58.761 13.3821 58.1836 13.6212 57.7579 14.0469C57.3322 14.4727 57.093 15.05 57.093 15.6521V16.7871H55.957C55.3548 16.7871 54.7773 17.0263 54.3515 17.4521C53.9257 17.8779 53.6865 18.4554 53.6865 19.0576C53.6865 19.6598 53.9257 20.2373 54.3515 20.6631C54.7773 21.0889 55.3548 21.3281 55.957 21.3281H57.092V22.4631C57.092 23.0653 57.3312 23.6428 57.757 24.0686C58.1828 24.4944 58.7603 24.7336 59.3625 24.7336C59.9647 24.7336 60.5422 24.4944 60.968 24.0686C61.3938 23.6428 61.633 23.0653 61.633 22.4631V21.3281H62.768C63.3702 21.3281 63.9477 21.0889 64.3735 20.6631C64.7993 20.2373 65.0385 19.6598 65.0385 19.0576C65.0385 18.4554 64.7993 17.8779 64.3735 17.4521C63.9477 17.0263 63.3702 16.7871 62.768 16.7871H61.633V15.6521C61.633 15.05 61.3939 14.4727 60.9682 14.0469C60.5424 13.6212 59.9651 13.3821 59.363 13.3821Z" fill="#323232"/>
<path d="M29.8467 24.7351H34.3877C34.9898 24.7351 35.5674 24.4959 35.9932 24.0701C36.419 23.6443 36.6582 23.0668 36.6582 22.4646C36.6582 21.8624 36.419 21.2849 35.9932 20.8591C35.5674 20.4333 34.9898 20.1941 34.3877 20.1941H29.8467C29.2445 20.1941 28.667 20.4333 28.2412 20.8591C27.8154 21.2849 27.5762 21.8624 27.5762 22.4646C27.5762 23.0668 27.8154 23.6443 28.2412 24.0701C28.667 24.4959 29.2445 24.7351 29.8467 24.7351Z" fill="#323232"/>
<path d="M107.042 34.9509H97.96C97.3578 34.9509 96.7803 35.1901 96.3545 35.6159C95.9287 36.0417 95.6895 36.6193 95.6895 37.2214C95.6895 37.8236 95.9287 38.4011 96.3545 38.8269C96.7803 39.2527 97.3578 39.4919 97.96 39.4919H107.042C107.644 39.4919 108.222 39.2527 108.647 38.8269C109.073 38.4011 109.312 37.8236 109.312 37.2214C109.312 36.6193 109.073 36.0417 108.647 35.6159C108.222 35.1901 107.644 34.9509 107.042 34.9509Z" fill="#323232"/>
<path d="M107.042 48.574C107.644 48.574 108.222 48.3347 108.647 47.9089C109.073 47.4831 109.312 46.9056 109.312 46.3035C109.312 45.7013 109.073 45.1238 108.647 44.698C108.222 44.2722 107.644 44.033 107.042 44.033H102.501C101.899 44.033 101.321 44.2722 100.895 44.698C100.47 45.1238 100.23 45.7013 100.23 46.3035C100.23 46.9056 100.47 47.4831 100.895 47.9089C101.321 48.3347 101.899 48.574 102.501 48.574H107.042Z" fill="#323232"/>
<path d="M88.4612 82.4C89.7337 82.4 90.7652 81.3685 90.7652 80.096C90.7652 78.8235 89.7337 77.792 88.4612 77.792C87.1888 77.792 86.1572 78.8235 86.1572 80.096C86.1572 81.3685 87.1888 82.4 88.4612 82.4Z" fill="#323232"/>
<path d="M107.042 82.6301C107.644 82.6301 108.222 82.3909 108.647 81.9651C109.073 81.5393 109.312 80.9618 109.312 80.3596C109.312 79.7574 109.073 79.1799 108.647 78.7541C108.222 78.3283 107.644 78.0891 107.042 78.0891H97.96C97.3578 78.0891 96.7803 78.3283 96.3545 78.7541C95.9287 79.1799 95.6895 79.7574 95.6895 80.3596C95.6895 80.9618 95.9287 81.5393 96.3545 81.9651C96.7803 82.3909 97.3578 82.6301 97.96 82.6301H107.042Z" fill="#323232"/>
</svg>
