<svg width="103" height="106" viewBox="0 0 103 106" fill="none" xmlns="http://www.w3.org/2000/svg">
<path d="M66.8528 29.967H64.2738C62.0896 29.967 60.3188 31.7378 60.3188 33.922C60.3188 36.1063 62.0896 37.877 64.2738 37.877H66.8528C69.0371 37.877 70.8078 36.1063 70.8078 33.922C70.8078 31.7378 69.0371 29.967 66.8528 29.967Z" fill="#F8AF23"/>
<path d="M52.1969 28.6179H50.7849C49.5367 28.6179 48.5249 29.6298 48.5249 30.8779C48.5249 32.1261 49.5367 33.1379 50.7849 33.1379H52.1969C53.4451 33.1379 54.4569 32.1261 54.4569 30.8779C54.4569 29.6298 53.4451 28.6179 52.1969 28.6179Z" fill="#9E9E9E"/>
<path d="M54.7389 30.8779H48.2419C46.9938 30.8779 45.9819 31.8898 45.9819 33.1379C45.9819 34.3861 46.9938 35.3979 48.2419 35.3979H54.7389C55.9871 35.3979 56.9989 34.3861 56.9989 33.1379C56.9989 31.8898 55.9871 30.8779 54.7389 30.8779Z" fill="#9E9E9E"/>
<path d="M38.7069 29.967H36.1279C33.9436 29.967 32.1729 31.7378 32.1729 33.922C32.1729 36.1063 33.9436 37.877 36.1279 37.877H38.7069C40.8911 37.877 42.6619 36.1063 42.6619 33.922C42.6619 31.7378 40.8911 29.967 38.7069 29.967Z" fill="#F8AF23"/>
<path d="M36.1988 34.6201V33.2201C36.1988 32.3608 36.5386 31.5363 37.144 30.9265C37.7495 30.3168 38.5715 29.9712 39.4308 29.9651H35.4308C34.5673 29.9651 33.7391 30.3081 33.1285 30.9187C32.5178 31.5294 32.1748 32.3575 32.1748 33.2211V34.6211C32.1751 35.4845 32.5182 36.3124 33.1288 36.9228C33.7394 37.5332 34.5674 37.8761 35.4308 37.8761H39.4308C38.5714 37.8697 37.7494 37.5239 37.144 36.914C36.5385 36.304 36.1988 35.4795 36.1988 34.6201Z" fill="#F87023"/>
<path d="M66.7828 34.6201V33.2201C66.7828 32.3608 66.443 31.5363 65.8376 30.9265C65.2321 30.3168 64.4101 29.9712 63.5508 29.9651H67.5508C68.4143 29.9651 69.2425 30.3081 69.8531 30.9187C70.4637 31.5294 70.8068 32.3575 70.8068 33.2211V34.6211C70.8065 35.4845 70.4634 36.3124 69.8528 36.9228C69.2422 37.5332 68.4142 37.8761 67.5508 37.8761H63.5508C64.4102 37.8697 65.2322 37.5239 65.8376 36.914C66.4431 36.304 66.7828 35.4795 66.7828 34.6201Z" fill="#F8D323"/>
<path d="M71.0348 33.9221H31.9468C29.4752 33.9221 27.1049 34.9039 25.3572 36.6516C23.6096 38.3992 22.6278 40.7696 22.6278 43.2411V68.1411C22.6081 70.4861 23.4766 72.7516 25.0588 74.4825C26.6409 76.2134 28.8195 77.2815 31.1568 77.4721C33.2686 77.6154 35.3647 77.0219 37.0881 75.7929C38.8114 74.5639 40.0553 72.7754 40.6078 70.7321L42.7348 62.8671H60.2468L62.3158 70.5191C62.8278 72.4867 63.969 74.233 65.5654 75.4921C67.1618 76.7511 69.126 77.4538 71.1588 77.4931C72.3641 77.4992 73.5587 77.267 74.6741 76.8099C75.7894 76.3529 76.8034 75.6799 77.6578 74.8298C78.5123 73.9796 79.1903 72.969 79.653 71.8559C80.1156 70.7429 80.3538 69.5495 80.3538 68.3441V43.2441C80.3542 42.0201 80.1134 40.808 79.6453 39.677C79.1771 38.546 78.4907 37.5183 77.6254 36.6526C76.76 35.787 75.7325 35.1003 74.6017 34.6318C73.4709 34.1633 72.2588 33.9221 71.0348 33.9221Z" fill="#63BCE7"/>
<path d="M26.6518 68.136V43.236C26.6518 40.7644 27.6336 38.3941 29.3812 36.6465C31.1289 34.8988 33.4992 33.917 35.9708 33.917H31.9468C29.4752 33.917 27.1049 34.8988 25.3572 36.6465C23.6096 38.3941 22.6278 40.7644 22.6278 43.236V68.136C22.6081 70.4809 23.4766 72.7465 25.0588 74.4774C26.6409 76.2083 28.8195 77.2764 31.1568 77.467C32.0437 77.5249 32.9344 77.4535 33.8008 77.255C31.7562 76.7628 29.9378 75.5943 28.6405 73.9391C27.3432 72.2839 26.6431 70.239 26.6538 68.136H26.6518Z" fill="#6377E7"/>
<path d="M76.3288 68.136V43.236C76.3288 40.7644 75.3469 38.3941 73.5993 36.6465C71.8516 34.8988 69.4813 33.917 67.0098 33.917H71.0348C73.5063 33.917 75.8766 34.8988 77.6243 36.6465C79.3719 38.3941 80.3538 40.7644 80.3538 43.236V68.136C80.3875 69.5269 80.1028 70.9072 79.5215 72.1713C78.9402 73.4354 78.0776 74.5499 76.9996 75.4296C75.9217 76.3094 74.657 76.9311 73.302 77.2473C71.947 77.5635 70.5377 77.5658 69.1818 77.254C71.2262 76.7618 73.0444 75.5935 74.3417 73.9385C75.639 72.2835 76.3392 70.2388 76.3288 68.136Z" fill="#63E2E7"/>
<path d="M22.6271 43.73V59.176L25.6671 55.609C25.9681 55.2559 26.3357 54.9655 26.7489 54.7544C27.1621 54.5433 27.6128 54.4157 28.0754 54.3789C28.5379 54.342 29.0032 54.3966 29.4446 54.5396C29.886 54.6825 30.295 54.911 30.6481 55.212C31.0012 55.513 31.2916 55.8806 31.5027 56.2938C31.7137 56.707 31.8413 57.1577 31.8782 57.6203C31.9151 58.0828 31.8605 58.548 31.7175 58.9895C31.5746 59.4309 31.3461 59.8399 31.0451 60.193L24.1291 68.307C24.1291 68.307 26.1931 77.019 20.7521 81.996H5.37109L6.73509 63.282C7.01884 61.6067 7.82903 60.0655 9.04809 58.882L22.6271 43.73Z" fill="#F8AF23"/>
<path d="M13.0711 58.885L22.6271 48.222V43.731L9.04614 58.885C7.82691 60.0684 7.01669 61.6097 6.73314 63.285L5.36914 81.9959H9.39414L10.7581 63.282C11.0421 61.6077 11.8523 60.0675 13.0711 58.885Z" fill="#F87023"/>
<path d="M27.5562 93.1001H0.635153V82.0001H27.5562V93.1001Z" fill="#9E9E9E"/>
<path d="M0.63623 81.9961H4.65723V93.0961H0.63623V81.9961Z" fill="#707070"/>
<path d="M25.9609 99.8569H2.23094V93.0989H25.9609V99.8569Z" fill="#63BCE7"/>
<path d="M2.22998 93.1001H6.25498V99.8581H2.22998V93.1001Z" fill="#6377E7"/>
<path d="M80.355 43.73V59.176L77.315 55.609C77.0141 55.2559 76.6465 54.9655 76.2332 54.7544C75.82 54.5433 75.3693 54.4157 74.9068 54.3789C74.4442 54.342 73.979 54.3966 73.5376 54.5396C73.0961 54.6825 72.6872 54.911 72.334 55.212C71.9809 55.513 71.6905 55.8806 71.4795 56.2938C71.2684 56.707 71.1408 57.1577 71.1039 57.6203C71.0671 58.0828 71.1217 58.548 71.2646 58.9895C71.4076 59.4309 71.6361 59.8399 71.937 60.193L78.853 68.307C78.853 68.307 76.789 77.019 82.23 81.996H97.611L96.247 63.282C95.9633 61.6067 95.1531 60.0655 93.934 58.882L80.355 43.73Z" fill="#F8AF23"/>
<path d="M96.249 63.283C95.9652 61.6078 95.1551 60.0665 93.936 58.883L80.355 43.73V48.221L89.911 58.884C91.1302 60.0674 91.9404 61.6087 92.224 63.284L93.588 81.998H97.613L96.249 63.283Z" fill="#F8D323"/>
<path d="M75.4248 81.9971H102.346V93.0971H75.4248V81.9971Z" fill="#9E9E9E"/>
<path d="M98.3208 81.9961H102.346V93.0961H98.3208V81.9961Z" fill="#CECECE"/>
<path d="M77.021 93.1001H100.751V99.8581H77.021V93.1001Z" fill="#63BCE7"/>
<path d="M96.7261 93.1001H100.751V99.8581H96.7261V93.1001Z" fill="#63E2E7"/>
<path d="M36.8512 47.2851H35.6782C35.5456 47.2851 35.4184 47.2324 35.3247 47.1386C35.2309 47.0449 35.1782 46.9177 35.1782 46.7851V45.6111C35.1782 45.4785 35.1255 45.3513 35.0318 45.2575C34.938 45.1638 34.8108 45.1111 34.6782 45.1111H31.5782C31.4456 45.1111 31.3184 45.1638 31.2246 45.2575C31.1309 45.3513 31.0782 45.4785 31.0782 45.6111V46.7851C31.0782 46.9177 31.0255 47.0449 30.9318 47.1386C30.838 47.2324 30.7108 47.2851 30.5782 47.2851H29.3872C29.2546 47.2851 29.1274 47.3378 29.0337 47.4315C28.9399 47.5253 28.8872 47.6525 28.8872 47.7851V50.8851C28.8872 51.0177 28.9399 51.1449 29.0337 51.2386C29.1274 51.3324 29.2546 51.3851 29.3872 51.3851H30.5592C30.6918 51.3851 30.819 51.4378 30.9128 51.5315C31.0065 51.6253 31.0592 51.7525 31.0592 51.8851V53.0591C31.0592 53.1917 31.1119 53.3189 31.2057 53.4126C31.2994 53.5064 31.4266 53.5591 31.5592 53.5591H34.6592C34.7918 53.5591 34.919 53.5064 35.0128 53.4126C35.1065 53.3189 35.1592 53.1917 35.1592 53.0591V51.8851C35.1592 51.7525 35.2119 51.6253 35.3056 51.5315C35.3994 51.4378 35.5266 51.3851 35.6592 51.3851H36.8332C36.9658 51.3851 37.093 51.3324 37.1868 51.2386C37.2805 51.1449 37.3332 51.0177 37.3332 50.8851V47.7851C37.3339 47.7185 37.3212 47.6524 37.296 47.5908C37.2708 47.5292 37.2336 47.4732 37.1864 47.4261C37.1393 47.3791 37.0832 47.3419 37.0216 47.3169C36.9599 47.2918 36.8938 47.2793 36.8272 47.2801L36.8512 47.2851Z" fill="#F46275"/>
<path d="M63.7689 51.334C64.8707 51.334 65.7639 50.4408 65.7639 49.339C65.7639 48.2372 64.8707 47.344 63.7689 47.344C62.6671 47.344 61.7739 48.2372 61.7739 49.339C61.7739 50.4408 62.6671 51.334 63.7689 51.334Z" fill="#F46275"/>
<path d="M72.1049 51.334C73.2067 51.334 74.0999 50.4408 74.0999 49.339C74.0999 48.2372 73.2067 47.344 72.1049 47.344C71.0031 47.344 70.1099 48.2372 70.1099 49.339C70.1099 50.4408 71.0031 51.334 72.1049 51.334Z" fill="#F46275"/>
<path d="M67.9369 47.167C69.0387 47.167 69.9319 46.2738 69.9319 45.172C69.9319 44.0702 69.0387 43.177 67.9369 43.177C66.8351 43.177 65.9419 44.0702 65.9419 45.172C65.9419 46.2738 66.8351 47.167 67.9369 47.167Z" fill="#F46275"/>
<path d="M67.9369 55.502C69.0387 55.502 69.9319 54.6088 69.9319 53.507C69.9319 52.4052 69.0387 51.512 67.9369 51.512C66.8351 51.512 65.9419 52.4052 65.9419 53.507C65.9419 54.6088 66.8351 55.502 67.9369 55.502Z" fill="#F46275"/>
<path d="M47.8471 51.512H44.9671C44.3971 51.512 43.9351 51.974 43.9351 52.544C43.9351 53.1139 44.3971 53.576 44.9671 53.576H47.8471C48.417 53.576 48.8791 53.1139 48.8791 52.544C48.8791 51.974 48.417 51.512 47.8471 51.512Z" fill="#F8AF23"/>
<path d="M58.016 51.512H55.136C54.566 51.512 54.104 51.974 54.104 52.544C54.104 53.1139 54.566 53.576 55.136 53.576H58.016C58.586 53.576 59.048 53.1139 59.048 52.544C59.048 51.974 58.586 51.512 58.016 51.512Z" fill="#F8AF23"/>
<path d="M51.491 33.9221H37.418L39.259 36.6361C39.9267 37.6201 40.8252 38.4256 41.876 38.9823C42.9267 39.5391 44.0978 39.8301 45.287 39.8301H57.693C58.8821 39.8301 60.0532 39.5391 61.1039 38.9823C62.1547 38.4256 63.0532 37.6201 63.721 36.6361L65.562 33.9241L51.491 33.9221Z" fill="#9E9E9E"/>
<path d="M12.7181 34.1849C19.1798 34.1849 24.4181 28.9466 24.4181 22.4849C24.4181 16.0232 19.1798 10.7849 12.7181 10.7849C6.25633 10.7849 1.01807 16.0232 1.01807 22.4849C1.01807 28.9466 6.25633 34.1849 12.7181 34.1849Z" fill="#F46275"/>
<path d="M5.04121 22.4851C5.04185 19.7314 6.01372 17.0662 7.78579 14.9585C9.55786 12.8508 12.0166 11.4356 14.7292 10.9621C13.0476 10.668 11.322 10.7453 9.67349 11.1889C8.02497 11.6324 6.49348 12.4313 5.18648 13.5295C3.87949 14.6277 2.82865 15.9986 2.1077 17.5461C1.38676 19.0935 1.01318 20.78 1.01318 22.4871C1.01318 24.1942 1.38676 25.8807 2.1077 27.4281C2.82865 28.9756 3.87949 30.3465 5.18648 31.4447C6.49348 32.5429 8.02497 33.3418 9.67349 33.7853C11.322 34.2289 13.0476 34.3063 14.7292 34.0121C12.0159 33.5385 9.55665 32.1227 7.7845 30.0142C6.01235 27.9056 5.04091 25.2395 5.04121 22.4851Z" fill="#F43075"/>
<path d="M51.491 24.035C57.9527 24.035 63.191 18.7967 63.191 12.335C63.191 5.87328 57.9527 0.63501 51.491 0.63501C45.0293 0.63501 39.791 5.87328 39.791 12.335C39.791 18.7967 45.0293 24.035 51.491 24.035Z" fill="#F8AF23"/>
<path d="M43.8162 12.3351C43.8155 9.58084 44.7866 6.91467 46.5584 4.80596C48.3301 2.69725 50.789 1.28119 53.5022 0.80708C51.8206 0.512923 50.095 0.59032 48.4464 1.03384C46.7979 1.47736 45.2664 2.27626 43.9594 3.37447C42.6524 4.47269 41.6016 5.84361 40.8807 7.39105C40.1597 8.93849 39.7861 10.6249 39.7861 12.3321C39.7861 14.0392 40.1597 15.7257 40.8807 17.2731C41.6016 18.8206 42.6524 20.1915 43.9594 21.2897C45.2664 22.3879 46.7979 23.1868 48.4464 23.6303C50.095 24.0738 51.8206 24.1512 53.5022 23.8571C50.7892 23.3835 48.3302 21.968 46.5581 19.8599C44.786 17.7518 43.8143 15.0861 43.8142 12.3321L43.8162 12.3351Z" fill="#F87023"/>
<path d="M90.263 34.1849C96.7247 34.1849 101.963 28.9466 101.963 22.4849C101.963 16.0232 96.7247 10.7849 90.263 10.7849C83.8013 10.7849 78.563 16.0232 78.563 22.4849C78.563 28.9466 83.8013 34.1849 90.263 34.1849Z" fill="#F46275"/>
<path d="M90.264 10.7849C89.5892 10.7857 88.9157 10.8446 88.251 10.9609C90.9632 11.4354 93.4213 12.8512 95.1926 14.9592C96.9639 17.0673 97.935 19.7325 97.935 22.4859C97.935 25.2393 96.9639 27.9046 95.1926 30.0126C93.4213 32.1207 90.9632 33.5365 88.251 34.0109C89.8489 34.2912 91.4877 34.2362 93.0633 33.8492C94.6388 33.4623 96.1167 32.7519 97.403 31.7632C98.6892 30.7745 99.7558 29.5291 100.535 28.1061C101.314 26.6831 101.789 25.1136 101.929 23.4972C102.069 21.8809 101.872 20.2532 101.349 18.7173C100.826 17.1815 99.9897 15.7711 98.8927 14.5758C97.7957 13.3805 96.4622 12.4265 94.9767 11.7742C93.4912 11.1219 91.8863 10.7857 90.264 10.7869V10.7849Z" fill="#F48875"/>
<path d="M56.6021 12.3301V15.8381C56.6028 15.9715 56.5758 16.1036 56.5228 16.226C56.4698 16.3484 56.3919 16.4584 56.2941 16.5491C56.1991 16.6457 56.0855 16.722 55.9602 16.7735C55.8349 16.8251 55.7006 16.8508 55.5651 16.8491H52.4751V19.3201C52.4774 19.4539 52.452 19.5867 52.4003 19.7101C52.3487 19.8335 52.272 19.9449 52.1751 20.0371C52.083 20.1325 51.9725 20.2083 51.8503 20.2598C51.7281 20.3114 51.5967 20.3377 51.4641 20.3371C51.3277 20.3394 51.1922 20.3139 51.0659 20.2624C50.9396 20.2108 50.825 20.1342 50.7291 20.0371C50.6322 19.9449 50.5555 19.8335 50.5039 19.7101C50.4523 19.5867 50.4268 19.4539 50.4291 19.3201V16.8261H47.3671C47.2345 16.8268 47.1031 16.8006 46.9809 16.749C46.8587 16.6974 46.7482 16.6216 46.6561 16.5261C46.5592 16.4339 46.4825 16.3225 46.4309 16.1991C46.3793 16.0757 46.3538 15.9429 46.3561 15.8091C46.3554 15.6759 46.3812 15.5439 46.4319 15.4207C46.4825 15.2975 46.5571 15.1856 46.6513 15.0914C46.7455 14.9972 46.8575 14.9226 46.9807 14.8719C47.1039 14.8212 47.2359 14.7955 47.3691 14.7961H54.5301V13.3421H47.3931C47.2603 13.3448 47.1283 13.3205 47.0051 13.2708C46.8819 13.2212 46.77 13.1471 46.6761 13.0531C46.5786 12.9601 46.5016 12.8477 46.4499 12.7232C46.3983 12.5988 46.3731 12.4649 46.3761 12.3301V8.83014C46.3754 8.69693 46.4012 8.5649 46.4519 8.4417C46.5025 8.3185 46.5771 8.20657 46.6713 8.11237C46.7655 8.01817 46.8775 7.94358 47.0007 7.8929C47.1239 7.84223 47.2559 7.81648 47.3891 7.81714H50.4291V5.35014C50.4272 5.2135 50.4532 5.07792 50.5057 4.95175C50.5582 4.82559 50.6361 4.71152 50.7344 4.6166C50.8327 4.52167 50.9494 4.4479 51.0773 4.39983C51.2052 4.35177 51.3416 4.33043 51.4781 4.33714C51.6099 4.33625 51.7405 4.36241 51.8617 4.41401C51.983 4.46562 52.0924 4.54156 52.1831 4.63714C52.2795 4.72977 52.3559 4.8412 52.4075 4.96453C52.4591 5.08786 52.4848 5.22047 52.4831 5.35414V7.82514H55.5931C55.7285 7.82355 55.8629 7.8493 55.9882 7.90084C56.1134 7.95239 56.227 8.02868 56.3221 8.12514C56.4198 8.2159 56.4977 8.32595 56.5507 8.44834C56.6037 8.57072 56.6307 8.70277 56.6301 8.83614C56.6267 9.11013 56.5164 9.37194 56.3226 9.56569C56.1289 9.75944 55.8671 9.86977 55.5931 9.87314H48.4321V11.3191H55.5681C55.7036 11.3175 55.8379 11.3433 55.9632 11.3948C56.0884 11.4464 56.202 11.5227 56.2971 11.6191C56.3942 11.7101 56.4714 11.8201 56.5239 11.9422C56.5763 12.0644 56.603 12.1962 56.6021 12.3291V12.3301Z" fill="#3F3679"/>
<path d="M8.54499 13.834H16.89V23.156C16.89 24.0842 16.5212 24.9745 15.8649 25.6309C15.2085 26.2872 14.3182 26.656 13.39 26.656H12.042C11.1137 26.656 10.2235 26.2872 9.56712 25.6309C8.91074 24.9745 8.54199 24.0842 8.54199 23.156V13.834H8.54499Z" fill="#F8AF23"/>
<path d="M93.9399 30.5119L90.2629 28.8789L86.5859 30.5119V23.1589H93.9389L93.9399 30.5119Z" fill="#F8AF23"/>
<path d="M90.264 26.321C93.5402 26.321 96.196 23.6652 96.196 20.389C96.196 17.1129 93.5402 14.457 90.264 14.457C86.9879 14.457 84.332 17.1129 84.332 20.389C84.332 23.6652 86.9879 26.321 90.264 26.321Z" fill="#63BCE7"/>
<path d="M5.37006 88.1831H8.57006C8.73425 88.1766 8.88954 88.1068 9.0034 87.9883C9.11726 87.8699 9.18085 87.7119 9.18085 87.5476C9.18085 87.3833 9.11726 87.2254 9.0034 87.1069C8.88954 86.9884 8.73425 86.9186 8.57006 86.9121H5.37006C5.20588 86.9186 5.05059 86.9884 4.93673 87.1069C4.82287 87.2254 4.75928 87.3833 4.75928 87.5476C4.75928 87.7119 4.82287 87.8699 4.93673 87.9883C5.05059 88.1068 5.20588 88.1766 5.37006 88.1831Z" fill="#3F3679"/>
<path d="M94.414 86.9121C94.2498 86.9186 94.0945 86.9884 93.9807 87.1069C93.8668 87.2254 93.8032 87.3833 93.8032 87.5476C93.8032 87.7119 93.8668 87.8699 93.9807 87.9883C94.0945 88.1068 94.2498 88.1766 94.414 88.1831H97.614C97.7782 88.1766 97.9335 88.1068 98.0473 87.9883C98.1612 87.8699 98.2248 87.7119 98.2248 87.5476C98.2248 87.3833 98.1612 87.2254 98.0473 87.1069C97.9335 86.9884 97.7782 86.9186 97.614 86.9121H94.414Z" fill="#3F3679"/>
<path d="M102.346 81.3609H98.203L96.881 63.2219C96.5855 61.4114 95.7194 59.7427 94.409 58.4589L80.99 43.4869V43.2389C80.9869 40.6708 79.9922 38.2031 78.2137 36.3505C76.4351 34.4979 74.0099 33.4037 71.444 33.2959V33.2229C71.4419 32.1914 71.0312 31.2026 70.3017 30.4732C69.5723 29.7438 68.5836 29.333 67.552 29.3309H63.575C62.5434 29.333 61.5547 29.7438 60.8253 30.4732C60.0958 31.2026 59.6851 32.1914 59.683 33.2229V33.2859H57.621C57.621 33.2359 57.632 33.1859 57.632 33.1379C57.6311 32.4195 57.3636 31.7269 56.8812 31.1944C56.3988 30.662 55.7359 30.3275 55.021 30.2559C54.8764 29.6134 54.5184 29.0389 54.0053 28.6259C53.4923 28.213 52.8546 27.986 52.196 27.9819H50.784C50.1252 27.9851 49.487 28.2117 48.9738 28.6248C48.4606 29.0379 48.1028 29.613 47.959 30.2559C47.2437 30.3268 46.5803 30.6608 46.0973 31.1931C45.6143 31.7254 45.3462 32.4182 45.345 33.1369C45.345 33.1869 45.353 33.2369 45.356 33.2849H43.296V33.2229C43.2939 32.1914 42.8832 31.2026 42.1537 30.4732C41.4243 29.7438 40.4356 29.333 39.404 29.3309H35.432C34.4004 29.333 33.4117 29.7438 32.6823 30.4732C31.9528 31.2026 31.5421 32.1914 31.54 33.2229V33.2959C28.9741 33.4037 26.5489 34.4979 24.7703 36.3505C22.9918 38.2031 21.9972 40.6708 21.994 43.2389V43.4869L8.573 58.4609C7.25951 59.7483 6.39255 61.4223 6.099 63.2379L4.778 81.3629H0.636C0.467322 81.3629 0.305553 81.4299 0.18628 81.5492C0.0670066 81.6685 0 81.8303 0 81.9989V93.0989C0 93.2676 0.0670066 93.4294 0.18628 93.5487C0.305553 93.6679 0.467322 93.7349 0.636 93.7349H1.596V99.2219H1.204C1.03982 99.2284 0.884526 99.2982 0.770666 99.4167C0.656806 99.5352 0.593214 99.6931 0.593214 99.8574C0.593214 100.022 0.656806 100.18 0.770666 100.298C0.884526 100.417 1.03982 100.486 1.204 100.493H101.778C101.864 100.496 101.949 100.482 102.029 100.452C102.109 100.422 102.182 100.375 102.244 100.316C102.306 100.257 102.355 100.185 102.388 100.107C102.422 100.028 102.439 99.9431 102.439 99.8574C102.439 99.7718 102.422 99.687 102.388 99.6082C102.355 99.5294 102.306 99.4582 102.244 99.3989C102.182 99.3395 102.109 99.2933 102.029 99.2629C101.949 99.2325 101.864 99.2185 101.778 99.2219H101.387V93.7349H102.347C102.516 93.7349 102.677 93.6679 102.797 93.5487C102.916 93.4294 102.983 93.2676 102.983 93.0989V81.9989C102.983 81.9153 102.967 81.8325 102.935 81.7552C102.903 81.678 102.856 81.6077 102.797 81.5486C102.738 81.4894 102.668 81.4425 102.591 81.4104C102.513 81.3784 102.431 81.3619 102.347 81.3619L102.346 81.3609ZM93.462 59.3079C94.581 60.3915 95.3334 61.7977 95.614 63.3299L96.928 81.3619H82.479C77.606 76.6719 79.45 68.5369 79.471 68.4549C79.4938 68.3579 79.4935 68.2568 79.47 68.1598C79.4466 68.0629 79.4007 67.9728 79.336 67.8969L72.421 59.7819C71.9554 59.1931 71.7362 58.4467 71.8096 57.6996C71.8829 56.9526 72.2431 56.2631 72.8144 55.7761C73.3857 55.2891 74.1235 55.0426 74.8728 55.0885C75.6221 55.1343 76.3244 55.4689 76.832 56.0219L79.872 59.5889L85.643 66.3609C85.696 66.428 85.7621 66.4837 85.8371 66.5247C85.9122 66.5657 85.9947 66.5912 86.0798 66.5995C86.165 66.6079 86.2509 66.599 86.3325 66.5733C86.4141 66.5477 86.4897 66.5059 86.5547 66.4504C86.6198 66.3949 86.673 66.3268 86.7112 66.2503C86.7493 66.1737 86.7717 66.0903 86.7768 66.0049C86.782 65.9195 86.7698 65.834 86.7412 65.7534C86.7125 65.6728 86.6679 65.5989 86.61 65.5359L80.99 58.9409V45.3909L93.462 59.3079ZM74.79 81.9969V93.0969C74.79 93.2656 74.857 93.4274 74.9763 93.5467C75.0955 93.6659 75.2573 93.7329 75.426 93.7329H76.386V99.2209H26.596V93.7339H27.556C27.7247 93.7339 27.8864 93.6669 28.0057 93.5476C28.125 93.4284 28.192 93.2666 28.192 93.0979V81.9979C28.192 81.8293 28.125 81.6675 28.0057 81.5482C27.8864 81.4289 27.7247 81.3619 27.556 81.3619H22.229C23.6484 79.596 24.5742 77.4853 24.912 75.2449C26.5615 76.9212 28.7661 77.9378 31.112 78.1039C33.3695 78.2511 35.6085 77.6141 37.4505 76.3007C39.2925 74.9873 40.6244 73.0781 41.221 70.8959L43.221 63.4959H59.761L61.703 70.6779C62.2509 72.7802 63.4714 74.6456 65.1783 75.9896C66.8852 77.3336 68.9848 78.0824 71.157 78.1219H71.207C73.781 78.1284 76.2524 77.1135 78.079 75.2999C78.4229 77.5193 79.3452 79.6091 80.753 81.3589H75.421C75.2528 81.3589 75.0915 81.4255 74.9723 81.5442C74.8531 81.6628 74.7858 81.8238 74.785 81.9919L74.79 81.9969ZM60.954 33.2229C60.9548 32.528 61.2312 31.8618 61.7226 31.3705C62.2139 30.8791 62.8801 30.6027 63.575 30.6019H67.549C68.2439 30.6027 68.9101 30.8791 69.4014 31.3705C69.8928 31.8618 70.1692 32.528 70.17 33.2229V33.2859H60.954V33.2229ZM64.364 34.5569L63.196 36.2779C62.587 37.176 61.7673 37.9112 60.8085 38.4194C59.8497 38.9275 58.7811 39.1931 57.696 39.1929H45.288C44.2029 39.1932 43.1342 38.9277 42.1754 38.4195C41.2167 37.9114 40.397 37.1761 39.788 36.2779L38.621 34.5569H64.364ZM50.785 29.2569H52.197C52.5142 29.2593 52.8238 29.3542 53.0879 29.5298C53.352 29.7055 53.5592 29.9543 53.684 30.2459H49.297C49.4216 29.954 49.6288 29.7048 49.8932 29.5291C50.1576 29.3534 50.4676 29.2588 50.785 29.2569ZM46.621 33.1369C46.6215 32.7069 46.7924 32.2946 47.0962 31.9902C47.4 31.6859 47.812 31.5143 48.242 31.5129H54.742C55.1726 31.5135 55.5853 31.6847 55.8898 31.9892C56.1942 32.2936 56.3655 32.7064 56.366 33.1369C56.366 33.1869 56.359 33.2369 56.355 33.2849H46.629C46.629 33.2359 46.618 33.1849 46.618 33.1369H46.621ZM35.432 30.6019H39.406C40.1009 30.6027 40.7671 30.8791 41.2584 31.3705C41.7498 31.8618 42.0262 32.528 42.027 33.2229V33.2859H32.809V33.2229C32.8098 32.5277 33.0865 31.8612 33.5783 31.3698C34.0701 30.8784 34.7368 30.6022 35.432 30.6019ZM23.263 43.2389C23.2656 40.9371 24.1812 38.7304 25.8088 37.1028C27.4364 35.4751 29.6432 34.5596 31.945 34.5569H37.081L38.734 36.9919C39.4594 38.0624 40.4361 38.9389 41.5787 39.5445C42.7213 40.1501 43.9949 40.4665 45.288 40.4659H57.694C58.9871 40.4665 60.2607 40.1501 61.4033 39.5445C62.5458 38.9389 63.5226 38.0624 64.248 36.9919L65.9 34.5569H71.036C73.3383 34.5588 75.5459 35.474 77.1741 37.1017C78.8024 38.7294 79.7183 40.9366 79.721 43.2389V57.4499L77.8 55.1959C77.0827 54.3544 76.0605 53.8323 74.9583 53.7444C73.856 53.6566 72.764 54.0102 71.9225 54.7274C71.081 55.4447 70.5588 56.4669 70.471 57.5692C70.3831 58.6714 70.7367 59.7634 71.454 60.6049L78.167 68.4809C77.8494 70.178 77.7516 71.9089 77.876 73.6309C77.0751 74.642 76.0545 75.4574 74.8915 76.0153C73.7286 76.5732 72.4538 76.859 71.164 76.8509C69.2708 76.8133 67.4418 76.1578 65.9556 74.9844C64.4695 73.8109 63.4077 72.1838 62.932 70.3509L60.862 62.6999C60.8253 62.5652 60.7453 62.4463 60.6344 62.3615C60.5234 62.2767 60.3876 62.2309 60.248 62.2309H42.734C42.5942 62.2309 42.4584 62.277 42.3474 62.3619C42.2364 62.4469 42.1565 62.566 42.12 62.7009L39.993 70.5659C39.4732 72.465 38.3136 74.1264 36.7101 75.269C35.1066 76.4117 33.1577 76.9655 31.193 76.8369C30.0044 76.7509 28.8475 76.414 27.7987 75.8483C26.7498 75.2825 25.8328 74.5009 25.108 73.5549C25.2226 71.859 25.1218 70.1555 24.808 68.4849L31.521 60.6079C31.881 60.1919 32.1552 59.7088 32.3276 59.1863C32.5 58.6639 32.5674 58.1125 32.5257 57.5639C32.484 57.0153 32.3342 56.4804 32.0848 55.99C31.8355 55.4996 31.4915 55.0634 31.0728 54.7066C30.654 54.3497 30.1688 54.0793 29.645 53.9109C29.1213 53.7424 28.5694 53.6793 28.0211 53.7252C27.4729 53.771 26.9391 53.925 26.4507 54.1781C25.9622 54.4312 25.5286 54.7785 25.175 55.1999L23.254 57.4539V43.2399L23.263 43.2389ZM7.363 63.3389C7.64319 61.8024 8.39789 60.3923 9.521 59.3069L21.991 45.3909V58.9419L16.37 65.5369C16.3121 65.5999 16.2675 65.6738 16.2388 65.7544C16.2102 65.835 16.198 65.9205 16.2032 66.0059C16.2084 66.0913 16.2307 66.1747 16.2688 66.2513C16.307 66.3278 16.3602 66.3959 16.4252 66.4514C16.4903 66.5069 16.5659 66.5487 16.6475 66.5743C16.7291 66.6 16.815 66.6089 16.9001 66.6005C16.9853 66.5922 17.0678 66.5667 17.1429 66.5257C17.2179 66.4847 17.284 66.429 17.337 66.3619L23.11 59.5889L26.15 56.0219C26.3918 55.7162 26.6928 55.4623 27.0349 55.2755C27.377 55.0887 27.7533 54.9728 28.1412 54.9347C28.5292 54.8966 28.9208 54.9371 29.2928 55.0538C29.6647 55.1704 30.0093 55.3609 30.3059 55.6138C30.6026 55.8667 30.8452 56.1768 31.0193 56.5255C31.1934 56.8743 31.2954 57.2546 31.3193 57.6437C31.3431 58.0327 31.2882 58.4226 31.1579 58.79C31.0276 59.1574 30.8246 59.4948 30.561 59.7819L23.645 67.8959C23.5802 67.972 23.5342 68.0622 23.5107 68.1593C23.4873 68.2564 23.487 68.3577 23.51 68.4549C23.529 68.5379 25.385 76.6619 20.502 81.3619H6.054L7.363 63.3389ZM1.271 82.6319H26.921V86.9119H12.03C11.9444 86.9085 11.859 86.9225 11.779 86.9529C11.6989 86.9833 11.6258 87.0295 11.5641 87.0889C11.5023 87.1482 11.4532 87.2194 11.4196 87.2982C11.3861 87.377 11.3688 87.4618 11.3688 87.5474C11.3688 87.6331 11.3861 87.7178 11.4196 87.7966C11.4532 87.8754 11.5023 87.9466 11.5641 88.006C11.6258 88.0653 11.6989 88.1116 11.779 88.142C11.859 88.1724 11.9444 88.1863 12.03 88.1829H26.921V92.4629H1.271V82.6319ZM2.866 99.2219V93.7349H25.321V99.2219H2.866ZM100.115 99.2219H77.658V93.7349H100.115V99.2219ZM101.715 92.4639H76.061V88.1839H90.951C91.0366 88.1873 91.122 88.1734 91.202 88.143C91.2821 88.1126 91.3552 88.0663 91.4169 88.007C91.4787 87.9476 91.5278 87.8764 91.5614 87.7976C91.5949 87.7188 91.6122 87.6341 91.6122 87.5484C91.6122 87.4628 91.5949 87.378 91.5614 87.2992C91.5278 87.2204 91.4787 87.1492 91.4169 87.0899C91.3552 87.0305 91.2821 86.9843 91.202 86.9539C91.122 86.9235 91.0366 86.9095 90.951 86.9129H76.061V82.6329H101.71L101.715 92.4639Z" fill="#3F3679"/>
<path d="M29.3861 52.0291H30.4291V53.0721C30.4296 53.3742 30.5499 53.6639 30.7636 53.8776C30.9773 54.0913 31.2669 54.2115 31.5691 54.2121H34.6691C34.9713 54.2115 35.2609 54.0913 35.4746 53.8776C35.6883 53.6639 35.8086 53.3742 35.8091 53.0721V52.0291H36.8511C37.1531 52.028 37.4425 51.9076 37.656 51.694C37.8696 51.4804 37.99 51.1911 37.9911 50.8891V47.7891C37.9906 47.4869 37.8703 47.1972 37.6566 46.9835C37.4429 46.7699 37.1533 46.6496 36.8511 46.6491H35.8051V45.6061C35.8048 45.3038 35.6846 45.014 35.4709 44.8003C35.2572 44.5865 34.9674 44.4663 34.6651 44.4661H31.5651C31.2631 44.4671 30.9737 44.5876 30.7602 44.8011C30.5466 45.0147 30.4261 45.304 30.4251 45.6061V46.6491H29.3861C29.0839 46.6496 28.7943 46.7699 28.5806 46.9835C28.3669 47.1972 28.2466 47.4869 28.2461 47.7891V50.8891C28.2464 51.1913 28.3666 51.4811 28.5803 51.6949C28.794 51.9086 29.0838 52.0288 29.3861 52.0291ZM29.5171 47.9211H30.5591C30.8614 47.9208 31.1512 47.8006 31.3649 47.5869C31.5786 47.3731 31.6988 47.0833 31.6991 46.7811V45.7381H34.5361V46.7811C34.5371 47.0831 34.6576 47.3724 34.8712 47.586C35.0847 47.7996 35.3741 47.92 35.6761 47.9211H36.7191V50.7581H35.6781C35.3759 50.7586 35.0863 50.8789 34.8726 51.0925C34.6589 51.3062 34.5386 51.5959 34.5381 51.8981V52.9411H31.7051V51.8931C31.7048 51.5906 31.5845 51.3007 31.3706 51.0869C31.1566 50.8731 30.8665 50.7531 30.5641 50.7531H29.5171V47.9211Z" fill="#3F3679"/>
<path d="M63.7691 51.97C64.2893 51.97 64.7978 51.8157 65.2303 51.5267C65.6628 51.2377 65.9999 50.827 66.199 50.3464C66.398 49.8659 66.4501 49.337 66.3486 48.8269C66.2471 48.3167 65.9967 47.8481 65.6288 47.4803C65.261 47.1125 64.7924 46.862 64.2822 46.7605C63.7721 46.659 63.2433 46.7111 62.7627 46.9102C62.2821 47.1092 61.8714 47.4463 61.5824 47.8788C61.2934 48.3113 61.1392 48.8198 61.1392 49.34C61.1392 50.0375 61.4162 50.7064 61.9095 51.1997C62.4027 51.6929 63.0716 51.97 63.7691 51.97ZM63.7691 47.98C64.0379 47.98 64.3007 48.0597 64.5242 48.209C64.7477 48.3583 64.9218 48.5706 65.0247 48.8189C65.1276 49.0672 65.1545 49.3405 65.102 49.6041C65.0496 49.8677 64.9202 50.1099 64.7301 50.2999C64.5401 50.49 64.2979 50.6194 64.0343 50.6718C63.7707 50.7243 63.4974 50.6974 63.2491 50.5945C63.0008 50.4917 62.7885 50.3175 62.6392 50.094C62.4899 49.8705 62.4102 49.6077 62.4102 49.339C62.4102 48.9785 62.5533 48.6329 62.8082 48.378C63.0631 48.1231 63.4087 47.98 63.7691 47.98Z" fill="#3F3679"/>
<path d="M69.4741 49.339C69.4741 49.8591 69.6284 50.3676 69.9174 50.8001C70.2063 51.2326 70.6171 51.5697 71.0977 51.7688C71.5782 51.9678 72.107 52.0199 72.6172 51.9184C73.1274 51.817 73.596 51.5665 73.9638 51.1987C74.3316 50.8309 74.5821 50.3622 74.6836 49.8521C74.7851 49.3419 74.733 48.8131 74.5339 48.3325C74.3349 47.852 73.9978 47.4412 73.5653 47.1522C73.1328 46.8632 72.6243 46.709 72.1041 46.709C71.4066 46.709 70.7377 46.9861 70.2444 47.4793C69.7512 47.9725 69.4741 48.6415 69.4741 49.339ZM72.1041 47.98C72.3729 47.98 72.6357 48.0597 72.8591 48.209C73.0826 48.3583 73.2568 48.5706 73.3597 48.8189C73.4625 49.0672 73.4894 49.3405 73.437 49.6041C73.3846 49.8677 73.2551 50.1099 73.0651 50.2999C72.875 50.49 72.6329 50.6194 72.3692 50.6719C72.1056 50.7243 71.8324 50.6974 71.584 50.5945C71.3357 50.4917 71.1235 50.3175 70.9742 50.094C70.8248 49.8705 70.7451 49.6078 70.7451 49.339C70.7451 48.9786 70.8883 48.6329 71.1432 48.378C71.398 48.1232 71.7437 47.98 72.1041 47.98Z" fill="#3F3679"/>
<path d="M67.9371 47.802C68.4573 47.802 68.9658 47.6478 69.3983 47.3588C69.8308 47.0698 70.1679 46.659 70.3669 46.1784C70.566 45.6979 70.6181 45.1691 70.5166 44.6589C70.4151 44.1487 70.1646 43.6801 69.7968 43.3123C69.429 42.9445 68.9604 42.694 68.4502 42.5925C67.94 42.491 67.4112 42.5431 66.9307 42.7422C66.4501 42.9413 66.0394 43.2783 65.7504 43.7108C65.4614 44.1433 65.3071 44.6518 65.3071 45.172C65.3071 45.8695 65.5842 46.5385 66.0774 47.0317C66.5707 47.5249 67.2396 47.802 67.9371 47.802ZM67.9371 43.812C68.2059 43.812 68.4687 43.8917 68.6921 44.041C68.9156 44.1904 69.0898 44.4026 69.1927 44.6509C69.2955 44.8993 69.3225 45.1725 69.27 45.4361C69.2176 45.6997 69.0881 45.9419 68.8981 46.132C68.708 46.322 68.4659 46.4514 68.2023 46.5039C67.9386 46.5563 67.6654 46.5294 67.4171 46.4265C67.1687 46.3237 66.9565 46.1495 66.8072 45.926C66.6578 45.7025 66.5781 45.4398 66.5781 45.171C66.5781 44.9925 66.6133 44.8158 66.6816 44.6509C66.7499 44.486 66.85 44.3362 66.9762 44.21C67.1024 44.0838 67.2522 43.9837 67.4171 43.9154C67.5819 43.8471 67.7587 43.812 67.9371 43.812Z" fill="#3F3679"/>
<path d="M67.9371 50.876C67.417 50.876 66.9085 51.0302 66.476 51.3192C66.0435 51.6082 65.7064 52.0189 65.5073 52.4995C65.3083 52.9801 65.2562 53.5089 65.3577 54.0191C65.4591 54.5292 65.7096 54.9978 66.0774 55.3657C66.4453 55.7335 66.9139 55.984 67.424 56.0854C67.9342 56.1869 68.463 56.1348 68.9436 55.9358C69.4242 55.7367 69.8349 55.3996 70.1239 54.9671C70.4129 54.5346 70.5671 54.0261 70.5671 53.506C70.5671 52.8085 70.29 52.1395 69.7968 51.6463C69.3036 51.1531 68.6346 50.876 67.9371 50.876ZM67.9371 54.866C67.6683 54.866 67.4056 54.7863 67.1821 54.6369C66.9586 54.4876 66.7844 54.2754 66.6816 54.027C66.5787 53.7787 66.5518 53.5055 66.6042 53.2419C66.6567 52.9782 66.7861 52.7361 66.9762 52.546C67.1662 52.356 67.4084 52.2265 67.672 52.1741C67.9356 52.1217 68.2089 52.1486 68.4572 52.2514C68.7055 52.3543 68.9178 52.5285 69.0671 52.752C69.2164 52.9754 69.2961 53.2382 69.2961 53.507C69.2961 53.8674 69.1529 54.2131 68.8981 54.4679C68.6432 54.7228 68.2975 54.866 67.9371 54.866Z" fill="#3F3679"/>
<path d="M44.9659 54.212H47.8468C48.2892 54.212 48.7135 54.0362 49.0263 53.7234C49.3391 53.4106 49.5148 52.9864 49.5148 52.544C49.5148 52.1016 49.3391 51.6773 49.0263 51.3645C48.7135 51.0517 48.2892 50.876 47.8468 50.876H44.9659C44.5235 50.876 44.0992 51.0517 43.7864 51.3645C43.4736 51.6773 43.2979 52.1016 43.2979 52.544C43.2979 52.9864 43.4736 53.4106 43.7864 53.7234C44.0992 54.0362 44.5235 54.212 44.9659 54.212ZM44.9659 52.148H47.8468C47.9033 52.1405 47.9608 52.1451 48.0153 52.1616C48.0699 52.178 48.1203 52.206 48.1632 52.2435C48.206 52.2811 48.2404 52.3274 48.2639 52.3793C48.2875 52.4312 48.2997 52.4875 48.2997 52.5445C48.2997 52.6015 48.2875 52.6578 48.2639 52.7097C48.2404 52.7616 48.206 52.8079 48.1632 52.8454C48.1203 52.8829 48.0699 52.9109 48.0153 52.9274C47.9608 52.9439 47.9033 52.9485 47.8468 52.941H44.9659C44.8698 52.9282 44.7816 52.8809 44.7177 52.808C44.6539 52.7351 44.6187 52.6414 44.6187 52.5445C44.6187 52.4475 44.6539 52.3539 44.7177 52.281C44.7816 52.208 44.8698 52.1608 44.9659 52.148Z" fill="#3F3679"/>
<path d="M55.1348 54.212H58.0158C58.4582 54.212 58.8824 54.0362 59.1953 53.7234C59.5081 53.4106 59.6838 52.9864 59.6838 52.544C59.6838 52.1016 59.5081 51.6773 59.1953 51.3645C58.8824 51.0517 58.4582 50.876 58.0158 50.876H55.1348C54.6924 50.876 54.2681 51.0517 53.9553 51.3645C53.6425 51.6773 53.4668 52.1016 53.4668 52.544C53.4668 52.9864 53.6425 53.4106 53.9553 53.7234C54.2681 54.0362 54.6924 54.212 55.1348 54.212ZM55.1348 52.148H58.0158C58.0723 52.1405 58.1297 52.1451 58.1843 52.1616C58.2388 52.178 58.2892 52.206 58.3321 52.2435C58.375 52.2811 58.4093 52.3274 58.4329 52.3793C58.4564 52.4312 58.4686 52.4875 58.4686 52.5445C58.4686 52.6015 58.4564 52.6578 58.4329 52.7097C58.4093 52.7616 58.375 52.8079 58.3321 52.8454C58.2892 52.8829 58.2388 52.9109 58.1843 52.9274C58.1297 52.9439 58.0723 52.9485 58.0158 52.941H55.1348C55.0783 52.9485 55.0209 52.9439 54.9663 52.9274C54.9118 52.9109 54.8614 52.8829 54.8185 52.8454C54.7756 52.8079 54.7413 52.7616 54.7177 52.7097C54.6942 52.6578 54.682 52.6015 54.682 52.5445C54.682 52.4875 54.6942 52.4312 54.7177 52.3793C54.7413 52.3274 54.7756 52.2811 54.8185 52.2435C54.8614 52.206 54.9118 52.178 54.9663 52.1616C55.0209 52.1451 55.0783 52.1405 55.1348 52.148Z" fill="#3F3679"/>
<path d="M12.7178 34.82C15.1577 34.82 17.5428 34.0964 19.5715 32.7409C21.6001 31.3854 23.1813 29.4587 24.1149 27.2045C25.0486 24.9503 25.2928 22.4699 24.8167 20.077C24.3407 17.684 23.1657 15.4859 21.4404 13.7607C19.715 12.0356 17.5169 10.8607 15.1239 10.3849C12.7308 9.90899 10.2505 10.1534 7.99636 11.0873C5.74227 12.0211 3.81572 13.6024 2.46034 15.6312C1.10496 17.6599 0.381638 20.0451 0.381836 22.485C0.382101 25.7565 1.6819 28.8939 3.99532 31.2072C6.30874 33.5204 9.4463 34.82 12.7178 34.82ZM12.7178 11.42C14.9063 11.42 17.0456 12.0689 18.8652 13.2847C20.6849 14.5006 22.1031 16.2287 22.9406 18.2506C23.778 20.2724 23.9972 22.4972 23.5702 24.6436C23.1433 26.79 22.0894 28.7616 20.542 30.3091C18.9945 31.8566 17.0229 32.9104 14.8765 33.3373C12.7301 33.7643 10.5053 33.5452 8.48344 32.7077C6.46158 31.8702 4.73346 30.452 3.51762 28.6323C2.30179 26.8127 1.65284 24.6734 1.65284 22.485C1.6527 21.0318 1.93882 19.5929 2.49484 18.2504C3.05086 16.9079 3.8659 15.688 4.89341 14.6605C5.92091 13.633 7.14076 12.818 8.48329 12.262C9.82582 11.7059 11.2647 11.4198 12.7178 11.42Z" fill="#3F3679"/>
<path d="M51.4908 24.671C53.9307 24.671 56.3157 23.9475 58.3444 22.592C60.3731 21.2364 61.9542 19.3097 62.8879 17.0556C63.8215 14.8014 64.0657 12.321 63.5897 9.92803C63.1136 7.53505 61.9386 5.33699 60.2133 3.61181C58.488 1.88663 56.2898 0.711814 53.8968 0.23594C51.5038 -0.239934 49.0234 0.00450218 46.7693 0.938338C44.5152 1.87217 42.5887 3.45347 41.2333 5.48224C39.8779 7.51102 39.1546 9.89616 39.1548 12.336C39.1551 15.6076 40.4548 18.745 42.7683 21.0583C45.0817 23.3715 48.2192 24.671 51.4908 24.671ZM51.4908 1.27103C53.6792 1.27103 55.8185 1.91998 57.6382 3.13582C59.4578 4.35166 60.876 6.07977 61.7135 8.10164C62.551 10.1235 62.7701 12.3483 62.3432 14.4947C61.9162 16.6411 60.8624 18.6127 59.3149 20.1602C57.7675 21.7076 55.7959 22.7615 53.6495 23.1884C51.5031 23.6154 49.2783 23.3962 47.2564 22.5588C45.2345 21.7213 43.5064 20.303 42.2906 18.4834C41.0747 16.6638 40.4258 14.5245 40.4258 12.336C40.4258 9.40141 41.5916 6.58698 43.6666 4.51189C45.7417 2.4368 48.5562 1.27103 51.4908 1.27103Z" fill="#3F3679"/>
<path d="M90.2642 34.82C92.7041 34.82 95.0891 34.0965 97.1177 32.741C99.1464 31.3855 100.728 29.4588 101.661 27.2047C102.595 24.9506 102.839 22.4703 102.363 20.0773C101.887 17.6844 100.712 15.4863 98.9871 13.7611C97.2619 12.0359 95.0638 10.861 92.6709 10.385C90.2779 9.909 87.7976 10.1533 85.5434 11.087C83.2893 12.0207 81.3627 13.6018 80.0072 15.6304C78.6517 17.6591 77.9282 20.0441 77.9282 22.484C77.9282 25.7557 79.2279 28.8934 81.5414 31.2068C83.8548 33.5203 86.9925 34.82 90.2642 34.82ZM90.2642 11.42C92.4527 11.42 94.592 12.0689 96.4116 13.2847C98.2312 14.5006 99.6495 16.2287 100.487 18.2506C101.324 20.2724 101.544 22.4972 101.117 24.6436C100.69 26.79 99.6358 28.7616 98.0883 30.3091C96.5409 31.8566 94.5693 32.9104 92.4229 33.3373C90.2765 33.7643 88.0517 33.5452 86.0298 32.7077C84.008 31.8702 82.2798 30.452 81.064 28.6323C79.8482 26.8127 79.1992 24.6734 79.1992 22.485C79.1992 19.5503 80.365 16.7359 82.4401 14.6608C84.5152 12.5857 87.3296 11.42 90.2642 11.42Z" fill="#3F3679"/>
<path d="M5.69103 21.693L7.91003 22.713V23.151C7.91136 24.2462 8.34701 25.2961 9.12144 26.0706C9.89586 26.845 10.9458 27.2807 12.041 27.282H12.083V30.5H8.68303C8.59746 30.4966 8.51207 30.5105 8.43201 30.5409C8.35195 30.5713 8.27885 30.6176 8.2171 30.6769C8.15535 30.7363 8.10623 30.8075 8.07267 30.8863C8.03911 30.9651 8.02182 31.0498 8.02182 31.1355C8.02182 31.2211 8.03911 31.3059 8.07267 31.3847C8.10623 31.4635 8.15535 31.5347 8.2171 31.594C8.27885 31.6534 8.35195 31.6996 8.43201 31.73C8.51207 31.7604 8.59746 31.7744 8.68303 31.771H16.754C16.8396 31.7744 16.925 31.7604 17.0051 31.73C17.0851 31.6996 17.1582 31.6534 17.22 31.594C17.2817 31.5347 17.3308 31.4635 17.3644 31.3847C17.3979 31.3059 17.4152 31.2211 17.4152 31.1355C17.4152 31.0498 17.3979 30.9651 17.3644 30.8863C17.3308 30.8075 17.2817 30.7363 17.22 30.6769C17.1582 30.6176 17.0851 30.5713 17.0051 30.5409C16.925 30.5105 16.8396 30.4966 16.754 30.5H13.354V27.282H13.396C14.4912 27.2807 15.5412 26.845 16.3156 26.0706C17.0901 25.2961 17.5257 24.2462 17.527 23.151V22.713L19.746 21.693C20.0387 21.5566 20.2864 21.3398 20.4603 21.0677C20.6342 20.7957 20.7271 20.4798 20.728 20.157V17.501C20.7275 17.0532 20.5494 16.6239 20.2328 16.3073C19.9161 15.9906 19.4868 15.8125 19.039 15.812H17.526V13.835C17.526 13.7515 17.5096 13.6688 17.4776 13.5916C17.4457 13.5144 17.3988 13.4443 17.3398 13.3853C17.2807 13.3262 17.2106 13.2793 17.1334 13.2474C17.0563 13.2154 16.9736 13.199 16.89 13.199H8.54503C8.37635 13.199 8.21459 13.266 8.09531 13.3853C7.97604 13.5045 7.90903 13.6663 7.90903 13.835V15.812H6.39603C5.94824 15.8125 5.51895 15.9906 5.20231 16.3073C4.88568 16.6239 4.70756 17.0532 4.70703 17.501V20.157C4.70815 20.48 4.8013 20.7961 4.97557 21.0681C5.14984 21.3402 5.39801 21.5569 5.69103 21.693ZM19.038 17.083C19.1488 17.0832 19.255 17.1274 19.3333 17.2057C19.4116 17.284 19.4558 17.3902 19.456 17.501V20.157C19.4561 20.2372 19.4331 20.3157 19.3899 20.3832C19.3466 20.4508 19.2849 20.5045 19.212 20.538L17.523 21.314V17.083H19.038ZM9.18103 14.47H16.255V23.151C16.2542 23.9092 15.9527 24.6362 15.4165 25.1724C14.8803 25.7086 14.1533 26.0102 13.395 26.011H12.043C11.2848 26.0102 10.5578 25.7086 10.0216 25.1724C9.4854 24.6362 9.18383 23.9092 9.18303 23.151L9.18103 14.47ZM5.98103 17.501C5.9813 17.3902 6.02542 17.284 6.10375 17.2057C6.18209 17.1274 6.28825 17.0832 6.39903 17.083H7.91003V21.314L6.22003 20.538C6.14716 20.5045 6.08544 20.4508 6.04219 20.3832C5.99894 20.3157 5.97598 20.2372 5.97603 20.157L5.98103 17.501Z" fill="#3F3679"/>
<path d="M85.9508 25.3299V30.5109C85.9508 30.6168 85.9773 30.7211 86.0279 30.8141C86.0784 30.9072 86.1514 30.9862 86.2402 31.0439C86.329 31.1016 86.4308 31.1362 86.5364 31.1446C86.642 31.153 86.748 31.1349 86.8448 31.0919L90.2638 29.5729L93.6828 31.0919C93.7796 31.1349 93.8856 31.153 93.9912 31.1446C94.0967 31.1362 94.1985 31.1016 94.2873 31.0439C94.3761 30.9862 94.4491 30.9072 94.4997 30.8141C94.5502 30.7211 94.5767 30.6168 94.5768 30.5109V25.3299C95.5859 24.4517 96.3027 23.2862 96.6314 21.9895C96.9601 20.6927 96.885 19.3265 96.4161 18.0736C95.9473 16.8207 95.107 15.7408 94.0077 14.9785C92.9084 14.2161 91.6025 13.8076 90.2648 13.8076C88.927 13.8076 87.6211 14.2161 86.5219 14.9785C85.4226 15.7408 84.5823 16.8207 84.1134 18.0736C83.6445 19.3265 83.5694 20.6927 83.8981 21.9895C84.2268 23.2862 84.9437 24.4517 85.9528 25.3299H85.9508ZM93.3038 29.5299L90.5208 28.2939C90.4395 28.2579 90.3517 28.2393 90.2628 28.2393C90.1739 28.2393 90.086 28.2579 90.0048 28.2939L87.2218 29.5299V26.2049C88.1593 26.6988 89.2031 26.9569 90.2628 26.9569C91.3225 26.9569 92.3662 26.6988 93.3038 26.2049V29.5299ZM90.2628 15.0889C91.311 15.0889 92.3357 15.3998 93.2073 15.9821C94.0789 16.5645 94.7582 17.3923 95.1593 18.3607C95.5605 19.3292 95.6654 20.3948 95.4609 21.4229C95.2564 22.451 94.7517 23.3954 94.0104 24.1366C93.2692 24.8778 92.3249 25.3826 91.2968 25.5871C90.2687 25.7916 89.203 25.6866 88.2346 25.2855C87.2661 24.8844 86.4384 24.205 85.856 23.3335C85.2736 22.4619 84.9628 21.4372 84.9628 20.3889C84.9628 18.9833 85.5212 17.6352 86.5151 16.6413C87.5091 15.6473 88.8571 15.0889 90.2628 15.0889Z" fill="#3F3679"/>
<path d="M8.83216 103.872H1.20516C1.11958 103.869 1.0342 103.883 0.95414 103.913C0.874076 103.943 0.800978 103.99 0.73923 104.049C0.677482 104.108 0.628357 104.18 0.5948 104.258C0.561243 104.337 0.543945 104.422 0.543945 104.508C0.543945 104.593 0.561243 104.678 0.5948 104.757C0.628357 104.836 0.677482 104.907 0.73923 104.966C0.800978 105.025 0.874076 105.072 0.95414 105.102C1.0342 105.133 1.11958 105.146 1.20516 105.143H8.83216C8.91774 105.146 9.00312 105.133 9.08318 105.102C9.16324 105.072 9.23634 105.025 9.29809 104.966C9.35984 104.907 9.40896 104.836 9.44252 104.757C9.47608 104.678 9.49337 104.593 9.49337 104.508C9.49337 104.422 9.47608 104.337 9.44252 104.258C9.40896 104.18 9.35984 104.108 9.29809 104.049C9.23634 103.99 9.16324 103.943 9.08318 103.913C9.00312 103.883 8.91774 103.869 8.83216 103.872Z" fill="#3F3679"/>
<path d="M101.778 103.872H94.151C94.0654 103.869 93.98 103.883 93.8999 103.913C93.8199 103.943 93.7468 103.99 93.685 104.049C93.6233 104.108 93.5742 104.18 93.5406 104.258C93.507 104.337 93.4897 104.422 93.4897 104.508C93.4897 104.593 93.507 104.678 93.5406 104.757C93.5742 104.836 93.6233 104.907 93.685 104.966C93.7468 105.025 93.8199 105.072 93.8999 105.102C93.98 105.133 94.0654 105.146 94.151 105.143H101.778C101.864 105.146 101.949 105.133 102.029 105.102C102.109 105.072 102.182 105.025 102.244 104.966C102.306 104.907 102.355 104.836 102.388 104.757C102.422 104.678 102.439 104.593 102.439 104.508C102.439 104.422 102.422 104.337 102.388 104.258C102.355 104.18 102.306 104.108 102.244 104.049C102.182 103.99 102.109 103.943 102.029 103.913C101.949 103.883 101.864 103.869 101.778 103.872Z" fill="#3F3679"/>
<path d="M89.8289 103.872H13.1539C13.0683 103.869 12.9829 103.883 12.9029 103.913C12.8228 103.943 12.7497 103.99 12.688 104.049C12.6262 104.108 12.5771 104.18 12.5435 104.258C12.51 104.337 12.4927 104.422 12.4927 104.508C12.4927 104.593 12.51 104.678 12.5435 104.757C12.5771 104.836 12.6262 104.907 12.688 104.966C12.7497 105.025 12.8228 105.072 12.9029 105.102C12.9829 105.133 13.0683 105.146 13.1539 105.143H89.8289C89.9145 105.146 89.9998 105.133 90.0799 105.102C90.16 105.072 90.2331 105.025 90.2948 104.966C90.3566 104.907 90.4057 104.836 90.4393 104.757C90.4728 104.678 90.4901 104.593 90.4901 104.508C90.4901 104.422 90.4728 104.337 90.4393 104.258C90.4057 104.18 90.3566 104.108 90.2948 104.049C90.2331 103.99 90.16 103.943 90.0799 103.913C89.9998 103.883 89.9145 103.869 89.8289 103.872Z" fill="#3F3679"/>
</svg>
