<svg width="205" height="186" viewBox="0 0 205 186" fill="none" xmlns="http://www.w3.org/2000/svg">
<path opacity="0.505" d="M138 0C175.003 0 205 29.997 205 67C205 104.003 175.003 134 138 134C100.997 134 71 104.003 71 67C71 29.997 100.997 0 138 0Z" fill="#F8F7F4"/>
<path opacity="0.256" d="M37 112C57.4346 112 74 128.566 74 149C74 169.435 57.4346 186 37 186C16.5655 186 0 169.435 0 149C0 128.566 16.5655 112 37 112Z" fill="#F8F8F4"/>
<path opacity="0.256" d="M116.5 148C126.717 148 135 156.283 135 166.5C135 176.717 126.717 185 116.5 185C106.283 185 98 176.717 98 166.5C98 156.283 106.283 148 116.5 148Z" fill="#F8F8F4"/>
</svg>
