<?xml version="1.0" encoding="UTF-8" standalone="no"?>
<svg id="svg5391" xmlns:rdf="http://www.w3.org/1999/02/22-rdf-syntax-ns#" xmlns="http://www.w3.org/2000/svg" height="124.72mm" width="245.51mm" version="1.1" xmlns:cc="http://creativecommons.org/ns#" xmlns:dc="http://purl.org/dc/elements/1.1/" viewBox="0 0 869.91714 441.91677">
<g id="layer1" transform="translate(427.49 17.168)">
<g id="g5350" transform="matrix(2.3199 0 0 2.3199 1562.9 -646.84)">
<g fill="#26231f">
<path id="path198" d="m-487.46 350.03s-77.775-14.991-144.7 6.5615c0 0-40.151-63.714-82.816-70.272 0 0-126.31 25.298-126.31 37.478s107.07 79.643 107.07 79.643l13.384 6.5595 110.41 1.8748s122.12-52.472 122.95-61.843z"/>
<path id="path688" d="m-607.87 404.4c0.83721 2.8108 16.719 52.472 6.6846 57.156-10.034 4.6839-113.76-38.417-113.76-38.417s0 5.622-6.685 5.622-20.083-4.6836-20.92-7.4946c-0.83724-2.811-3.335-9.3691-3.335-9.3691l-107.06-26.24s3.0852-63.697 10.037-61.84c52.698 14.054 107.07 76.833 112.08 78.708 1.1311 0.41955 1.1019 2.7928 11.709 0.93795 64.406-11.243 111.26 0.93641 111.26 0.93641z"/>
<path id="path690" d="m-487.46 350.03s-123.79 44.039-122.95 54.346c0.83891 10.307 10.872 57.156 10.872 57.156s110.42-66.527 112.08-72.146c1.6578-5.6194 9.2117-43.104 0-39.355z"/>
</g>
<path id="path712" fill="#c7b172" d="m-843.56 327.23s-8.1347 49.769-3.7568 52.572c4.378 2.803 104.5 26.639 104.5 26.639s0 5.607 1.8805 8.4094 6.8907 7.0109 11.9 8.4127c5.0095 1.4018 8.1244 0.70119 8.1244 0.70119l4.3783-6.3098 110.77 36.453-13.766-49.769s-63.834-3.5054-90.749 2.8024c0 0-15.014 3.5041-21.273 0-6.2588-3.5041-78.218-70.095-112.01-79.909z"/>
<path id="path714" fill="#edc79b" d="m-604.5 404.33s3.7465 49.769 8.7563 46.966 103.88-58.184 104.5-63.088c0.61586-4.9036 6.8904-34.345 3.1292-30.842-3.7612 3.5031-111.38 39.252-116.39 46.966z"/>
<path id="path716" fill="#fdf7b4" d="m-834.8 323.7s80.732 44.862 102 76.407c0 0 84.477-11.216 116.4-2.8043l127.02-42.761s-68.215-15.422-139.54 6.3098c0 0-7.5072 0-10.019-2.8043-2.5121-2.8043-40.68-58.181-75.721-67.995-9.1824-2.5722-120.15 33.65-120.15 33.65z"/>
<path id="path722" fill="#26231f" d="m-601.17 461.55s-11.107-16.049-5.1566-20.217c5.9502-4.1686 118.37-71.713 120.6-63.378 2.233 8.3405-1.7338 11.447-1.7338 11.447s-109.3 74.853-113.71 72.146z"/>
<path id="path724" fill="#e20415" d="m-601.11 445.51s0 10.842 5.2155 7.5079c5.2156-3.334 106.45-63.378 107.19-66.713 0.74905-3.3376-3.7168-2.5031-3.7168-2.5031s-106.45 55.871-108.69 61.706z"/>
<path id="path726" fill="#26231f" d="m-713.53 412.15c-5.2155 0-2.9824 8.3372-8.9324 6.6713-5.9499-1.6658-15.632 0-15.632-5.0045s-6.6993-11.675-6.6993-11.675-102.73-27.518-105.71-29.187c-2.9761-1.6688-7.4456-2.4998-7.4456 2.5031 0 5.003 2.2331 11.675 2.2331 11.675s102.68 16.092 104.18 24.43c1.4839 8.3405-0.4847 17.025 17.748 21.23 20.451 4.7185 22.448-5.0717 26.165-6.7389 3.7168-1.6672 108.73 33.626 108.73 33.626 0.42608-1.1816 4.0108-12.088-7.4483-17.512-30.941-14.658-103.39-30.019-107.19-30.019z"/>
<g fill="#e20415">
<path id="path728" d="m-853.48 377.96s-4.1563 8.724 0.52745 7.6986c4.6837-1.0253 105.18 22.322 105.18 22.322l4.9662-1.5338s-111.42-32.657-110.67-28.487z"/>
<path id="path730" d="m-712.03 416.31s107.2 27.521 107.95 31.69c0.73448 4.1669-1.6602 6.104-1.6602 6.104s-104.06-31.955-104.79-33.623c-0.7493-1.6671-4.4662-5.0045-1.4986-4.1702z"/>
<path id="path732" d="m-745.89 411.89s0.0589 6.4083 2.762 8.4327 9.6228 7.7496 14.133 7.7496c4.5105 0 17.307-4.7282 18.438-7.5885 1.1312-2.8603-2.4976-6.9004-3.6875-4.5438-1.19 2.3566-4.4369 7.6494-11.739 7.0765-12.928-1.0105-15.647-6.0644-15.94-9.7723-0.29362-3.7078-2.8355-1.7-3.9668-1.3544z"/>
</g>
<path id="path768" fill="#26231f" d="m-728.08 400.6s-89.254-106.88-97.716-109.47c-8.4623-2.5866-6.927 4.3084-6.927 4.3084s100.81 106.88 104.64 105.16z"/>
<path id="path770" fill="#26231f" d="m-830.41 291.11s110.03-24.134 120.82-18.965c10.769 5.1726 75.192 79.58 70.681 85.905-4.5108 6.3251-82.23 44.252-89.164 42.528-6.9343-1.7244-102.33-109.47-102.33-109.47z"/>
<path id="path772" fill="#fefbde" d="m-825.05 293.71s94.787 102.08 99.271 101.71c20.774-1.7249 87.709-38.793 84.636-41.376-3.0851-2.5836-65.408-78.438-70.798-78.438-5.3896 0-113.11 13.791-113.11 18.101z"/>
</g>
</g>
</svg>
